<ttFont>
    <TTGlyph name=".notdef" xMin="0" yMin="0" xMax="500" yMax="700">
      <contour>
        <pt x="0" y="700" on="1"/>
        <pt x="500" y="700" on="1"/>
        <pt x="500" y="0" on="1"/>
        <pt x="0" y="0" on="1"/>
      </contour>
      <contour>
        <pt x="80" y="650" on="1"/>
        <pt x="250" y="395" on="1"/>
        <pt x="420" y="650" on="1"/>
      </contour>
      <contour>
        <pt x="50" y="605" on="1"/>
        <pt x="50" y="95" on="1"/>
        <pt x="220" y="350" on="1"/>
      </contour>
      <contour>
        <pt x="280" y="350" on="1"/>
        <pt x="450" y="95" on="1"/>
        <pt x="450" y="605" on="1"/>
      </contour>
      <contour>
        <pt x="80" y="50" on="1"/>
        <pt x="420" y="50" on="1"/>
        <pt x="250" y="305" on="1"/>
      </contour>
    </TTGlyph>
    <TTGlyph name="A" xMin="-54" yMin="0" xMax="663" yMax="686">
      <contour>
        <pt x="488" y="131" on="1"/>
        <pt x="173" y="131" on="1"/>
        <pt x="101" y="0" on="1"/>
        <pt x="-54" y="0" on="1"/>
        <pt x="334" y="686" on="1"/>
        <pt x="516" y="686" on="1"/>
        <pt x="663" y="0" on="1"/>
        <pt x="515" y="0" on="1"/>
      </contour>
      <contour>
        <pt x="426" y="447" on="0"/>
        <pt x="411" y="545" on="0"/>
        <pt x="409" y="561" on="1"/>
        <pt x="404" y="561" on="1"/>
        <pt x="396" y="545" on="0"/>
        <pt x="347" y="447" on="0"/>
        <pt x="335" y="426" on="1"/>
        <pt x="241" y="252" on="1"/>
        <pt x="464" y="252" on="1"/>
        <pt x="430" y="426" on="1"/>
      </contour>
    </TTGlyph>
    <TTGlyph name="AE" xMin="-62" yMin="0" xMax="1002" yMax="686">
      <contour>
        <pt x="494" y="131" on="1"/>
        <pt x="178" y="131" on="1"/>
        <pt x="95" y="0" on="1"/>
        <pt x="-62" y="0" on="1"/>
        <pt x="390" y="686" on="1"/>
        <pt x="1002" y="686" on="1"/>
        <pt x="980" y="563" on="1"/>
        <pt x="593" y="563" on="1"/>
        <pt x="607" y="412" on="1"/>
        <pt x="910" y="412" on="1"/>
        <pt x="888" y="289" on="1"/>
        <pt x="618" y="289" on="1"/>
        <pt x="633" y="123" on="1"/>
        <pt x="909" y="123" on="1"/>
        <pt x="887" y="0" on="1"/>
        <pt x="505" y="0" on="1"/>
      </contour>
      <contour>
        <pt x="454" y="563" on="1"/>
        <pt x="255" y="252" on="1"/>
        <pt x="484" y="252" on="1"/>
        <pt x="459" y="563" on="1"/>
      </contour>
    </TTGlyph>
    <TTGlyph name="AEacute" xMin="-62" yMin="0" xMax="1002" yMax="868">
      <component glyphName="AE" x="0" y="0" flags="0x0"/>
      <component glyphName="acute" x="473" y="145" flags="0x0"/>
    </TTGlyph>
    <TTGlyph name="Aacute" xMin="-54" yMin="0" xMax="663" yMax="868">
      <component glyphName="A" x="0" y="0" flags="0x0"/>
      <component glyphName="acute" x="324" y="145" flags="0x0"/>
    </TTGlyph>
    <TTGlyph name="Abreve" xMin="-54" yMin="0" xMax="663" yMax="868">
      <component glyphName="A" x="0" y="0" flags="0x0"/>
      <component glyphName="breve" x="271" y="145" flags="0x0"/>
    </TTGlyph>
    <TTGlyph name="Acircumflex" xMin="-54" yMin="0" xMax="663" yMax="868">
      <component glyphName="A" x="0" y="0" flags="0x0"/>
      <component glyphName="circumflex" x="275" y="145" flags="0x0"/>
    </TTGlyph>
    <TTGlyph name="Adieresis" xMin="-54" yMin="0" xMax="663" yMax="868">
      <component glyphName="A" x="0" y="0" flags="0x0"/>
      <component glyphName="dieresis" x="285" y="145" flags="0x0"/>
    </TTGlyph>
    <TTGlyph name="Agrave" xMin="-54" yMin="0" xMax="663" yMax="868">
      <component glyphName="A" x="0" y="0" flags="0x0"/>
      <component glyphName="grave" x="216" y="145" flags="0x0"/>
    </TTGlyph>
    <TTGlyph name="Amacron" xMin="-54" yMin="0" xMax="663" yMax="844">
      <component glyphName="A" x="0" y="0" flags="0x0"/>
      <component glyphName="macron" x="288" y="145" flags="0x0"/>
    </TTGlyph>
    <TTGlyph name="Aogonek" xMin="-54" yMin="-182" xMax="663" yMax="686">
      <contour>
        <pt x="589" y="-182" on="0"/>
        <pt x="555" y="-182" on="1"/>
        <pt x="513" y="-182" on="0"/>
        <pt x="458" y="-145" on="0"/>
        <pt x="458" y="-105" on="1"/>
        <pt x="458" y="-73" on="0"/>
        <pt x="489" y="-22" on="0"/>
        <pt x="515" y="0" on="1"/>
        <pt x="488" y="131" on="1"/>
        <pt x="173" y="131" on="1"/>
        <pt x="101" y="0" on="1"/>
        <pt x="-54" y="0" on="1"/>
        <pt x="334" y="686" on="1"/>
        <pt x="516" y="686" on="1"/>
        <pt x="663" y="0" on="1"/>
        <pt x="606" y="0" on="1"/>
        <pt x="591" y="-15" on="0"/>
        <pt x="570" y="-55" on="0"/>
        <pt x="570" y="-75" on="1"/>
        <pt x="570" y="-92" on="0"/>
        <pt x="594" y="-113" on="0"/>
        <pt x="620" y="-113" on="1"/>
        <pt x="644" y="-113" on="1"/>
        <pt x="634" y="-168" on="1"/>
      </contour>
      <contour>
        <pt x="426" y="447" on="0"/>
        <pt x="411" y="545" on="0"/>
        <pt x="409" y="561" on="1"/>
        <pt x="404" y="561" on="1"/>
        <pt x="396" y="545" on="0"/>
        <pt x="347" y="447" on="0"/>
        <pt x="335" y="426" on="1"/>
        <pt x="241" y="252" on="1"/>
        <pt x="464" y="252" on="1"/>
        <pt x="430" y="426" on="1"/>
      </contour>
    </TTGlyph>
    <TTGlyph name="Aring" xMin="-54" yMin="0" xMax="663" yMax="903">
      <component glyphName="A" x="0" y="0" flags="0x0"/>
      <component glyphName="ring" x="279" y="145" flags="0x0"/>
    </TTGlyph>
    <TTGlyph name="Aringacute" xMin="-54" yMin="0" xMax="663" yMax="993">
      <contour>
        <pt x="395" y="861" on="1"/>
        <pt x="497" y="993" on="1"/>
        <pt x="635" y="993" on="1"/>
        <pt x="636" y="990" on="1"/>
        <pt x="505" y="861" on="1"/>
      </contour>
      <contour>
        <pt x="488" y="131" on="1"/>
        <pt x="173" y="131" on="1"/>
        <pt x="101" y="0" on="1"/>
        <pt x="-54" y="0" on="1"/>
        <pt x="334" y="686" on="1"/>
        <pt x="329" y="697" on="0"/>
        <pt x="329" y="717" on="1"/>
        <pt x="329" y="765" on="0"/>
        <pt x="394" y="835" on="0"/>
        <pt x="444" y="835" on="1"/>
        <pt x="487" y="835" on="0"/>
        <pt x="534" y="787" on="0"/>
        <pt x="534" y="749" on="1"/>
        <pt x="534" y="715" on="0"/>
        <pt x="516" y="686" on="1"/>
        <pt x="663" y="0" on="1"/>
        <pt x="515" y="0" on="1"/>
      </contour>
      <contour>
        <pt x="477" y="758" on="0"/>
        <pt x="456" y="778" on="0"/>
        <pt x="439" y="778" on="1"/>
        <pt x="417" y="778" on="0"/>
        <pt x="387" y="747" on="0"/>
        <pt x="387" y="724" on="1"/>
        <pt x="387" y="709" on="0"/>
        <pt x="407" y="690" on="0"/>
        <pt x="424" y="690" on="1"/>
        <pt x="445" y="690" on="0"/>
        <pt x="477" y="721" on="0"/>
        <pt x="477" y="742" on="1"/>
      </contour>
      <contour>
        <pt x="426" y="447" on="0"/>
        <pt x="411" y="545" on="0"/>
        <pt x="409" y="561" on="1"/>
        <pt x="404" y="561" on="1"/>
        <pt x="396" y="545" on="0"/>
        <pt x="347" y="447" on="0"/>
        <pt x="335" y="426" on="1"/>
        <pt x="241" y="252" on="1"/>
        <pt x="464" y="252" on="1"/>
        <pt x="430" y="426" on="1"/>
      </contour>
    </TTGlyph>
    <TTGlyph name="Atilde" xMin="-54" yMin="0" xMax="663" yMax="868">
      <component glyphName="A" x="0" y="0" flags="0x0"/>
      <component glyphName="tilde" x="283" y="145" flags="0x0"/>
    </TTGlyph>
    <TTGlyph name="B" xMin="9" yMin="0" xMax="688" yMax="686">
      <contour>
        <pt x="130" y="686" on="1"/>
        <pt x="463" y="686" on="1"/>
        <pt x="569" y="686" on="0"/>
        <pt x="688" y="604" on="0"/>
        <pt x="688" y="525" on="1"/>
        <pt x="688" y="464" on="0"/>
        <pt x="606" y="371" on="0"/>
        <pt x="545" y="360" on="1"/>
        <pt x="545" y="356" on="1"/>
        <pt x="592" y="340" on="0"/>
        <pt x="650" y="261" on="0"/>
        <pt x="650" y="206" on="1"/>
        <pt x="650" y="138" on="0"/>
        <pt x="579" y="46" on="0"/>
        <pt x="462" y="0" on="0"/>
        <pt x="392" y="0" on="1"/>
        <pt x="9" y="0" on="1"/>
      </contour>
      <contour>
        <pt x="228" y="412" on="1"/>
        <pt x="434" y="412" on="1"/>
        <pt x="484" y="412" on="0"/>
        <pt x="533" y="462" on="0"/>
        <pt x="533" y="497" on="1"/>
        <pt x="533" y="529" on="0"/>
        <pt x="492" y="563" on="0"/>
        <pt x="461" y="563" on="1"/>
        <pt x="254" y="563" on="1"/>
      </contour>
      <contour>
        <pt x="177" y="123" on="1"/>
        <pt x="390" y="123" on="1"/>
        <pt x="438" y="123" on="0"/>
        <pt x="502" y="171" on="0"/>
        <pt x="502" y="215" on="1"/>
        <pt x="502" y="250" on="0"/>
        <pt x="457" y="291" on="0"/>
        <pt x="411" y="291" on="1"/>
        <pt x="206" y="291" on="1"/>
      </contour>
    </TTGlyph>
    <TTGlyph name="C" xMin="34" yMin="-12" xMax="703" yMax="698">
      <contour>
        <pt x="652" y="166" on="0"/>
        <pt x="554" y="47" on="0"/>
        <pt x="409" y="-12" on="0"/>
        <pt x="323" y="-12" on="1"/>
        <pt x="34" y="-12" on="0"/>
        <pt x="34" y="256" on="1"/>
        <pt x="34" y="366" on="0"/>
        <pt x="107" y="558" on="0"/>
        <pt x="180" y="619" on="1"/>
        <pt x="226" y="657" on="0"/>
        <pt x="349" y="698" on="0"/>
        <pt x="423" y="698" on="1"/>
        <pt x="549" y="698" on="0"/>
        <pt x="703" y="590" on="0"/>
        <pt x="703" y="486" on="1"/>
        <pt x="703" y="463" on="0"/>
        <pt x="698" y="431" on="1"/>
        <pt x="549" y="431" on="1"/>
        <pt x="552" y="446" on="0"/>
        <pt x="552" y="461" on="1"/>
        <pt x="552" y="517" on="0"/>
        <pt x="479" y="575" on="0"/>
        <pt x="418" y="575" on="1"/>
        <pt x="326" y="575" on="0"/>
        <pt x="213" y="460" on="0"/>
        <pt x="195" y="358" on="1"/>
        <pt x="183" y="292" on="0"/>
        <pt x="183" y="260" on="1"/>
        <pt x="183" y="111" on="0"/>
        <pt x="328" y="111" on="1"/>
        <pt x="405" y="111" on="0"/>
        <pt x="510" y="187" on="0"/>
        <pt x="523" y="254" on="1"/>
        <pt x="667" y="254" on="1"/>
      </contour>
    </TTGlyph>
    <TTGlyph name="Cacute" xMin="34" yMin="-12" xMax="703" yMax="868">
      <component glyphName="C" x="0" y="0" flags="0x0"/>
      <component glyphName="acute" x="334" y="145" flags="0x0"/>
    </TTGlyph>
    <TTGlyph name="Cacute.loclPLK" xMin="34" yMin="-12" xMax="703" yMax="868">
      <component glyphName="C" x="0" y="0" flags="0x0"/>
      <component glyphName="acute.loclPLK" x="234" y="145" flags="0x0"/>
    </TTGlyph>
    <TTGlyph name="Ccaron" xMin="34" yMin="-12" xMax="703" yMax="868">
      <component glyphName="C" x="0" y="0" flags="0x0"/>
      <component glyphName="caron" x="293" y="145" flags="0x0"/>
    </TTGlyph>
    <TTGlyph name="Ccedilla" xMin="34" yMin="-182" xMax="703" yMax="698">
      <contour>
        <pt x="383" y="-35" on="0"/>
        <pt x="431" y="-68" on="0"/>
        <pt x="431" y="-98" on="1"/>
        <pt x="431" y="-144" on="0"/>
        <pt x="335" y="-182" on="0"/>
        <pt x="279" y="-182" on="1"/>
        <pt x="223" y="-182" on="0"/>
        <pt x="177" y="-174" on="1"/>
        <pt x="186" y="-125" on="1"/>
        <pt x="274" y="-125" on="1"/>
        <pt x="298" y="-125" on="0"/>
        <pt x="323" y="-112" on="0"/>
        <pt x="323" y="-96" on="1"/>
        <pt x="323" y="-86" on="0"/>
        <pt x="306" y="-77" on="0"/>
        <pt x="285" y="-77" on="1"/>
        <pt x="244" y="-77" on="1"/>
        <pt x="266" y="-9" on="1"/>
        <pt x="34" y="15" on="0"/>
        <pt x="34" y="256" on="1"/>
        <pt x="34" y="366" on="0"/>
        <pt x="107" y="558" on="0"/>
        <pt x="180" y="619" on="1"/>
        <pt x="226" y="657" on="0"/>
        <pt x="349" y="698" on="0"/>
        <pt x="423" y="698" on="1"/>
        <pt x="549" y="698" on="0"/>
        <pt x="703" y="590" on="0"/>
        <pt x="703" y="486" on="1"/>
        <pt x="703" y="463" on="0"/>
        <pt x="698" y="431" on="1"/>
        <pt x="549" y="431" on="1"/>
        <pt x="552" y="446" on="0"/>
        <pt x="552" y="461" on="1"/>
        <pt x="552" y="517" on="0"/>
        <pt x="479" y="575" on="0"/>
        <pt x="418" y="575" on="1"/>
        <pt x="326" y="575" on="0"/>
        <pt x="213" y="460" on="0"/>
        <pt x="195" y="358" on="1"/>
        <pt x="183" y="292" on="0"/>
        <pt x="183" y="260" on="1"/>
        <pt x="183" y="111" on="0"/>
        <pt x="328" y="111" on="1"/>
        <pt x="405" y="111" on="0"/>
        <pt x="510" y="187" on="0"/>
        <pt x="523" y="254" on="1"/>
        <pt x="667" y="254" on="1"/>
        <pt x="645" y="131" on="0"/>
        <pt x="474" y="-4" on="0"/>
        <pt x="351" y="-11" on="1"/>
        <pt x="344" y="-33" on="1"/>
      </contour>
    </TTGlyph>
    <TTGlyph name="Ccircumflex" xMin="34" yMin="-12" xMax="703" yMax="868">
      <component glyphName="C" x="0" y="0" flags="0x0"/>
      <component glyphName="circumflex" x="285" y="145" flags="0x0"/>
    </TTGlyph>
    <TTGlyph name="Cdotaccent" xMin="34" yMin="-12" xMax="703" yMax="869">
      <component glyphName="C" x="0" y="0" flags="0x0"/>
      <component glyphName="dotaccent" x="292" y="145" flags="0x0"/>
    </TTGlyph>
    <TTGlyph name="D" xMin="9" yMin="0" xMax="691" yMax="686">
      <contour>
        <pt x="130" y="686" on="1"/>
        <pt x="404" y="686" on="1"/>
        <pt x="543" y="686" on="0"/>
        <pt x="691" y="551" on="0"/>
        <pt x="691" y="416" on="1"/>
        <pt x="691" y="324" on="0"/>
        <pt x="634" y="161" on="0"/>
        <pt x="579" y="104" on="1"/>
        <pt x="531" y="54" on="0"/>
        <pt x="396" y="0" on="0"/>
        <pt x="313" y="0" on="1"/>
        <pt x="9" y="0" on="1"/>
      </contour>
      <contour>
        <pt x="396" y="123" on="0"/>
        <pt x="513" y="231" on="0"/>
        <pt x="530" y="328" on="1"/>
        <pt x="541" y="391" on="0"/>
        <pt x="541" y="417" on="1"/>
        <pt x="541" y="487" on="0"/>
        <pt x="465" y="563" on="0"/>
        <pt x="392" y="563" on="1"/>
        <pt x="253" y="563" on="1"/>
        <pt x="176" y="123" on="1"/>
        <pt x="305" y="123" on="1"/>
      </contour>
    </TTGlyph>
    <TTGlyph name="Dcaron" xMin="9" yMin="0" xMax="691" yMax="868">
      <component glyphName="D" x="0" y="0" flags="0x0"/>
      <component glyphName="caron" x="273" y="145" flags="0x0"/>
    </TTGlyph>
    <TTGlyph name="Dcroat" xMin="2" yMin="0" xMax="691" yMax="686">
      <contour>
        <pt x="64" y="312" on="1"/>
        <pt x="2" y="312" on="1"/>
        <pt x="16" y="397" on="1"/>
        <pt x="79" y="397" on="1"/>
        <pt x="130" y="686" on="1"/>
        <pt x="404" y="686" on="1"/>
        <pt x="543" y="686" on="0"/>
        <pt x="691" y="551" on="0"/>
        <pt x="691" y="416" on="1"/>
        <pt x="691" y="324" on="0"/>
        <pt x="634" y="161" on="0"/>
        <pt x="579" y="104" on="1"/>
        <pt x="531" y="54" on="0"/>
        <pt x="396" y="0" on="0"/>
        <pt x="313" y="0" on="1"/>
        <pt x="9" y="0" on="1"/>
      </contour>
      <contour>
        <pt x="396" y="123" on="0"/>
        <pt x="513" y="231" on="0"/>
        <pt x="530" y="328" on="1"/>
        <pt x="541" y="391" on="0"/>
        <pt x="541" y="417" on="1"/>
        <pt x="541" y="487" on="0"/>
        <pt x="465" y="563" on="0"/>
        <pt x="392" y="563" on="1"/>
        <pt x="253" y="563" on="1"/>
        <pt x="224" y="397" on="1"/>
        <pt x="363" y="397" on="1"/>
        <pt x="348" y="312" on="1"/>
        <pt x="209" y="312" on="1"/>
        <pt x="176" y="123" on="1"/>
        <pt x="305" y="123" on="1"/>
      </contour>
    </TTGlyph>
    <TTGlyph name="Delta" xMin="-54" yMin="0" xMax="663" yMax="686">
      <contour>
        <pt x="334" y="686" on="1"/>
        <pt x="516" y="686" on="1"/>
        <pt x="663" y="0" on="1"/>
        <pt x="-54" y="0" on="1"/>
      </contour>
      <contour>
        <pt x="424" y="447" on="0"/>
        <pt x="411" y="545" on="0"/>
        <pt x="409" y="561" on="1"/>
        <pt x="404" y="561" on="1"/>
        <pt x="396" y="545" on="0"/>
        <pt x="349" y="447" on="0"/>
        <pt x="337" y="426" on="1"/>
        <pt x="225" y="220" on="1"/>
        <pt x="207" y="189" on="0"/>
        <pt x="171" y="131" on="0"/>
        <pt x="166" y="123" on="1"/>
        <pt x="494" y="123" on="1"/>
        <pt x="491" y="131" on="0"/>
        <pt x="476" y="190" on="0"/>
        <pt x="470" y="220" on="1"/>
        <pt x="428" y="426" on="1"/>
      </contour>
    </TTGlyph>
    <TTGlyph name="E" xMin="9" yMin="0" xMax="669" yMax="686">
      <contour>
        <pt x="130" y="686" on="1"/>
        <pt x="669" y="686" on="1"/>
        <pt x="647" y="563" on="1"/>
        <pt x="253" y="563" on="1"/>
        <pt x="227" y="412" on="1"/>
        <pt x="577" y="412" on="1"/>
        <pt x="555" y="289" on="1"/>
        <pt x="205" y="289" on="1"/>
        <pt x="176" y="123" on="1"/>
        <pt x="576" y="123" on="1"/>
        <pt x="554" y="0" on="1"/>
        <pt x="9" y="0" on="1"/>
      </contour>
    </TTGlyph>
    <TTGlyph name="Eacute" xMin="9" yMin="0" xMax="669" yMax="868">
      <component glyphName="E" x="0" y="0" flags="0x0"/>
      <component glyphName="acute" x="307" y="145" flags="0x0"/>
    </TTGlyph>
    <TTGlyph name="Ebreve" xMin="9" yMin="0" xMax="669" yMax="868">
      <component glyphName="E" x="0" y="0" flags="0x0"/>
      <component glyphName="breve" x="254" y="145" flags="0x0"/>
    </TTGlyph>
    <TTGlyph name="Ecaron" xMin="9" yMin="0" xMax="669" yMax="868">
      <component glyphName="E" x="0" y="0" flags="0x0"/>
      <component glyphName="caron" x="266" y="145" flags="0x0"/>
    </TTGlyph>
    <TTGlyph name="Ecircumflex" xMin="9" yMin="0" xMax="669" yMax="868">
      <component glyphName="E" x="0" y="0" flags="0x0"/>
      <component glyphName="circumflex" x="258" y="145" flags="0x0"/>
    </TTGlyph>
    <TTGlyph name="Edieresis" xMin="9" yMin="0" xMax="669" yMax="868">
      <component glyphName="E" x="0" y="0" flags="0x0"/>
      <component glyphName="dieresis" x="268" y="145" flags="0x0"/>
    </TTGlyph>
    <TTGlyph name="Edotaccent" xMin="9" yMin="0" xMax="669" yMax="869">
      <component glyphName="E" x="0" y="0" flags="0x0"/>
      <component glyphName="dotaccent" x="265" y="145" flags="0x0"/>
    </TTGlyph>
    <TTGlyph name="Egrave" xMin="9" yMin="0" xMax="669" yMax="868">
      <component glyphName="E" x="0" y="0" flags="0x0"/>
      <component glyphName="grave" x="199" y="145" flags="0x0"/>
    </TTGlyph>
    <TTGlyph name="Emacron" xMin="9" yMin="0" xMax="669" yMax="844">
      <component glyphName="E" x="0" y="0" flags="0x0"/>
      <component glyphName="macron" x="271" y="145" flags="0x0"/>
    </TTGlyph>
    <TTGlyph name="Eng" xMin="9" yMin="-182" xMax="718" yMax="686">
      <contour>
        <pt x="401" y="-70" on="1"/>
        <pt x="443" y="-70" on="0"/>
        <pt x="451" y="-27" on="1"/>
        <pt x="456" y="0" on="1"/>
        <pt x="260" y="391" on="1"/>
        <pt x="249" y="413" on="0"/>
        <pt x="234" y="448" on="0"/>
        <pt x="232" y="454" on="1"/>
        <pt x="227" y="454" on="1"/>
        <pt x="226" y="447" on="0"/>
        <pt x="222" y="411" on="0"/>
        <pt x="219" y="394" on="1"/>
        <pt x="150" y="0" on="1"/>
        <pt x="9" y="0" on="1"/>
        <pt x="130" y="686" on="1"/>
        <pt x="271" y="686" on="1"/>
        <pt x="467" y="298" on="1"/>
        <pt x="475" y="281" on="0"/>
        <pt x="492" y="241" on="0"/>
        <pt x="495" y="234" on="1"/>
        <pt x="500" y="234" on="1"/>
        <pt x="508" y="292" on="1"/>
        <pt x="577" y="686" on="1"/>
        <pt x="718" y="686" on="1"/>
        <pt x="590" y="-41" on="1"/>
        <pt x="580" y="-101" on="0"/>
        <pt x="506" y="-182" on="0"/>
        <pt x="438" y="-182" on="1"/>
        <pt x="413" y="-182" on="0"/>
        <pt x="354" y="-172" on="0"/>
        <pt x="337" y="-166" on="1"/>
        <pt x="353" y="-70" on="1"/>
      </contour>
    </TTGlyph>
    <TTGlyph name="Eogonek" xMin="9" yMin="-182" xMax="669" yMax="686">
      <contour>
        <pt x="482" y="-182" on="0"/>
        <pt x="450" y="-182" on="1"/>
        <pt x="412" y="-182" on="0"/>
        <pt x="357" y="-149" on="0"/>
        <pt x="357" y="-114" on="1"/>
        <pt x="357" y="-45" on="0"/>
        <pt x="444" y="0" on="1"/>
        <pt x="9" y="0" on="1"/>
        <pt x="130" y="686" on="1"/>
        <pt x="669" y="686" on="1"/>
        <pt x="647" y="563" on="1"/>
        <pt x="253" y="563" on="1"/>
        <pt x="227" y="412" on="1"/>
        <pt x="577" y="412" on="1"/>
        <pt x="555" y="289" on="1"/>
        <pt x="205" y="289" on="1"/>
        <pt x="176" y="123" on="1"/>
        <pt x="576" y="123" on="1"/>
        <pt x="554" y="0" on="1"/>
        <pt x="522" y="-13" on="0"/>
        <pt x="469" y="-60" on="0"/>
        <pt x="469" y="-82" on="1"/>
        <pt x="469" y="-95" on="0"/>
        <pt x="491" y="-113" on="0"/>
        <pt x="510" y="-113" on="1"/>
        <pt x="534" y="-113" on="1"/>
        <pt x="524" y="-168" on="1"/>
      </contour>
    </TTGlyph>
    <TTGlyph name="Eth" xMin="2" yMin="0" xMax="691" yMax="686">
      <contour>
        <pt x="64" y="312" on="1"/>
        <pt x="2" y="312" on="1"/>
        <pt x="16" y="397" on="1"/>
        <pt x="79" y="397" on="1"/>
        <pt x="130" y="686" on="1"/>
        <pt x="404" y="686" on="1"/>
        <pt x="543" y="686" on="0"/>
        <pt x="691" y="551" on="0"/>
        <pt x="691" y="416" on="1"/>
        <pt x="691" y="324" on="0"/>
        <pt x="634" y="161" on="0"/>
        <pt x="579" y="104" on="1"/>
        <pt x="531" y="54" on="0"/>
        <pt x="396" y="0" on="0"/>
        <pt x="313" y="0" on="1"/>
        <pt x="9" y="0" on="1"/>
      </contour>
      <contour>
        <pt x="396" y="123" on="0"/>
        <pt x="513" y="231" on="0"/>
        <pt x="530" y="328" on="1"/>
        <pt x="541" y="391" on="0"/>
        <pt x="541" y="417" on="1"/>
        <pt x="541" y="487" on="0"/>
        <pt x="465" y="563" on="0"/>
        <pt x="392" y="563" on="1"/>
        <pt x="253" y="563" on="1"/>
        <pt x="224" y="397" on="1"/>
        <pt x="363" y="397" on="1"/>
        <pt x="348" y="312" on="1"/>
        <pt x="209" y="312" on="1"/>
        <pt x="176" y="123" on="1"/>
        <pt x="305" y="123" on="1"/>
      </contour>
    </TTGlyph>
    <TTGlyph name="Euro" xMin="-10" yMin="-12" xMax="581" yMax="698">
      <contour>
        <pt x="458" y="5" on="0"/>
        <pt x="425" y="-4" on="0"/>
        <pt x="369" y="-12" on="0"/>
        <pt x="335" y="-12" on="1"/>
        <pt x="273" y="-12" on="0"/>
        <pt x="153" y="37" on="0"/>
        <pt x="68" y="147" on="0"/>
        <pt x="61" y="233" on="1"/>
        <pt x="-10" y="233" on="1"/>
        <pt x="3" y="314" on="1"/>
        <pt x="61" y="314" on="1"/>
        <pt x="64" y="352" on="0"/>
        <pt x="70" y="384" on="1"/>
        <pt x="16" y="384" on="1"/>
        <pt x="30" y="465" on="1"/>
        <pt x="93" y="465" on="1"/>
        <pt x="140" y="588" on="0"/>
        <pt x="341" y="698" on="0"/>
        <pt x="452" y="698" on="1"/>
        <pt x="488" y="698" on="0"/>
        <pt x="546" y="690" on="0"/>
        <pt x="577" y="681" on="0"/>
        <pt x="581" y="680" on="1"/>
        <pt x="562" y="570" on="1"/>
        <pt x="559" y="571" on="0"/>
        <pt x="533" y="579" on="0"/>
        <pt x="493" y="586" on="0"/>
        <pt x="472" y="586" on="1"/>
        <pt x="397" y="586" on="0"/>
        <pt x="281" y="525" on="0"/>
        <pt x="246" y="465" on="1"/>
        <pt x="470" y="465" on="1"/>
        <pt x="456" y="384" on="1"/>
        <pt x="214" y="384" on="1"/>
        <pt x="206" y="356" on="0"/>
        <pt x="203" y="314" on="1"/>
        <pt x="443" y="314" on="1"/>
        <pt x="429" y="233" on="1"/>
        <pt x="203" y="233" on="1"/>
        <pt x="215" y="158" on="0"/>
        <pt x="320" y="100" on="0"/>
        <pt x="375" y="100" on="1"/>
        <pt x="399" y="100" on="0"/>
        <pt x="447" y="107" on="0"/>
        <pt x="477" y="115" on="0"/>
        <pt x="481" y="116" on="1"/>
        <pt x="462" y="6" on="1"/>
      </contour>
    </TTGlyph>
    <TTGlyph name="F" xMin="9" yMin="0" xMax="627" yMax="686">
      <contour>
        <pt x="154" y="0" on="1"/>
        <pt x="9" y="0" on="1"/>
        <pt x="130" y="686" on="1"/>
        <pt x="627" y="686" on="1"/>
        <pt x="605" y="563" on="1"/>
        <pt x="253" y="563" on="1"/>
        <pt x="223" y="394" on="1"/>
        <pt x="538" y="394" on="1"/>
        <pt x="517" y="271" on="1"/>
        <pt x="202" y="271" on="1"/>
      </contour>
    </TTGlyph>
    <TTGlyph name="G" xMin="34" yMin="-12" xMax="742" yMax="698">
      <contour>
        <pt x="558" y="76" on="1"/>
        <pt x="504" y="32" on="0"/>
        <pt x="395" y="-12" on="0"/>
        <pt x="323" y="-12" on="1"/>
        <pt x="34" y="-12" on="0"/>
        <pt x="34" y="258" on="1"/>
        <pt x="34" y="364" on="0"/>
        <pt x="104" y="547" on="0"/>
        <pt x="172" y="606" on="1"/>
        <pt x="223" y="651" on="0"/>
        <pt x="360" y="698" on="0"/>
        <pt x="443" y="698" on="1"/>
        <pt x="573" y="698" on="0"/>
        <pt x="742" y="594" on="0"/>
        <pt x="742" y="495" on="1"/>
        <pt x="742" y="472" on="0"/>
        <pt x="738" y="452" on="1"/>
        <pt x="588" y="452" on="1"/>
        <pt x="589" y="458" on="0"/>
        <pt x="589" y="470" on="1"/>
        <pt x="589" y="518" on="0"/>
        <pt x="506" y="575" on="0"/>
        <pt x="446" y="575" on="1"/>
        <pt x="339" y="575" on="0"/>
        <pt x="212" y="463" on="0"/>
        <pt x="195" y="358" on="1"/>
        <pt x="183" y="285" on="0"/>
        <pt x="183" y="260" on="1"/>
        <pt x="183" y="111" on="0"/>
        <pt x="335" y="111" on="1"/>
        <pt x="419" y="111" on="0"/>
        <pt x="546" y="189" on="0"/>
        <pt x="558" y="254" on="1"/>
        <pt x="350" y="254" on="1"/>
        <pt x="371" y="373" on="1"/>
        <pt x="724" y="373" on="1"/>
        <pt x="658" y="0" on="1"/>
        <pt x="558" y="0" on="1"/>
      </contour>
    </TTGlyph>
    <TTGlyph name="G_tilde.loclGUA" xMin="34" yMin="-12" xMax="742" yMax="868">
      <component glyphName="G" x="0" y="0" flags="0x0"/>
      <component glyphName="tilde" x="321" y="145" flags="0x0"/>
    </TTGlyph>
    <TTGlyph name="Gbreve" xMin="34" yMin="-12" xMax="742" yMax="868">
      <component glyphName="G" x="0" y="0" flags="0x0"/>
      <component glyphName="breve" x="309" y="145" flags="0x0"/>
    </TTGlyph>
    <TTGlyph name="Gcaron" xMin="34" yMin="-12" xMax="742" yMax="868">
      <component glyphName="G" x="0" y="0" flags="0x0"/>
      <component glyphName="caron" x="321" y="145" flags="0x0"/>
    </TTGlyph>
    <TTGlyph name="Gcircumflex" xMin="34" yMin="-12" xMax="742" yMax="868">
      <component glyphName="G" x="0" y="0" flags="0x0"/>
      <component glyphName="circumflex" x="313" y="145" flags="0x0"/>
    </TTGlyph>
    <TTGlyph name="Gcommaaccent" xMin="34" yMin="-230" xMax="742" yMax="698">
      <component glyphName="G" x="0" y="0" flags="0x0"/>
      <component glyphName="uni0326" x="486" y="0" flags="0x0"/>
    </TTGlyph>
    <TTGlyph name="Gdotaccent" xMin="34" yMin="-12" xMax="742" yMax="869">
      <component glyphName="G" x="0" y="0" flags="0x0"/>
      <component glyphName="dotaccent" x="320" y="145" flags="0x0"/>
    </TTGlyph>
    <TTGlyph name="H" xMin="9" yMin="0" xMax="718" yMax="686">
      <contour>
        <pt x="503" y="289" on="1"/>
        <pt x="205" y="289" on="1"/>
        <pt x="154" y="0" on="1"/>
        <pt x="9" y="0" on="1"/>
        <pt x="130" y="686" on="1"/>
        <pt x="275" y="686" on="1"/>
        <pt x="227" y="414" on="1"/>
        <pt x="525" y="414" on="1"/>
        <pt x="573" y="686" on="1"/>
        <pt x="718" y="686" on="1"/>
        <pt x="597" y="0" on="1"/>
        <pt x="452" y="0" on="1"/>
      </contour>
    </TTGlyph>
    <TTGlyph name="Hbar" xMin="9" yMin="0" xMax="762" yMax="686">
      <contour>
        <pt x="503" y="289" on="1"/>
        <pt x="205" y="289" on="1"/>
        <pt x="154" y="0" on="1"/>
        <pt x="9" y="0" on="1"/>
        <pt x="98" y="507" on="1"/>
        <pt x="38" y="507" on="1"/>
        <pt x="54" y="598" on="1"/>
        <pt x="114" y="598" on="1"/>
        <pt x="130" y="686" on="1"/>
        <pt x="275" y="686" on="1"/>
        <pt x="259" y="598" on="1"/>
        <pt x="557" y="598" on="1"/>
        <pt x="573" y="686" on="1"/>
        <pt x="718" y="686" on="1"/>
        <pt x="702" y="598" on="1"/>
        <pt x="762" y="598" on="1"/>
        <pt x="746" y="507" on="1"/>
        <pt x="686" y="507" on="1"/>
        <pt x="597" y="0" on="1"/>
        <pt x="452" y="0" on="1"/>
      </contour>
      <contour>
        <pt x="243" y="507" on="1"/>
        <pt x="227" y="414" on="1"/>
        <pt x="525" y="414" on="1"/>
        <pt x="541" y="507" on="1"/>
      </contour>
    </TTGlyph>
    <TTGlyph name="Hcircumflex" xMin="9" yMin="0" xMax="718" yMax="868">
      <component glyphName="H" x="0" y="0" flags="0x0"/>
      <component glyphName="circumflex" x="285" y="145" flags="0x0"/>
    </TTGlyph>
    <TTGlyph name="I" xMin="9" yMin="0" xMax="275" yMax="686">
      <contour>
        <pt x="130" y="686" on="1"/>
        <pt x="275" y="686" on="1"/>
        <pt x="154" y="0" on="1"/>
        <pt x="9" y="0" on="1"/>
      </contour>
    </TTGlyph>
    <TTGlyph name="IJ" xMin="9" yMin="-12" xMax="834" yMax="686">
      <component glyphName="I" x="0" y="0" flags="0x0"/>
      <component glyphName="J" x="278" y="0" flags="0x0"/>
    </TTGlyph>
    <TTGlyph name="Iacute" xMin="9" yMin="0" xMax="397" yMax="868">
      <component glyphName="I" x="0" y="0" flags="0x0"/>
      <component glyphName="acute" x="98" y="145" flags="0x0"/>
    </TTGlyph>
    <TTGlyph name="Iacute_J.loclNLD" xMin="9" yMin="-12" xMax="834" yMax="868">
      <component glyphName="I" x="0" y="0" flags="0x0"/>
      <component glyphName="acute" x="98" y="145" flags="0x0"/>
      <component glyphName="J" x="278" y="0" flags="0x0"/>
      <component glyphName="acute" x="656" y="145" flags="0x0"/>
    </TTGlyph>
    <TTGlyph name="Ibreve" xMin="9" yMin="0" xMax="385" yMax="868">
      <component glyphName="I" x="0" y="0" flags="0x0"/>
      <component glyphName="breve" x="45" y="145" flags="0x0"/>
    </TTGlyph>
    <TTGlyph name="Icircumflex" xMin="9" yMin="0" xMax="370" yMax="868">
      <component glyphName="I" x="0" y="0" flags="0x0"/>
      <component glyphName="circumflex" x="49" y="145" flags="0x0"/>
    </TTGlyph>
    <TTGlyph name="Idieresis" xMin="9" yMin="0" xMax="400" yMax="868">
      <component glyphName="I" x="0" y="0" flags="0x0"/>
      <component glyphName="dieresis" x="59" y="145" flags="0x0"/>
    </TTGlyph>
    <TTGlyph name="Idotaccent" xMin="9" yMin="0" xMax="302" yMax="869">
      <component glyphName="I" x="0" y="0" flags="0x0"/>
      <component glyphName="dotaccent" x="56" y="145" flags="0x0"/>
    </TTGlyph>
    <TTGlyph name="Igrave" xMin="9" yMin="0" xMax="275" yMax="868">
      <component glyphName="I" x="0" y="0" flags="0x0"/>
      <component glyphName="grave" x="-10" y="145" flags="0x0"/>
    </TTGlyph>
    <TTGlyph name="Imacron" xMin="9" yMin="0" xMax="384" yMax="844">
      <component glyphName="I" x="0" y="0" flags="0x0"/>
      <component glyphName="macron" x="62" y="145" flags="0x0"/>
    </TTGlyph>
    <TTGlyph name="Iogonek" xMin="-21" yMin="-182" xMax="275" yMax="686">
      <contour>
        <pt x="103" y="-182" on="0"/>
        <pt x="71" y="-182" on="1"/>
        <pt x="32" y="-182" on="0"/>
        <pt x="-21" y="-145" on="0"/>
        <pt x="-21" y="-105" on="1"/>
        <pt x="-21" y="-73" on="0"/>
        <pt x="10" y="-22" on="0"/>
        <pt x="36" y="0" on="1"/>
        <pt x="9" y="0" on="1"/>
        <pt x="130" y="686" on="1"/>
        <pt x="275" y="686" on="1"/>
        <pt x="154" y="0" on="1"/>
        <pt x="127" y="0" on="1"/>
        <pt x="112" y="-15" on="0"/>
        <pt x="91" y="-55" on="0"/>
        <pt x="91" y="-75" on="1"/>
        <pt x="91" y="-92" on="0"/>
        <pt x="110" y="-113" on="0"/>
        <pt x="131" y="-113" on="1"/>
        <pt x="155" y="-113" on="1"/>
        <pt x="145" y="-168" on="1"/>
      </contour>
    </TTGlyph>
    <TTGlyph name="Itilde" xMin="9" yMin="0" xMax="402" yMax="868">
      <component glyphName="I" x="0" y="0" flags="0x0"/>
      <component glyphName="tilde" x="57" y="145" flags="0x0"/>
    </TTGlyph>
    <TTGlyph name="J" xMin="-5" yMin="-12" xMax="556" yMax="686">
      <contour>
        <pt x="556" y="686" on="1"/>
        <pt x="469" y="193" on="1"/>
        <pt x="451" y="92" on="0"/>
        <pt x="324" y="-12" on="0"/>
        <pt x="219" y="-12" on="1"/>
        <pt x="110" y="-12" on="0"/>
        <pt x="-5" y="68" on="0"/>
        <pt x="-5" y="145" on="1"/>
        <pt x="-5" y="165" on="0"/>
        <pt x="0" y="193" on="1"/>
        <pt x="7" y="236" on="1"/>
        <pt x="151" y="236" on="1"/>
        <pt x="143" y="195" on="1"/>
        <pt x="141" y="181" on="0"/>
        <pt x="141" y="175" on="1"/>
        <pt x="141" y="141" on="0"/>
        <pt x="176" y="110" on="0"/>
        <pt x="218" y="110" on="1"/>
        <pt x="262" y="110" on="0"/>
        <pt x="316" y="155" on="0"/>
        <pt x="323" y="195" on="1"/>
        <pt x="410" y="686" on="1"/>
      </contour>
    </TTGlyph>
    <TTGlyph name="Jcircumflex" xMin="-5" yMin="-12" xMax="650" yMax="868">
      <component glyphName="J" x="0" y="0" flags="0x0"/>
      <component glyphName="circumflex" x="329" y="145" flags="0x0"/>
    </TTGlyph>
    <TTGlyph name="K" xMin="9" yMin="0" xMax="768" yMax="686">
      <contour>
        <pt x="341" y="307" on="1"/>
        <pt x="187" y="186" on="1"/>
        <pt x="154" y="0" on="1"/>
        <pt x="9" y="0" on="1"/>
        <pt x="130" y="686" on="1"/>
        <pt x="275" y="686" on="1"/>
        <pt x="218" y="363" on="1"/>
        <pt x="577" y="686" on="1"/>
        <pt x="768" y="686" on="1"/>
        <pt x="452" y="405" on="1"/>
        <pt x="651" y="0" on="1"/>
        <pt x="487" y="0" on="1"/>
      </contour>
    </TTGlyph>
    <TTGlyph name="Kcommaaccent" xMin="9" yMin="-230" xMax="768" yMax="686">
      <component glyphName="K" x="0" y="0" flags="0x0"/>
      <component glyphName="uni0326" x="458" y="0" flags="0x0"/>
    </TTGlyph>
    <TTGlyph name="L" xMin="9" yMin="0" xMax="546" yMax="686">
      <contour>
        <pt x="130" y="686" on="1"/>
        <pt x="275" y="686" on="1"/>
        <pt x="176" y="126" on="1"/>
        <pt x="546" y="126" on="1"/>
        <pt x="524" y="0" on="1"/>
        <pt x="9" y="0" on="1"/>
      </contour>
    </TTGlyph>
    <TTGlyph name="Lacute" xMin="9" yMin="0" xMax="546" yMax="868">
      <component glyphName="L" x="0" y="0" flags="0x0"/>
      <component glyphName="acute" x="98" y="145" flags="0x0"/>
    </TTGlyph>
    <TTGlyph name="Lcaron" xMin="9" yMin="0" xMax="546" yMax="686">
      <contour>
        <pt x="130" y="686" on="1"/>
        <pt x="275" y="686" on="1"/>
        <pt x="176" y="126" on="1"/>
        <pt x="546" y="126" on="1"/>
        <pt x="524" y="0" on="1"/>
        <pt x="9" y="0" on="1"/>
      </contour>
      <contour>
        <pt x="419" y="559" on="1"/>
        <pt x="366" y="559" on="1"/>
        <pt x="388" y="686" on="1"/>
        <pt x="526" y="686" on="1"/>
        <pt x="506" y="571" on="1"/>
        <pt x="417" y="442" on="1"/>
        <pt x="345" y="442" on="1"/>
      </contour>
    </TTGlyph>
    <TTGlyph name="Lcommaaccent" xMin="9" yMin="-230" xMax="546" yMax="686">
      <component glyphName="L" x="0" y="0" flags="0x0"/>
      <component glyphName="uni0326" x="410" y="0" flags="0x0"/>
    </TTGlyph>
    <TTGlyph name="Ldot" xMin="9" yMin="0" xMax="546" yMax="686">
      <component glyphName="L" x="0" y="0" flags="0x0"/>
      <component glyphName="periodcentered" x="247" y="100" flags="0x0"/>
    </TTGlyph>
    <TTGlyph name="Lslash" xMin="-21" yMin="0" xMax="546" yMax="686">
      <contour>
        <pt x="52" y="246" on="1"/>
        <pt x="-21" y="202" on="1"/>
        <pt x="-3" y="304" on="1"/>
        <pt x="70" y="348" on="1"/>
        <pt x="130" y="686" on="1"/>
        <pt x="275" y="686" on="1"/>
        <pt x="232" y="444" on="1"/>
        <pt x="390" y="537" on="1"/>
        <pt x="372" y="435" on="1"/>
        <pt x="214" y="342" on="1"/>
        <pt x="176" y="126" on="1"/>
        <pt x="546" y="126" on="1"/>
        <pt x="524" y="0" on="1"/>
        <pt x="9" y="0" on="1"/>
      </contour>
    </TTGlyph>
    <TTGlyph name="M" xMin="9" yMin="0" xMax="829" yMax="686">
      <contour>
        <pt x="640" y="437" on="1"/>
        <pt x="646" y="467" on="0"/>
        <pt x="662" y="534" on="0"/>
        <pt x="665" y="547" on="1"/>
        <pt x="660" y="547" on="1"/>
        <pt x="425" y="0" on="1"/>
        <pt x="282" y="0" on="1"/>
        <pt x="244" y="547" on="1"/>
        <pt x="239" y="547" on="1"/>
        <pt x="238" y="534" on="0"/>
        <pt x="229" y="454" on="0"/>
        <pt x="226" y="437" on="1"/>
        <pt x="149" y="0" on="1"/>
        <pt x="9" y="0" on="1"/>
        <pt x="130" y="686" on="1"/>
        <pt x="346" y="686" on="1"/>
        <pt x="375" y="308" on="1"/>
        <pt x="377" y="280" on="0"/>
        <pt x="380" y="171" on="0"/>
        <pt x="380" y="153" on="1"/>
        <pt x="385" y="153" on="1"/>
        <pt x="391" y="172" on="0"/>
        <pt x="429" y="283" on="0"/>
        <pt x="440" y="308" on="1"/>
        <pt x="603" y="686" on="1"/>
        <pt x="829" y="686" on="1"/>
        <pt x="708" y="0" on="1"/>
        <pt x="563" y="0" on="1"/>
      </contour>
    </TTGlyph>
    <TTGlyph name="N" xMin="9" yMin="0" xMax="718" yMax="686">
      <contour>
        <pt x="260" y="391" on="1"/>
        <pt x="249" y="413" on="0"/>
        <pt x="234" y="448" on="0"/>
        <pt x="232" y="454" on="1"/>
        <pt x="227" y="454" on="1"/>
        <pt x="226" y="447" on="0"/>
        <pt x="222" y="411" on="0"/>
        <pt x="219" y="394" on="1"/>
        <pt x="150" y="0" on="1"/>
        <pt x="9" y="0" on="1"/>
        <pt x="130" y="686" on="1"/>
        <pt x="271" y="686" on="1"/>
        <pt x="467" y="298" on="1"/>
        <pt x="475" y="281" on="0"/>
        <pt x="492" y="241" on="0"/>
        <pt x="495" y="234" on="1"/>
        <pt x="500" y="234" on="1"/>
        <pt x="508" y="292" on="1"/>
        <pt x="577" y="686" on="1"/>
        <pt x="718" y="686" on="1"/>
        <pt x="597" y="0" on="1"/>
        <pt x="456" y="0" on="1"/>
      </contour>
    </TTGlyph>
    <TTGlyph name="Nacute" xMin="9" yMin="0" xMax="718" yMax="868">
      <component glyphName="N" x="0" y="0" flags="0x0"/>
      <component glyphName="acute" x="334" y="145" flags="0x0"/>
    </TTGlyph>
    <TTGlyph name="Nacute.loclPLK" xMin="9" yMin="0" xMax="718" yMax="868">
      <component glyphName="N" x="0" y="0" flags="0x0"/>
      <component glyphName="acute.loclPLK" x="234" y="145" flags="0x0"/>
    </TTGlyph>
    <TTGlyph name="Ncaron" xMin="9" yMin="0" xMax="718" yMax="868">
      <component glyphName="N" x="0" y="0" flags="0x0"/>
      <component glyphName="caron" x="293" y="145" flags="0x0"/>
    </TTGlyph>
    <TTGlyph name="Ncommaaccent" xMin="9" yMin="-230" xMax="718" yMax="686">
      <component glyphName="N" x="0" y="0" flags="0x0"/>
      <component glyphName="uni0326" x="458" y="0" flags="0x0"/>
    </TTGlyph>
    <TTGlyph name="Ntilde" xMin="9" yMin="0" xMax="718" yMax="868">
      <component glyphName="N" x="0" y="0" flags="0x0"/>
      <component glyphName="tilde" x="293" y="145" flags="0x0"/>
    </TTGlyph>
    <TTGlyph name="O" xMin="34" yMin="-12" xMax="747" yMax="698">
      <contour>
        <pt x="196" y="-12" on="0"/>
        <pt x="34" y="122" on="0"/>
        <pt x="34" y="257" on="1"/>
        <pt x="34" y="303" on="0"/>
        <pt x="40" y="346" on="1"/>
        <pt x="65" y="510" on="0"/>
        <pt x="270" y="698" on="0"/>
        <pt x="432" y="698" on="1"/>
        <pt x="583" y="698" on="0"/>
        <pt x="747" y="563" on="0"/>
        <pt x="747" y="429" on="1"/>
        <pt x="747" y="386" on="0"/>
        <pt x="741" y="344" on="1"/>
        <pt x="726" y="235" on="0"/>
        <pt x="624" y="75" on="0"/>
        <pt x="456" y="-12" on="0"/>
        <pt x="347" y="-12" on="1"/>
      </contour>
      <contour>
        <pt x="445" y="111" on="0"/>
        <pt x="569" y="225" on="0"/>
        <pt x="586" y="328" on="1"/>
        <pt x="597" y="390" on="0"/>
        <pt x="597" y="418" on="1"/>
        <pt x="597" y="493" on="0"/>
        <pt x="514" y="575" on="0"/>
        <pt x="433" y="575" on="1"/>
        <pt x="334" y="575" on="0"/>
        <pt x="211" y="461" on="0"/>
        <pt x="194" y="358" on="1"/>
        <pt x="183" y="294" on="0"/>
        <pt x="183" y="268" on="1"/>
        <pt x="183" y="192" on="0"/>
        <pt x="265" y="111" on="0"/>
        <pt x="345" y="111" on="1"/>
      </contour>
    </TTGlyph>
    <TTGlyph name="OE" xMin="31" yMin="-12" xMax="999" yMax="698">
      <contour>
        <pt x="438" y="53" on="1"/>
        <pt x="360" y="-12" on="0"/>
        <pt x="260" y="-12" on="1"/>
        <pt x="150" y="-12" on="0"/>
        <pt x="31" y="113" on="0"/>
        <pt x="31" y="232" on="1"/>
        <pt x="31" y="280" on="0"/>
        <pt x="42" y="343" on="1"/>
        <pt x="70" y="515" on="0"/>
        <pt x="238" y="698" on="0"/>
        <pt x="360" y="698" on="1"/>
        <pt x="478" y="698" on="0"/>
        <pt x="540" y="632" on="1"/>
        <pt x="550" y="686" on="1"/>
        <pt x="999" y="686" on="1"/>
        <pt x="977" y="563" on="1"/>
        <pt x="673" y="563" on="1"/>
        <pt x="647" y="412" on="1"/>
        <pt x="907" y="412" on="1"/>
        <pt x="885" y="289" on="1"/>
        <pt x="625" y="289" on="1"/>
        <pt x="596" y="123" on="1"/>
        <pt x="906" y="123" on="1"/>
        <pt x="884" y="0" on="1"/>
        <pt x="429" y="0" on="1"/>
      </contour>
      <contour>
        <pt x="370" y="111" on="0"/>
        <pt x="468" y="220" on="0"/>
        <pt x="490" y="343" on="1"/>
        <pt x="499" y="396" on="0"/>
        <pt x="499" y="434" on="1"/>
        <pt x="499" y="575" on="0"/>
        <pt x="388" y="575" on="1"/>
        <pt x="306" y="575" on="0"/>
        <pt x="212" y="462" on="0"/>
        <pt x="191" y="343" on="1"/>
        <pt x="181" y="283" on="0"/>
        <pt x="181" y="248" on="1"/>
        <pt x="181" y="179" on="0"/>
        <pt x="237" y="111" on="0"/>
        <pt x="297" y="111" on="1"/>
      </contour>
    </TTGlyph>
    <TTGlyph name="Oacute" xMin="34" yMin="-12" xMax="747" yMax="868">
      <component glyphName="O" x="0" y="0" flags="0x0"/>
      <component glyphName="acute" x="362" y="145" flags="0x0"/>
    </TTGlyph>
    <TTGlyph name="Oacute.loclPLK" xMin="34" yMin="-12" xMax="747" yMax="868">
      <component glyphName="O" x="0" y="0" flags="0x0"/>
      <component glyphName="acute.loclPLK" x="262" y="145" flags="0x0"/>
    </TTGlyph>
    <TTGlyph name="Obreve" xMin="34" yMin="-12" xMax="747" yMax="868">
      <component glyphName="O" x="0" y="0" flags="0x0"/>
      <component glyphName="breve" x="309" y="145" flags="0x0"/>
    </TTGlyph>
    <TTGlyph name="Ocircumflex" xMin="34" yMin="-12" xMax="747" yMax="868">
      <component glyphName="O" x="0" y="0" flags="0x0"/>
      <component glyphName="circumflex" x="313" y="145" flags="0x0"/>
    </TTGlyph>
    <TTGlyph name="Odieresis" xMin="34" yMin="-12" xMax="747" yMax="868">
      <component glyphName="O" x="0" y="0" flags="0x0"/>
      <component glyphName="dieresis" x="323" y="145" flags="0x0"/>
    </TTGlyph>
    <TTGlyph name="Ograve" xMin="34" yMin="-12" xMax="747" yMax="868">
      <component glyphName="O" x="0" y="0" flags="0x0"/>
      <component glyphName="grave" x="254" y="145" flags="0x0"/>
    </TTGlyph>
    <TTGlyph name="Ohorn" xMin="34" yMin="-12" xMax="887" yMax="828">
      <contour>
        <pt x="887" y="828" on="1"/>
        <pt x="877" y="774" on="1"/>
        <pt x="862" y="690" on="0"/>
        <pt x="785" y="592" on="0"/>
        <pt x="716" y="569" on="1"/>
        <pt x="747" y="510" on="0"/>
        <pt x="747" y="429" on="1"/>
        <pt x="747" y="386" on="0"/>
        <pt x="741" y="344" on="1"/>
        <pt x="726" y="235" on="0"/>
        <pt x="624" y="75" on="0"/>
        <pt x="456" y="-12" on="0"/>
        <pt x="347" y="-12" on="1"/>
        <pt x="196" y="-12" on="0"/>
        <pt x="34" y="122" on="0"/>
        <pt x="34" y="257" on="1"/>
        <pt x="34" y="303" on="0"/>
        <pt x="40" y="346" on="1"/>
        <pt x="65" y="510" on="0"/>
        <pt x="270" y="698" on="0"/>
        <pt x="432" y="698" on="1"/>
        <pt x="592" y="698" on="0"/>
        <pt x="672" y="624" on="1"/>
        <pt x="743" y="642" on="0"/>
        <pt x="773" y="691" on="1"/>
        <pt x="714" y="691" on="1"/>
        <pt x="739" y="828" on="1"/>
      </contour>
      <contour>
        <pt x="597" y="390" on="0"/>
        <pt x="597" y="418" on="1"/>
        <pt x="597" y="493" on="0"/>
        <pt x="514" y="575" on="0"/>
        <pt x="433" y="575" on="1"/>
        <pt x="334" y="575" on="0"/>
        <pt x="211" y="461" on="0"/>
        <pt x="194" y="358" on="1"/>
        <pt x="183" y="294" on="0"/>
        <pt x="183" y="268" on="1"/>
        <pt x="183" y="192" on="0"/>
        <pt x="265" y="111" on="0"/>
        <pt x="345" y="111" on="1"/>
        <pt x="445" y="111" on="0"/>
        <pt x="569" y="225" on="0"/>
        <pt x="586" y="328" on="1"/>
      </contour>
    </TTGlyph>
    <TTGlyph name="Ohungarumlaut" xMin="34" yMin="-12" xMax="750" yMax="868">
      <component glyphName="O" x="0" y="0" flags="0x0"/>
      <component glyphName="hungarumlaut" x="340" y="145" flags="0x0"/>
    </TTGlyph>
    <TTGlyph name="Omacron" xMin="34" yMin="-12" xMax="747" yMax="844">
      <component glyphName="O" x="0" y="0" flags="0x0"/>
      <component glyphName="macron" x="326" y="145" flags="0x0"/>
    </TTGlyph>
    <TTGlyph name="Omega" xMin="-25" yMin="0" xMax="761" yMax="698">
      <contour>
        <pt x="397" y="110" on="1"/>
        <pt x="480" y="124" on="0"/>
        <pt x="584" y="231" on="0"/>
        <pt x="597" y="316" on="1"/>
        <pt x="609" y="392" on="0"/>
        <pt x="609" y="418" on="1"/>
        <pt x="609" y="575" on="0"/>
        <pt x="453" y="575" on="1"/>
        <pt x="349" y="575" on="0"/>
        <pt x="223" y="461" on="0"/>
        <pt x="204" y="348" on="1"/>
        <pt x="194" y="286" on="0"/>
        <pt x="194" y="266" on="1"/>
        <pt x="194" y="203" on="0"/>
        <pt x="261" y="124" on="0"/>
        <pt x="326" y="111" on="1"/>
        <pt x="306" y="0" on="1"/>
        <pt x="-25" y="0" on="1"/>
        <pt x="-3" y="123" on="1"/>
        <pt x="47" y="123" on="1"/>
        <pt x="55" y="123" on="0"/>
        <pt x="91" y="117" on="1"/>
        <pt x="120" y="111" on="0"/>
        <pt x="144" y="109" on="1"/>
        <pt x="52" y="183" on="0"/>
        <pt x="52" y="309" on="1"/>
        <pt x="52" y="418" on="0"/>
        <pt x="151" y="595" on="0"/>
        <pt x="330" y="698" on="0"/>
        <pt x="445" y="698" on="1"/>
        <pt x="595" y="698" on="0"/>
        <pt x="761" y="559" on="0"/>
        <pt x="761" y="432" on="1"/>
        <pt x="761" y="322" on="0"/>
        <pt x="661" y="157" on="0"/>
        <pt x="577" y="109" on="1"/>
        <pt x="602" y="112" on="0"/>
        <pt x="637" y="117" on="1"/>
        <pt x="673" y="123" on="0"/>
        <pt x="681" y="123" on="1"/>
        <pt x="732" y="123" on="1"/>
        <pt x="710" y="0" on="1"/>
        <pt x="378" y="0" on="1"/>
      </contour>
    </TTGlyph>
    <TTGlyph name="Oslash" xMin="-22" yMin="-49" xMax="801" yMax="735">
      <contour>
        <pt x="94" y="75" on="1"/>
        <pt x="34" y="143" on="0"/>
        <pt x="34" y="257" on="1"/>
        <pt x="34" y="365" on="0"/>
        <pt x="106" y="551" on="0"/>
        <pt x="175" y="611" on="1"/>
        <pt x="223" y="653" on="0"/>
        <pt x="354" y="698" on="0"/>
        <pt x="432" y="698" on="1"/>
        <pt x="554" y="698" on="0"/>
        <pt x="631" y="654" on="1"/>
        <pt x="707" y="735" on="1"/>
        <pt x="801" y="735" on="1"/>
        <pt x="685" y="611" on="1"/>
        <pt x="747" y="543" on="0"/>
        <pt x="747" y="429" on="1"/>
        <pt x="747" y="330" on="0"/>
        <pt x="687" y="157" on="0"/>
        <pt x="629" y="97" on="1"/>
        <pt x="578" y="44" on="0"/>
        <pt x="435" y="-12" on="0"/>
        <pt x="347" y="-12" on="1"/>
        <pt x="222" y="-12" on="0"/>
        <pt x="147" y="32" on="1"/>
        <pt x="72" y="-49" on="1"/>
        <pt x="-22" y="-49" on="1"/>
      </contour>
      <contour>
        <pt x="498" y="575" on="0"/>
        <pt x="440" y="575" on="1"/>
        <pt x="338" y="575" on="0"/>
        <pt x="212" y="461" on="0"/>
        <pt x="194" y="358" on="1"/>
        <pt x="183" y="294" on="0"/>
        <pt x="183" y="268" on="1"/>
        <pt x="183" y="222" on="0"/>
        <pt x="198" y="187" on="1"/>
        <pt x="536" y="551" on="1"/>
      </contour>
      <contour>
        <pt x="279" y="111" on="0"/>
        <pt x="339" y="111" on="1"/>
        <pt x="441" y="111" on="0"/>
        <pt x="568" y="225" on="0"/>
        <pt x="586" y="328" on="1"/>
        <pt x="597" y="390" on="0"/>
        <pt x="597" y="418" on="1"/>
        <pt x="597" y="466" on="0"/>
        <pt x="581" y="499" on="1"/>
        <pt x="243" y="135" on="1"/>
      </contour>
    </TTGlyph>
    <TTGlyph name="Oslashacute" xMin="-22" yMin="-49" xMax="801" yMax="869">
      <component glyphName="acute" x="314" y="146" flags="0x0"/>
      <component glyphName="Oslash" x="0" y="0" flags="0x0"/>
    </TTGlyph>
    <TTGlyph name="Otilde" xMin="34" yMin="-12" xMax="747" yMax="868">
      <component glyphName="O" x="0" y="0" flags="0x0"/>
      <component glyphName="tilde" x="321" y="145" flags="0x0"/>
    </TTGlyph>
    <TTGlyph name="P" xMin="9" yMin="0" xMax="653" yMax="686">
      <contour>
        <pt x="130" y="686" on="1"/>
        <pt x="397" y="686" on="1"/>
        <pt x="532" y="686" on="0"/>
        <pt x="653" y="589" on="0"/>
        <pt x="653" y="495" on="1"/>
        <pt x="653" y="371" on="0"/>
        <pt x="501" y="236" on="0"/>
        <pt x="368" y="236" on="1"/>
        <pt x="196" y="236" on="1"/>
        <pt x="154" y="0" on="1"/>
        <pt x="9" y="0" on="1"/>
      </contour>
      <contour>
        <pt x="429" y="359" on="0"/>
        <pt x="504" y="419" on="0"/>
        <pt x="504" y="477" on="1"/>
        <pt x="504" y="563" on="0"/>
        <pt x="402" y="563" on="1"/>
        <pt x="253" y="563" on="1"/>
        <pt x="217" y="359" on="1"/>
        <pt x="366" y="359" on="1"/>
      </contour>
    </TTGlyph>
    <TTGlyph name="Q" xMin="34" yMin="-130" xMax="747" yMax="698">
      <contour>
        <pt x="358" y="-11" on="1"/>
        <pt x="347" y="-12" on="1"/>
        <pt x="196" y="-12" on="0"/>
        <pt x="34" y="122" on="0"/>
        <pt x="34" y="257" on="1"/>
        <pt x="34" y="363" on="0"/>
        <pt x="103" y="545" on="0"/>
        <pt x="169" y="605" on="1"/>
        <pt x="218" y="650" on="0"/>
        <pt x="352" y="698" on="0"/>
        <pt x="432" y="698" on="1"/>
        <pt x="583" y="698" on="0"/>
        <pt x="747" y="563" on="0"/>
        <pt x="747" y="429" on="1"/>
        <pt x="747" y="288" on="0"/>
        <pt x="622" y="66" on="0"/>
        <pt x="507" y="18" on="1"/>
        <pt x="636" y="-130" on="1"/>
        <pt x="461" y="-130" on="1"/>
      </contour>
      <contour>
        <pt x="597" y="390" on="0"/>
        <pt x="597" y="418" on="1"/>
        <pt x="597" y="493" on="0"/>
        <pt x="518" y="575" on="0"/>
        <pt x="440" y="575" on="1"/>
        <pt x="338" y="575" on="0"/>
        <pt x="212" y="461" on="0"/>
        <pt x="194" y="358" on="1"/>
        <pt x="183" y="294" on="0"/>
        <pt x="183" y="268" on="1"/>
        <pt x="183" y="192" on="0"/>
        <pt x="262" y="111" on="0"/>
        <pt x="339" y="111" on="1"/>
        <pt x="441" y="111" on="0"/>
        <pt x="568" y="225" on="0"/>
        <pt x="586" y="328" on="1"/>
      </contour>
    </TTGlyph>
    <TTGlyph name="R" xMin="9" yMin="0" xMax="692" yMax="686">
      <contour>
        <pt x="395" y="256" on="1"/>
        <pt x="199" y="256" on="1"/>
        <pt x="154" y="0" on="1"/>
        <pt x="9" y="0" on="1"/>
        <pt x="130" y="686" on="1"/>
        <pt x="444" y="686" on="1"/>
        <pt x="568" y="686" on="0"/>
        <pt x="692" y="587" on="0"/>
        <pt x="692" y="496" on="1"/>
        <pt x="692" y="412" on="0"/>
        <pt x="603" y="300" on="0"/>
        <pt x="533" y="277" on="1"/>
        <pt x="624" y="0" on="1"/>
        <pt x="471" y="0" on="1"/>
      </contour>
      <contour>
        <pt x="220" y="377" on="1"/>
        <pt x="426" y="377" on="1"/>
        <pt x="482" y="377" on="0"/>
        <pt x="542" y="435" on="0"/>
        <pt x="542" y="485" on="1"/>
        <pt x="542" y="522" on="0"/>
        <pt x="495" y="563" on="0"/>
        <pt x="449" y="563" on="1"/>
        <pt x="253" y="563" on="1"/>
      </contour>
    </TTGlyph>
    <TTGlyph name="Racute" xMin="9" yMin="0" xMax="692" yMax="868">
      <component glyphName="R" x="0" y="0" flags="0x0"/>
      <component glyphName="acute" x="334" y="145" flags="0x0"/>
    </TTGlyph>
    <TTGlyph name="Rcaron" xMin="9" yMin="0" xMax="692" yMax="868">
      <component glyphName="R" x="0" y="0" flags="0x0"/>
      <component glyphName="caron" x="293" y="145" flags="0x0"/>
    </TTGlyph>
    <TTGlyph name="Rcommaaccent" xMin="9" yMin="-230" xMax="692" yMax="686">
      <component glyphName="R" x="0" y="0" flags="0x0"/>
      <component glyphName="uni0326" x="458" y="0" flags="0x0"/>
    </TTGlyph>
    <TTGlyph name="S" xMin="16" yMin="-12" xMax="639" yMax="698">
      <contour>
        <pt x="493" y="497" on="0"/>
        <pt x="493" y="506" on="1"/>
        <pt x="493" y="538" on="0"/>
        <pt x="432" y="575" on="0"/>
        <pt x="378" y="575" on="1"/>
        <pt x="311" y="575" on="0"/>
        <pt x="236" y="536" on="0"/>
        <pt x="236" y="502" on="1"/>
        <pt x="236" y="480" on="0"/>
        <pt x="272" y="450" on="0"/>
        <pt x="325" y="431" on="0"/>
        <pt x="375" y="416" on="1"/>
        <pt x="447" y="395" on="0"/>
        <pt x="538" y="355" on="0"/>
        <pt x="604" y="282" on="0"/>
        <pt x="604" y="225" on="1"/>
        <pt x="604" y="142" on="0"/>
        <pt x="521" y="36" on="0"/>
        <pt x="388" y="-12" on="0"/>
        <pt x="310" y="-12" on="1"/>
        <pt x="181" y="-12" on="0"/>
        <pt x="16" y="81" on="0"/>
        <pt x="16" y="167" on="1"/>
        <pt x="16" y="193" on="0"/>
        <pt x="24" y="223" on="1"/>
        <pt x="171" y="223" on="1"/>
        <pt x="170" y="219" on="0"/>
        <pt x="166" y="198" on="0"/>
        <pt x="166" y="191" on="1"/>
        <pt x="166" y="154" on="0"/>
        <pt x="235" y="111" on="0"/>
        <pt x="299" y="111" on="1"/>
        <pt x="379" y="111" on="0"/>
        <pt x="452" y="157" on="0"/>
        <pt x="452" y="195" on="1"/>
        <pt x="452" y="220" on="0"/>
        <pt x="414" y="255" on="0"/>
        <pt x="356" y="278" on="0"/>
        <pt x="306" y="293" on="1"/>
        <pt x="236" y="314" on="0"/>
        <pt x="149" y="352" on="0"/>
        <pt x="87" y="424" on="0"/>
        <pt x="87" y="480" on="1"/>
        <pt x="87" y="551" on="0"/>
        <pt x="162" y="649" on="0"/>
        <pt x="291" y="698" on="0"/>
        <pt x="372" y="698" on="1"/>
        <pt x="492" y="698" on="0"/>
        <pt x="639" y="616" on="0"/>
        <pt x="639" y="534" on="1"/>
        <pt x="639" y="515" on="0"/>
        <pt x="634" y="484" on="1"/>
        <pt x="490" y="484" on="1"/>
      </contour>
    </TTGlyph>
    <TTGlyph name="Sacute" xMin="16" yMin="-12" xMax="639" yMax="868">
      <component glyphName="S" x="0" y="0" flags="0x0"/>
      <component glyphName="acute" x="307" y="145" flags="0x0"/>
    </TTGlyph>
    <TTGlyph name="Sacute.loclPLK" xMin="16" yMin="-12" xMax="639" yMax="868">
      <component glyphName="S" x="0" y="0" flags="0x0"/>
      <component glyphName="acute.loclPLK" x="207" y="145" flags="0x0"/>
    </TTGlyph>
    <TTGlyph name="Scaron" xMin="16" yMin="-12" xMax="639" yMax="868">
      <component glyphName="S" x="0" y="0" flags="0x0"/>
      <component glyphName="caron" x="266" y="145" flags="0x0"/>
    </TTGlyph>
    <TTGlyph name="Scedilla" xMin="16" yMin="-182" xMax="639" yMax="698">
      <contour>
        <pt x="262" y="-10" on="1"/>
        <pt x="151" y="-2" on="0"/>
        <pt x="16" y="89" on="0"/>
        <pt x="16" y="167" on="1"/>
        <pt x="16" y="193" on="0"/>
        <pt x="24" y="223" on="1"/>
        <pt x="171" y="223" on="1"/>
        <pt x="170" y="219" on="0"/>
        <pt x="166" y="198" on="0"/>
        <pt x="166" y="191" on="1"/>
        <pt x="166" y="154" on="0"/>
        <pt x="235" y="111" on="0"/>
        <pt x="299" y="111" on="1"/>
        <pt x="379" y="111" on="0"/>
        <pt x="452" y="157" on="0"/>
        <pt x="452" y="195" on="1"/>
        <pt x="452" y="220" on="0"/>
        <pt x="414" y="255" on="0"/>
        <pt x="356" y="278" on="0"/>
        <pt x="306" y="293" on="1"/>
        <pt x="236" y="314" on="0"/>
        <pt x="149" y="352" on="0"/>
        <pt x="87" y="424" on="0"/>
        <pt x="87" y="480" on="1"/>
        <pt x="87" y="551" on="0"/>
        <pt x="162" y="649" on="0"/>
        <pt x="291" y="698" on="0"/>
        <pt x="372" y="698" on="1"/>
        <pt x="492" y="698" on="0"/>
        <pt x="639" y="616" on="0"/>
        <pt x="639" y="534" on="1"/>
        <pt x="639" y="515" on="0"/>
        <pt x="634" y="484" on="1"/>
        <pt x="490" y="484" on="1"/>
        <pt x="493" y="497" on="0"/>
        <pt x="493" y="506" on="1"/>
        <pt x="493" y="538" on="0"/>
        <pt x="432" y="575" on="0"/>
        <pt x="378" y="575" on="1"/>
        <pt x="311" y="575" on="0"/>
        <pt x="236" y="536" on="0"/>
        <pt x="236" y="502" on="1"/>
        <pt x="236" y="480" on="0"/>
        <pt x="272" y="450" on="0"/>
        <pt x="325" y="431" on="0"/>
        <pt x="375" y="416" on="1"/>
        <pt x="447" y="395" on="0"/>
        <pt x="538" y="355" on="0"/>
        <pt x="604" y="282" on="0"/>
        <pt x="604" y="225" on="1"/>
        <pt x="604" y="113" on="0"/>
        <pt x="457" y="-2" on="0"/>
        <pt x="347" y="-10" on="1"/>
        <pt x="340" y="-33" on="1"/>
        <pt x="379" y="-35" on="0"/>
        <pt x="427" y="-68" on="0"/>
        <pt x="427" y="-98" on="1"/>
        <pt x="427" y="-144" on="0"/>
        <pt x="331" y="-182" on="0"/>
        <pt x="275" y="-182" on="1"/>
        <pt x="219" y="-182" on="0"/>
        <pt x="173" y="-174" on="1"/>
        <pt x="182" y="-125" on="1"/>
        <pt x="270" y="-125" on="1"/>
        <pt x="294" y="-125" on="0"/>
        <pt x="319" y="-112" on="0"/>
        <pt x="319" y="-96" on="1"/>
        <pt x="319" y="-86" on="0"/>
        <pt x="302" y="-77" on="0"/>
        <pt x="281" y="-77" on="1"/>
        <pt x="240" y="-77" on="1"/>
      </contour>
    </TTGlyph>
    <TTGlyph name="Scircumflex" xMin="16" yMin="-12" xMax="639" yMax="868">
      <component glyphName="S" x="0" y="0" flags="0x0"/>
      <component glyphName="circumflex" x="258" y="145" flags="0x0"/>
    </TTGlyph>
    <TTGlyph name="Scommaaccent" xMin="16" yMin="-230" xMax="639" yMax="698">
      <component glyphName="S" x="0" y="0" flags="0x0"/>
      <component glyphName="uni0326" x="431" y="0" flags="0x0"/>
    </TTGlyph>
    <TTGlyph name="T" xMin="63" yMin="0" xMax="654" yMax="686">
      <contour>
        <pt x="275" y="561" on="1"/>
        <pt x="63" y="561" on="1"/>
        <pt x="85" y="686" on="1"/>
        <pt x="654" y="686" on="1"/>
        <pt x="632" y="561" on="1"/>
        <pt x="420" y="561" on="1"/>
        <pt x="321" y="0" on="1"/>
        <pt x="176" y="0" on="1"/>
      </contour>
    </TTGlyph>
    <TTGlyph name="Tbar" xMin="63" yMin="0" xMax="654" yMax="686">
      <contour>
        <pt x="238" y="352" on="1"/>
        <pt x="149" y="352" on="1"/>
        <pt x="165" y="443" on="1"/>
        <pt x="254" y="443" on="1"/>
        <pt x="275" y="561" on="1"/>
        <pt x="63" y="561" on="1"/>
        <pt x="85" y="686" on="1"/>
        <pt x="654" y="686" on="1"/>
        <pt x="632" y="561" on="1"/>
        <pt x="420" y="561" on="1"/>
        <pt x="399" y="443" on="1"/>
        <pt x="488" y="443" on="1"/>
        <pt x="472" y="352" on="1"/>
        <pt x="383" y="352" on="1"/>
        <pt x="321" y="0" on="1"/>
        <pt x="176" y="0" on="1"/>
      </contour>
    </TTGlyph>
    <TTGlyph name="Tcaron" xMin="63" yMin="0" xMax="654" yMax="868">
      <component glyphName="T" x="0" y="0" flags="0x0"/>
      <component glyphName="caron" x="218" y="145" flags="0x0"/>
    </TTGlyph>
    <TTGlyph name="Thorn" xMin="9" yMin="0" xMax="634" yMax="686">
      <contour>
        <pt x="154" y="0" on="1"/>
        <pt x="9" y="0" on="1"/>
        <pt x="130" y="686" on="1"/>
        <pt x="275" y="686" on="1"/>
        <pt x="256" y="579" on="1"/>
        <pt x="378" y="579" on="1"/>
        <pt x="513" y="579" on="0"/>
        <pt x="634" y="482" on="0"/>
        <pt x="634" y="388" on="1"/>
        <pt x="634" y="264" on="0"/>
        <pt x="482" y="129" on="0"/>
        <pt x="349" y="129" on="1"/>
        <pt x="177" y="129" on="1"/>
      </contour>
      <contour>
        <pt x="410" y="252" on="0"/>
        <pt x="485" y="312" on="0"/>
        <pt x="485" y="370" on="1"/>
        <pt x="485" y="456" on="0"/>
        <pt x="383" y="456" on="1"/>
        <pt x="234" y="456" on="1"/>
        <pt x="198" y="252" on="1"/>
        <pt x="347" y="252" on="1"/>
      </contour>
    </TTGlyph>
    <TTGlyph name="U" xMin="54" yMin="-12" xMax="722" yMax="686">
      <contour>
        <pt x="722" y="686" on="1"/>
        <pt x="646" y="255" on="1"/>
        <pt x="599" y="-12" on="0"/>
        <pt x="324" y="-12" on="1"/>
        <pt x="194" y="-12" on="0"/>
        <pt x="54" y="95" on="0"/>
        <pt x="54" y="200" on="1"/>
        <pt x="54" y="230" on="0"/>
        <pt x="60" y="263" on="1"/>
        <pt x="134" y="686" on="1"/>
        <pt x="279" y="686" on="1"/>
        <pt x="204" y="262" on="1"/>
        <pt x="200" y="238" on="0"/>
        <pt x="200" y="223" on="1"/>
        <pt x="200" y="111" on="0"/>
        <pt x="326" y="111" on="1"/>
        <pt x="397" y="111" on="0"/>
        <pt x="489" y="188" on="0"/>
        <pt x="502" y="262" on="1"/>
        <pt x="577" y="686" on="1"/>
      </contour>
    </TTGlyph>
    <TTGlyph name="Uacute" xMin="54" yMin="-12" xMax="722" yMax="868">
      <component glyphName="U" x="0" y="0" flags="0x0"/>
      <component glyphName="acute" x="334" y="145" flags="0x0"/>
    </TTGlyph>
    <TTGlyph name="Ubreve" xMin="54" yMin="-12" xMax="722" yMax="868">
      <component glyphName="U" x="0" y="0" flags="0x0"/>
      <component glyphName="breve" x="281" y="145" flags="0x0"/>
    </TTGlyph>
    <TTGlyph name="Ucircumflex" xMin="54" yMin="-12" xMax="722" yMax="868">
      <component glyphName="U" x="0" y="0" flags="0x0"/>
      <component glyphName="circumflex" x="285" y="145" flags="0x0"/>
    </TTGlyph>
    <TTGlyph name="Udieresis" xMin="54" yMin="-12" xMax="722" yMax="868">
      <component glyphName="U" x="0" y="0" flags="0x0"/>
      <component glyphName="dieresis" x="295" y="145" flags="0x0"/>
    </TTGlyph>
    <TTGlyph name="Ugrave" xMin="54" yMin="-12" xMax="722" yMax="868">
      <component glyphName="U" x="0" y="0" flags="0x0"/>
      <component glyphName="grave" x="226" y="145" flags="0x0"/>
    </TTGlyph>
    <TTGlyph name="Uhorn" xMin="54" yMin="-12" xMax="871" yMax="868">
      <contour>
        <pt x="871" y="868" on="1"/>
        <pt x="861" y="814" on="1"/>
        <pt x="847" y="733" on="0"/>
        <pt x="773" y="636" on="0"/>
        <pt x="709" y="612" on="1"/>
        <pt x="646" y="255" on="1"/>
        <pt x="599" y="-12" on="0"/>
        <pt x="324" y="-12" on="1"/>
        <pt x="194" y="-12" on="0"/>
        <pt x="54" y="95" on="0"/>
        <pt x="54" y="200" on="1"/>
        <pt x="54" y="230" on="0"/>
        <pt x="60" y="263" on="1"/>
        <pt x="134" y="686" on="1"/>
        <pt x="279" y="686" on="1"/>
        <pt x="204" y="262" on="1"/>
        <pt x="200" y="238" on="0"/>
        <pt x="200" y="223" on="1"/>
        <pt x="200" y="111" on="0"/>
        <pt x="326" y="111" on="1"/>
        <pt x="397" y="111" on="0"/>
        <pt x="489" y="188" on="0"/>
        <pt x="502" y="262" on="1"/>
        <pt x="577" y="686" on="1"/>
        <pt x="711" y="686" on="1"/>
        <pt x="742" y="704" on="0"/>
        <pt x="757" y="731" on="1"/>
        <pt x="698" y="731" on="1"/>
        <pt x="723" y="868" on="1"/>
      </contour>
    </TTGlyph>
    <TTGlyph name="Uhungarumlaut" xMin="54" yMin="-12" xMax="722" yMax="868">
      <component glyphName="U" x="0" y="0" flags="0x0"/>
      <component glyphName="hungarumlaut" x="312" y="145" flags="0x0"/>
    </TTGlyph>
    <TTGlyph name="Umacron" xMin="54" yMin="-12" xMax="722" yMax="844">
      <component glyphName="U" x="0" y="0" flags="0x0"/>
      <component glyphName="macron" x="298" y="145" flags="0x0"/>
    </TTGlyph>
    <TTGlyph name="Uogonek" xMin="54" yMin="-182" xMax="722" yMax="686">
      <contour>
        <pt x="401" y="-182" on="0"/>
        <pt x="369" y="-182" on="1"/>
        <pt x="330" y="-182" on="0"/>
        <pt x="277" y="-145" on="0"/>
        <pt x="277" y="-105" on="1"/>
        <pt x="277" y="-54" on="0"/>
        <pt x="321" y="-12" on="1"/>
        <pt x="192" y="-11" on="0"/>
        <pt x="54" y="96" on="0"/>
        <pt x="54" y="200" on="1"/>
        <pt x="54" y="230" on="0"/>
        <pt x="60" y="263" on="1"/>
        <pt x="134" y="686" on="1"/>
        <pt x="279" y="686" on="1"/>
        <pt x="204" y="262" on="1"/>
        <pt x="200" y="238" on="0"/>
        <pt x="200" y="223" on="1"/>
        <pt x="200" y="111" on="0"/>
        <pt x="326" y="111" on="1"/>
        <pt x="397" y="111" on="0"/>
        <pt x="489" y="188" on="0"/>
        <pt x="502" y="262" on="1"/>
        <pt x="577" y="686" on="1"/>
        <pt x="722" y="686" on="1"/>
        <pt x="646" y="255" on="1"/>
        <pt x="608" y="41" on="0"/>
        <pt x="424" y="-1" on="1"/>
        <pt x="409" y="-17" on="0"/>
        <pt x="389" y="-56" on="0"/>
        <pt x="389" y="-75" on="1"/>
        <pt x="389" y="-92" on="0"/>
        <pt x="408" y="-113" on="0"/>
        <pt x="429" y="-113" on="1"/>
        <pt x="453" y="-113" on="1"/>
        <pt x="443" y="-168" on="1"/>
      </contour>
    </TTGlyph>
    <TTGlyph name="Uring" xMin="54" yMin="-12" xMax="722" yMax="903">
      <component glyphName="U" x="0" y="0" flags="0x0"/>
      <component glyphName="ring" x="289" y="145" flags="0x0"/>
    </TTGlyph>
    <TTGlyph name="Utilde" xMin="54" yMin="-12" xMax="722" yMax="868">
      <component glyphName="U" x="0" y="0" flags="0x0"/>
      <component glyphName="tilde" x="293" y="145" flags="0x0"/>
    </TTGlyph>
    <TTGlyph name="V" xMin="71" yMin="0" xMax="729" yMax="686">
      <contour>
        <pt x="71" y="686" on="1"/>
        <pt x="219" y="686" on="1"/>
        <pt x="282" y="310" on="1"/>
        <pt x="288" y="273" on="0"/>
        <pt x="301" y="185" on="0"/>
        <pt x="304" y="168" on="1"/>
        <pt x="309" y="168" on="1"/>
        <pt x="317" y="185" on="0"/>
        <pt x="360" y="274" on="0"/>
        <pt x="379" y="310" on="1"/>
        <pt x="573" y="686" on="1"/>
        <pt x="729" y="686" on="1"/>
        <pt x="360" y="0" on="1"/>
        <pt x="198" y="0" on="1"/>
      </contour>
    </TTGlyph>
    <TTGlyph name="W" xMin="66" yMin="0" xMax="1004" yMax="686">
      <contour>
        <pt x="508" y="437" on="1"/>
        <pt x="506" y="467" on="0"/>
        <pt x="505" y="524" on="0"/>
        <pt x="505" y="534" on="1"/>
        <pt x="501" y="534" on="1"/>
        <pt x="498" y="523" on="0"/>
        <pt x="478" y="455" on="0"/>
        <pt x="470" y="437" on="1"/>
        <pt x="282" y="0" on="1"/>
        <pt x="119" y="0" on="1"/>
        <pt x="66" y="686" on="1"/>
        <pt x="202" y="686" on="1"/>
        <pt x="231" y="264" on="1"/>
        <pt x="232" y="236" on="0"/>
        <pt x="233" y="179" on="0"/>
        <pt x="233" y="168" on="1"/>
        <pt x="238" y="168" on="1"/>
        <pt x="241" y="179" on="0"/>
        <pt x="261" y="246" on="0"/>
        <pt x="268" y="264" on="1"/>
        <pt x="443" y="686" on="1"/>
        <pt x="618" y="686" on="1"/>
        <pt x="644" y="264" on="1"/>
        <pt x="646" y="238" on="0"/>
        <pt x="646" y="179" on="0"/>
        <pt x="646" y="168" on="1"/>
        <pt x="651" y="168" on="1"/>
        <pt x="654" y="178" on="0"/>
        <pt x="672" y="243" on="0"/>
        <pt x="681" y="264" on="1"/>
        <pt x="857" y="686" on="1"/>
        <pt x="1004" y="686" on="1"/>
        <pt x="701" y="0" on="1"/>
        <pt x="538" y="0" on="1"/>
      </contour>
    </TTGlyph>
    <TTGlyph name="Wacute" xMin="66" yMin="0" xMax="1004" yMax="868">
      <component glyphName="W" x="0" y="0" flags="0x0"/>
      <component glyphName="acute" x="445" y="145" flags="0x0"/>
    </TTGlyph>
    <TTGlyph name="Wcircumflex" xMin="66" yMin="0" xMax="1004" yMax="868">
      <component glyphName="W" x="0" y="0" flags="0x0"/>
      <component glyphName="circumflex" x="396" y="145" flags="0x0"/>
    </TTGlyph>
    <TTGlyph name="Wdieresis" xMin="66" yMin="0" xMax="1004" yMax="868">
      <component glyphName="W" x="0" y="0" flags="0x0"/>
      <component glyphName="dieresis" x="406" y="145" flags="0x0"/>
    </TTGlyph>
    <TTGlyph name="Wgrave" xMin="66" yMin="0" xMax="1004" yMax="868">
      <component glyphName="W" x="0" y="0" flags="0x0"/>
      <component glyphName="grave" x="337" y="145" flags="0x0"/>
    </TTGlyph>
    <TTGlyph name="X" xMin="-60" yMin="0" xMax="704" yMax="686">
      <contour>
        <pt x="323" y="239" on="1"/>
        <pt x="318" y="239" on="1"/>
        <pt x="118" y="0" on="1"/>
        <pt x="-60" y="0" on="1"/>
        <pt x="252" y="365" on="1"/>
        <pt x="82" y="686" on="1"/>
        <pt x="245" y="686" on="1"/>
        <pt x="348" y="478" on="1"/>
        <pt x="353" y="478" on="1"/>
        <pt x="527" y="686" on="1"/>
        <pt x="704" y="686" on="1"/>
        <pt x="419" y="354" on="1"/>
        <pt x="605" y="0" on="1"/>
        <pt x="443" y="0" on="1"/>
      </contour>
    </TTGlyph>
    <TTGlyph name="Y" xMin="62" yMin="0" xMax="729" yMax="686">
      <contour>
        <pt x="252" y="277" on="1"/>
        <pt x="62" y="686" on="1"/>
        <pt x="211" y="686" on="1"/>
        <pt x="340" y="406" on="1"/>
        <pt x="345" y="406" on="1"/>
        <pt x="570" y="686" on="1"/>
        <pt x="729" y="686" on="1"/>
        <pt x="397" y="277" on="1"/>
        <pt x="348" y="0" on="1"/>
        <pt x="203" y="0" on="1"/>
      </contour>
    </TTGlyph>
    <TTGlyph name="Y.loclGUA" xMin="33" yMin="-12" xMax="662" yMax="686">
      <contour>
        <pt x="375" y="208" on="0"/>
        <pt x="259" y="208" on="1"/>
        <pt x="169" y="208" on="0"/>
        <pt x="80" y="296" on="0"/>
        <pt x="80" y="378" on="1"/>
        <pt x="80" y="409" on="0"/>
        <pt x="86" y="445" on="1"/>
        <pt x="129" y="686" on="1"/>
        <pt x="274" y="686" on="1"/>
        <pt x="231" y="442" on="1"/>
        <pt x="228" y="427" on="0"/>
        <pt x="228" y="413" on="1"/>
        <pt x="228" y="373" on="0"/>
        <pt x="275" y="331" on="0"/>
        <pt x="319" y="331" on="1"/>
        <pt x="385" y="331" on="0"/>
        <pt x="470" y="423" on="0"/>
        <pt x="486" y="512" on="1"/>
        <pt x="517" y="686" on="1"/>
        <pt x="662" y="686" on="1"/>
        <pt x="585" y="254" on="1"/>
        <pt x="564" y="124" on="0"/>
        <pt x="404" y="-12" on="0"/>
        <pt x="280" y="-12" on="1"/>
        <pt x="161" y="-12" on="0"/>
        <pt x="33" y="75" on="0"/>
        <pt x="33" y="159" on="1"/>
        <pt x="33" y="168" on="1"/>
        <pt x="181" y="168" on="1"/>
        <pt x="181" y="138" on="0"/>
        <pt x="228" y="111" on="0"/>
        <pt x="282" y="111" on="1"/>
        <pt x="345" y="111" on="0"/>
        <pt x="426" y="173" on="0"/>
        <pt x="436" y="232" on="1"/>
        <pt x="446" y="286" on="1"/>
        <pt x="439" y="286" on="1"/>
      </contour>
    </TTGlyph>
    <TTGlyph name="Yacute" xMin="62" yMin="0" xMax="729" yMax="868">
      <component glyphName="Y" x="0" y="0" flags="0x0"/>
      <component glyphName="acute" x="307" y="145" flags="0x0"/>
    </TTGlyph>
    <TTGlyph name="Yacute.loclGUA" xMin="33" yMin="-12" xMax="662" yMax="868">
      <component glyphName="Y.loclGUA" x="0" y="0" flags="0x0"/>
      <component glyphName="acute" x="307" y="145" flags="0x0"/>
    </TTGlyph>
    <TTGlyph name="Ycircumflex" xMin="62" yMin="0" xMax="729" yMax="868">
      <component glyphName="Y" x="0" y="0" flags="0x0"/>
      <component glyphName="circumflex" x="258" y="145" flags="0x0"/>
    </TTGlyph>
    <TTGlyph name="Ycircumflex.loclGUA" xMin="33" yMin="-12" xMax="662" yMax="868">
      <component glyphName="Y.loclGUA" x="0" y="0" flags="0x0"/>
      <component glyphName="circumflex" x="258" y="145" flags="0x0"/>
    </TTGlyph>
    <TTGlyph name="Ydieresis" xMin="62" yMin="0" xMax="729" yMax="868">
      <component glyphName="Y" x="0" y="0" flags="0x0"/>
      <component glyphName="dieresis" x="268" y="145" flags="0x0"/>
    </TTGlyph>
    <TTGlyph name="Ydieresis.loclGUA" xMin="33" yMin="-12" xMax="662" yMax="868">
      <component glyphName="Y.loclGUA" x="0" y="0" flags="0x0"/>
      <component glyphName="dieresis" x="268" y="145" flags="0x0"/>
    </TTGlyph>
    <TTGlyph name="Ygrave" xMin="62" yMin="0" xMax="729" yMax="868">
      <component glyphName="Y" x="0" y="0" flags="0x0"/>
      <component glyphName="grave" x="199" y="145" flags="0x0"/>
    </TTGlyph>
    <TTGlyph name="Ygrave.loclGUA" xMin="33" yMin="-12" xMax="662" yMax="868">
      <component glyphName="Y.loclGUA" x="0" y="0" flags="0x0"/>
      <component glyphName="grave" x="199" y="145" flags="0x0"/>
    </TTGlyph>
    <TTGlyph name="Z" xMin="-38" yMin="0" xMax="642" yMax="686">
      <contour>
        <pt x="-26" y="68" on="1"/>
        <pt x="396" y="563" on="1"/>
        <pt x="86" y="563" on="1"/>
        <pt x="108" y="686" on="1"/>
        <pt x="642" y="686" on="1"/>
        <pt x="630" y="617" on="1"/>
        <pt x="208" y="123" on="1"/>
        <pt x="552" y="123" on="1"/>
        <pt x="530" y="0" on="1"/>
        <pt x="-38" y="0" on="1"/>
      </contour>
    </TTGlyph>
    <TTGlyph name="Zacute" xMin="-38" yMin="0" xMax="642" yMax="868">
      <component glyphName="Z" x="0" y="0" flags="0x0"/>
      <component glyphName="acute" x="279" y="145" flags="0x0"/>
    </TTGlyph>
    <TTGlyph name="Zacute.loclPLK" xMin="-38" yMin="0" xMax="642" yMax="868">
      <component glyphName="Z" x="0" y="0" flags="0x0"/>
      <component glyphName="acute.loclPLK" x="179" y="145" flags="0x0"/>
    </TTGlyph>
    <TTGlyph name="Zcaron" xMin="-38" yMin="0" xMax="642" yMax="868">
      <component glyphName="Z" x="0" y="0" flags="0x0"/>
      <component glyphName="caron" x="238" y="145" flags="0x0"/>
    </TTGlyph>
    <TTGlyph name="Zdotaccent" xMin="-38" yMin="0" xMax="642" yMax="869">
      <component glyphName="Z" x="0" y="0" flags="0x0"/>
      <component glyphName="dotaccent" x="237" y="145" flags="0x0"/>
    </TTGlyph>
    <TTGlyph name="a" xMin="17" yMin="-12" xMax="554" yMax="538">
      <contour>
        <pt x="491" y="-12" on="0"/>
        <pt x="443" y="-12" on="1"/>
        <pt x="404" y="-12" on="0"/>
        <pt x="355" y="32" on="0"/>
        <pt x="351" y="69" on="1"/>
        <pt x="345" y="69" on="1"/>
        <pt x="317" y="30" on="0"/>
        <pt x="235" y="-12" on="0"/>
        <pt x="189" y="-12" on="1"/>
        <pt x="110" y="-12" on="0"/>
        <pt x="17" y="95" on="0"/>
        <pt x="17" y="196" on="1"/>
        <pt x="17" y="273" on="0"/>
        <pt x="67" y="431" on="0"/>
        <pt x="173" y="538" on="0"/>
        <pt x="252" y="538" on="1"/>
        <pt x="305" y="538" on="0"/>
        <pt x="377" y="501" on="0"/>
        <pt x="401" y="465" on="1"/>
        <pt x="407" y="465" on="1"/>
        <pt x="438" y="526" on="1"/>
        <pt x="554" y="526" on="1"/>
        <pt x="512" y="286" on="1"/>
        <pt x="484" y="128" on="0"/>
        <pt x="484" y="127" on="1"/>
        <pt x="484" y="114" on="0"/>
        <pt x="501" y="100" on="0"/>
        <pt x="513" y="100" on="1"/>
        <pt x="542" y="100" on="1"/>
        <pt x="525" y="4" on="1"/>
      </contour>
      <contour>
        <pt x="289" y="107" on="0"/>
        <pt x="350" y="179" on="0"/>
        <pt x="377" y="279" on="0"/>
        <pt x="377" y="322" on="1"/>
        <pt x="377" y="423" on="0"/>
        <pt x="293" y="423" on="1"/>
        <pt x="243" y="423" on="0"/>
        <pt x="183" y="350" on="0"/>
        <pt x="159" y="250" on="0"/>
        <pt x="159" y="204" on="1"/>
        <pt x="159" y="107" on="0"/>
        <pt x="242" y="107" on="1"/>
      </contour>
    </TTGlyph>
    <TTGlyph name="aacute" xMin="17" yMin="-12" xMax="554" yMax="723">
      <component glyphName="a" x="0" y="0" flags="0x0"/>
      <component glyphName="acute" x="214" y="0" flags="0x0"/>
    </TTGlyph>
    <TTGlyph name="abreve" xMin="17" yMin="-12" xMax="554" yMax="723">
      <component glyphName="a" x="0" y="0" flags="0x0"/>
      <component glyphName="breve" x="161" y="0" flags="0x0"/>
    </TTGlyph>
    <TTGlyph name="acircumflex" xMin="17" yMin="-12" xMax="554" yMax="723">
      <component glyphName="a" x="0" y="0" flags="0x0"/>
      <component glyphName="circumflex" x="165" y="0" flags="0x0"/>
    </TTGlyph>
    <TTGlyph name="acute" xMin="58" yMin="591" xMax="299" yMax="723">
      <contour>
        <pt x="58" y="591" on="1"/>
        <pt x="160" y="723" on="1"/>
        <pt x="298" y="723" on="1"/>
        <pt x="299" y="720" on="1"/>
        <pt x="168" y="591" on="1"/>
      </contour>
    </TTGlyph>
    <TTGlyph name="acute.loclPLK" xMin="149" yMin="591" xMax="322" yMax="723">
      <contour>
        <pt x="198" y="723" on="1"/>
        <pt x="321" y="723" on="1"/>
        <pt x="322" y="720" on="1"/>
        <pt x="254" y="591" on="1"/>
        <pt x="149" y="591" on="1"/>
      </contour>
    </TTGlyph>
    <TTGlyph name="adieresis" xMin="17" yMin="-12" xMax="554" yMax="723">
      <component glyphName="a" x="0" y="0" flags="0x0"/>
      <component glyphName="dieresis" x="175" y="0" flags="0x0"/>
    </TTGlyph>
    <TTGlyph name="ae" xMin="-6" yMin="-12" xMax="852" yMax="538">
      <contour>
        <pt x="488" y="208" on="0"/>
        <pt x="488" y="185" on="1"/>
        <pt x="488" y="139" on="0"/>
        <pt x="533" y="94" on="0"/>
        <pt x="583" y="94" on="1"/>
        <pt x="678" y="94" on="0"/>
        <pt x="695" y="186" on="1"/>
        <pt x="830" y="186" on="1"/>
        <pt x="815" y="87" on="0"/>
        <pt x="686" y="-12" on="0"/>
        <pt x="587" y="-12" on="1"/>
        <pt x="441" y="-12" on="0"/>
        <pt x="386" y="59" on="1"/>
        <pt x="308" y="-12" on="0"/>
        <pt x="193" y="-12" on="1"/>
        <pt x="115" y="-12" on="0"/>
        <pt x="-6" y="44" on="0"/>
        <pt x="-6" y="118" on="1"/>
        <pt x="-6" y="233" on="0"/>
        <pt x="190" y="322" on="0"/>
        <pt x="371" y="322" on="1"/>
        <pt x="377" y="359" on="1"/>
        <pt x="379" y="373" on="0"/>
        <pt x="379" y="380" on="1"/>
        <pt x="379" y="405" on="0"/>
        <pt x="345" y="432" on="0"/>
        <pt x="302" y="432" on="1"/>
        <pt x="251" y="432" on="0"/>
        <pt x="203" y="404" on="0"/>
        <pt x="199" y="385" on="1"/>
        <pt x="196" y="370" on="1"/>
        <pt x="64" y="370" on="1"/>
        <pt x="64" y="419" on="0"/>
        <pt x="125" y="496" on="0"/>
        <pt x="231" y="538" on="0"/>
        <pt x="297" y="538" on="1"/>
        <pt x="423" y="538" on="0"/>
        <pt x="479" y="490" on="1"/>
        <pt x="541" y="538" on="0"/>
        <pt x="634" y="538" on="1"/>
        <pt x="744" y="538" on="0"/>
        <pt x="852" y="442" on="0"/>
        <pt x="852" y="341" on="1"/>
        <pt x="852" y="308" on="0"/>
        <pt x="844" y="263" on="1"/>
        <pt x="838" y="231" on="1"/>
        <pt x="492" y="231" on="1"/>
      </contour>
      <contour>
        <pt x="715" y="340" on="0"/>
        <pt x="715" y="356" on="1"/>
        <pt x="715" y="431" on="0"/>
        <pt x="640" y="431" on="1"/>
        <pt x="588" y="431" on="0"/>
        <pt x="526" y="377" on="0"/>
        <pt x="510" y="322" on="1"/>
        <pt x="712" y="322" on="1"/>
      </contour>
      <contour>
        <pt x="137" y="231" on="0"/>
        <pt x="137" y="140" on="1"/>
        <pt x="137" y="120" on="0"/>
        <pt x="171" y="96" on="0"/>
        <pt x="205" y="96" on="1"/>
        <pt x="270" y="96" on="0"/>
        <pt x="342" y="161" on="0"/>
        <pt x="352" y="215" on="1"/>
        <pt x="355" y="231" on="1"/>
      </contour>
    </TTGlyph>
    <TTGlyph name="aeacute" xMin="-6" yMin="-12" xMax="852" yMax="723">
      <component glyphName="ae" x="0" y="0" flags="0x0"/>
      <component glyphName="acute" x="389" y="0" flags="0x0"/>
    </TTGlyph>
    <TTGlyph name="agrave" xMin="17" yMin="-12" xMax="554" yMax="723">
      <component glyphName="a" x="0" y="0" flags="0x0"/>
      <component glyphName="grave" x="106" y="0" flags="0x0"/>
    </TTGlyph>
    <TTGlyph name="amacron" xMin="17" yMin="-12" xMax="554" yMax="699">
      <component glyphName="a" x="0" y="0" flags="0x0"/>
      <component glyphName="macron" x="178" y="0" flags="0x0"/>
    </TTGlyph>
    <TTGlyph name="ampersand" xMin="30" yMin="-12" xMax="720" yMax="698">
      <contour>
        <pt x="590" y="204" on="1"/>
        <pt x="572" y="103" on="0"/>
        <pt x="422" y="-12" on="0"/>
        <pt x="298" y="-12" on="1"/>
        <pt x="173" y="-12" on="0"/>
        <pt x="30" y="75" on="0"/>
        <pt x="30" y="154" on="1"/>
        <pt x="30" y="236" on="0"/>
        <pt x="127" y="338" on="0"/>
        <pt x="203" y="352" on="1"/>
        <pt x="204" y="356" on="1"/>
        <pt x="156" y="378" on="0"/>
        <pt x="105" y="439" on="0"/>
        <pt x="105" y="487" on="1"/>
        <pt x="105" y="553" on="0"/>
        <pt x="181" y="648" on="0"/>
        <pt x="313" y="698" on="0"/>
        <pt x="395" y="698" on="1"/>
        <pt x="510" y="698" on="0"/>
        <pt x="647" y="613" on="0"/>
        <pt x="647" y="540" on="1"/>
        <pt x="647" y="525" on="0"/>
        <pt x="639" y="482" on="1"/>
        <pt x="502" y="482" on="1"/>
        <pt x="506" y="507" on="0"/>
        <pt x="506" y="518" on="1"/>
        <pt x="506" y="587" on="0"/>
        <pt x="394" y="587" on="1"/>
        <pt x="323" y="587" on="0"/>
        <pt x="242" y="527" on="0"/>
        <pt x="242" y="476" on="1"/>
        <pt x="242" y="442" on="0"/>
        <pt x="295" y="404" on="0"/>
        <pt x="336" y="404" on="1"/>
        <pt x="405" y="404" on="1"/>
        <pt x="386" y="292" on="1"/>
        <pt x="320" y="292" on="1"/>
        <pt x="258" y="292" on="0"/>
        <pt x="175" y="241" on="0"/>
        <pt x="175" y="176" on="1"/>
        <pt x="175" y="99" on="0"/>
        <pt x="289" y="99" on="1"/>
        <pt x="361" y="99" on="0"/>
        <pt x="443" y="151" on="0"/>
        <pt x="452" y="201" on="1"/>
        <pt x="488" y="404" on="1"/>
        <pt x="720" y="404" on="1"/>
        <pt x="701" y="292" on="1"/>
        <pt x="606" y="292" on="1"/>
      </contour>
    </TTGlyph>
    <TTGlyph name="aogonek" xMin="17" yMin="-182" xMax="554" yMax="538">
      <contour>
        <pt x="453" y="-182" on="0"/>
        <pt x="422" y="-182" on="1"/>
        <pt x="383" y="-182" on="0"/>
        <pt x="330" y="-145" on="0"/>
        <pt x="330" y="-105" on="1"/>
        <pt x="330" y="-45" on="0"/>
        <pt x="408" y="-6" on="1"/>
        <pt x="384" y="1" on="0"/>
        <pt x="354" y="41" on="0"/>
        <pt x="351" y="69" on="1"/>
        <pt x="345" y="69" on="1"/>
        <pt x="317" y="30" on="0"/>
        <pt x="235" y="-12" on="0"/>
        <pt x="189" y="-12" on="1"/>
        <pt x="110" y="-12" on="0"/>
        <pt x="17" y="95" on="0"/>
        <pt x="17" y="196" on="1"/>
        <pt x="17" y="273" on="0"/>
        <pt x="67" y="431" on="0"/>
        <pt x="173" y="538" on="0"/>
        <pt x="252" y="538" on="1"/>
        <pt x="305" y="538" on="0"/>
        <pt x="377" y="501" on="0"/>
        <pt x="401" y="465" on="1"/>
        <pt x="407" y="465" on="1"/>
        <pt x="438" y="526" on="1"/>
        <pt x="554" y="526" on="1"/>
        <pt x="512" y="286" on="1"/>
        <pt x="484" y="128" on="0"/>
        <pt x="484" y="127" on="1"/>
        <pt x="484" y="114" on="0"/>
        <pt x="501" y="100" on="0"/>
        <pt x="513" y="100" on="1"/>
        <pt x="542" y="100" on="1"/>
        <pt x="525" y="4" on="1"/>
        <pt x="491" y="-12" on="0"/>
        <pt x="441" y="-57" on="0"/>
        <pt x="441" y="-81" on="1"/>
        <pt x="441" y="-113" on="0"/>
        <pt x="482" y="-113" on="1"/>
        <pt x="505" y="-113" on="1"/>
        <pt x="495" y="-168" on="1"/>
      </contour>
      <contour>
        <pt x="289" y="107" on="0"/>
        <pt x="350" y="179" on="0"/>
        <pt x="377" y="279" on="0"/>
        <pt x="377" y="322" on="1"/>
        <pt x="377" y="423" on="0"/>
        <pt x="293" y="423" on="1"/>
        <pt x="243" y="423" on="0"/>
        <pt x="183" y="350" on="0"/>
        <pt x="159" y="250" on="0"/>
        <pt x="159" y="204" on="1"/>
        <pt x="159" y="107" on="0"/>
        <pt x="242" y="107" on="1"/>
      </contour>
    </TTGlyph>
    <TTGlyph name="approxequal" xMin="-16" yMin="41" xMax="549" yMax="457">
      <contour>
        <pt x="528" y="335" on="0"/>
        <pt x="484" y="296" on="0"/>
        <pt x="414" y="264" on="0"/>
        <pt x="372" y="264" on="1"/>
        <pt x="347" y="264" on="0"/>
        <pt x="305" y="279" on="0"/>
        <pt x="275" y="294" on="1"/>
        <pt x="247" y="309" on="0"/>
        <pt x="202" y="325" on="0"/>
        <pt x="176" y="325" on="1"/>
        <pt x="139" y="325" on="0"/>
        <pt x="69" y="293" on="0"/>
        <pt x="20" y="254" on="0"/>
        <pt x="20" y="252" on="1"/>
        <pt x="41" y="372" on="1"/>
        <pt x="41" y="374" on="0"/>
        <pt x="85" y="413" on="0"/>
        <pt x="155" y="445" on="0"/>
        <pt x="197" y="445" on="1"/>
        <pt x="222" y="445" on="0"/>
        <pt x="264" y="430" on="0"/>
        <pt x="294" y="415" on="1"/>
        <pt x="322" y="400" on="0"/>
        <pt x="367" y="384" on="0"/>
        <pt x="393" y="384" on="1"/>
        <pt x="430" y="384" on="0"/>
        <pt x="500" y="416" on="0"/>
        <pt x="549" y="455" on="0"/>
        <pt x="549" y="457" on="1"/>
        <pt x="528" y="337" on="1"/>
      </contour>
      <contour>
        <pt x="491" y="124" on="0"/>
        <pt x="447" y="85" on="0"/>
        <pt x="377" y="53" on="0"/>
        <pt x="335" y="53" on="1"/>
        <pt x="310" y="53" on="0"/>
        <pt x="268" y="68" on="0"/>
        <pt x="238" y="83" on="1"/>
        <pt x="210" y="98" on="0"/>
        <pt x="165" y="114" on="0"/>
        <pt x="139" y="114" on="1"/>
        <pt x="102" y="114" on="0"/>
        <pt x="33" y="82" on="0"/>
        <pt x="-16" y="43" on="0"/>
        <pt x="-16" y="41" on="1"/>
        <pt x="4" y="161" on="1"/>
        <pt x="4" y="163" on="0"/>
        <pt x="48" y="202" on="0"/>
        <pt x="118" y="234" on="0"/>
        <pt x="160" y="234" on="1"/>
        <pt x="185" y="234" on="0"/>
        <pt x="227" y="219" on="0"/>
        <pt x="257" y="204" on="1"/>
        <pt x="285" y="189" on="0"/>
        <pt x="330" y="173" on="0"/>
        <pt x="356" y="173" on="1"/>
        <pt x="393" y="173" on="0"/>
        <pt x="463" y="205" on="0"/>
        <pt x="512" y="244" on="0"/>
        <pt x="512" y="246" on="1"/>
        <pt x="491" y="126" on="1"/>
      </contour>
    </TTGlyph>
    <TTGlyph name="aring" xMin="17" yMin="-12" xMax="554" yMax="758">
      <component glyphName="a" x="0" y="0" flags="0x0"/>
      <component glyphName="ring" x="169" y="0" flags="0x0"/>
    </TTGlyph>
    <TTGlyph name="aringacute" xMin="17" yMin="-12" xMax="554" yMax="909">
      <component glyphName="a" x="0" y="0" flags="0x0"/>
      <component glyphName="ring" x="169" y="0" flags="0x0"/>
      <component glyphName="acute" x="246" y="186" flags="0x0"/>
    </TTGlyph>
    <TTGlyph name="arrowboth" xMin="28" yMin="69" xMax="949" yMax="436">
      <contour>
        <pt x="666" y="69" on="1"/>
        <pt x="742" y="198" on="1"/>
        <pt x="216" y="198" on="1"/>
        <pt x="246" y="69" on="1"/>
        <pt x="194" y="69" on="1"/>
        <pt x="28" y="242" on="1"/>
        <pt x="31" y="263" on="1"/>
        <pt x="251" y="436" on="1"/>
        <pt x="311" y="436" on="1"/>
        <pt x="235" y="307" on="1"/>
        <pt x="761" y="307" on="1"/>
        <pt x="731" y="436" on="1"/>
        <pt x="783" y="436" on="1"/>
        <pt x="949" y="263" on="1"/>
        <pt x="946" y="242" on="1"/>
        <pt x="726" y="69" on="1"/>
      </contour>
    </TTGlyph>
    <TTGlyph name="arrowdown" xMin="9" yMin="-207" xMax="385" yMax="711">
      <contour>
        <pt x="148" y="-207" on="1"/>
        <pt x="9" y="-10" on="1"/>
        <pt x="18" y="42" on="1"/>
        <pt x="138" y="-11" on="1"/>
        <pt x="265" y="711" on="1"/>
        <pt x="374" y="711" on="1"/>
        <pt x="247" y="-11" on="1"/>
        <pt x="385" y="42" on="1"/>
        <pt x="374" y="-18" on="1"/>
        <pt x="169" y="-207" on="1"/>
      </contour>
    </TTGlyph>
    <TTGlyph name="arrowleft" xMin="23" yMin="68" xMax="952" yMax="436">
      <contour>
        <pt x="241" y="68" on="1"/>
        <pt x="189" y="68" on="1"/>
        <pt x="23" y="242" on="1"/>
        <pt x="26" y="263" on="1"/>
        <pt x="246" y="436" on="1"/>
        <pt x="306" y="436" on="1"/>
        <pt x="230" y="306" on="1"/>
        <pt x="952" y="306" on="1"/>
        <pt x="933" y="198" on="1"/>
        <pt x="211" y="198" on="1"/>
      </contour>
    </TTGlyph>
    <TTGlyph name="arrowright" xMin="18" yMin="68" xMax="947" yMax="436">
      <contour>
        <pt x="664" y="68" on="1"/>
        <pt x="740" y="198" on="1"/>
        <pt x="18" y="198" on="1"/>
        <pt x="37" y="306" on="1"/>
        <pt x="759" y="306" on="1"/>
        <pt x="729" y="436" on="1"/>
        <pt x="781" y="436" on="1"/>
        <pt x="947" y="262" on="1"/>
        <pt x="944" y="241" on="1"/>
        <pt x="724" y="68" on="1"/>
      </contour>
    </TTGlyph>
    <TTGlyph name="arrowup" xMin="88" yMin="-207" xMax="464" yMax="711">
      <contour>
        <pt x="226" y="515" on="1"/>
        <pt x="88" y="462" on="1"/>
        <pt x="99" y="522" on="1"/>
        <pt x="304" y="711" on="1"/>
        <pt x="325" y="711" on="1"/>
        <pt x="464" y="514" on="1"/>
        <pt x="455" y="462" on="1"/>
        <pt x="335" y="515" on="1"/>
        <pt x="208" y="-207" on="1"/>
        <pt x="99" y="-207" on="1"/>
      </contour>
    </TTGlyph>
    <TTGlyph name="arrowupdn" xMin="6" yMin="-207" xMax="466" yMax="711">
      <contour>
        <pt x="145" y="-207" on="1"/>
        <pt x="6" y="-10" on="1"/>
        <pt x="15" y="42" on="1"/>
        <pt x="135" y="-11" on="1"/>
        <pt x="228" y="515" on="1"/>
        <pt x="90" y="462" on="1"/>
        <pt x="101" y="522" on="1"/>
        <pt x="306" y="711" on="1"/>
        <pt x="327" y="711" on="1"/>
        <pt x="466" y="514" on="1"/>
        <pt x="457" y="462" on="1"/>
        <pt x="337" y="515" on="1"/>
        <pt x="244" y="-11" on="1"/>
        <pt x="382" y="42" on="1"/>
        <pt x="371" y="-18" on="1"/>
        <pt x="166" y="-207" on="1"/>
      </contour>
    </TTGlyph>
    <TTGlyph name="arrowupdnbse" xMin="-27" yMin="-233" xMax="471" yMax="711">
      <contour>
        <pt x="169" y="-100" on="1"/>
        <pt x="30" y="97" on="1"/>
        <pt x="39" y="149" on="1"/>
        <pt x="159" y="96" on="1"/>
        <pt x="233" y="515" on="1"/>
        <pt x="95" y="462" on="1"/>
        <pt x="106" y="522" on="1"/>
        <pt x="311" y="711" on="1"/>
        <pt x="332" y="711" on="1"/>
        <pt x="471" y="514" on="1"/>
        <pt x="462" y="462" on="1"/>
        <pt x="342" y="515" on="1"/>
        <pt x="268" y="96" on="1"/>
        <pt x="406" y="149" on="1"/>
        <pt x="395" y="89" on="1"/>
        <pt x="190" y="-100" on="1"/>
      </contour>
      <contour>
        <pt x="-12" y="-147" on="1"/>
        <pt x="354" y="-147" on="1"/>
        <pt x="339" y="-233" on="1"/>
        <pt x="-27" y="-233" on="1"/>
      </contour>
    </TTGlyph>
    <TTGlyph name="asciicircum" xMin="17" yMin="294" xMax="436" yMax="686">
      <contour>
        <pt x="277" y="564" on="1"/>
        <pt x="130" y="294" on="1"/>
        <pt x="17" y="294" on="1"/>
        <pt x="241" y="686" on="1"/>
        <pt x="348" y="686" on="1"/>
        <pt x="436" y="294" on="1"/>
        <pt x="330" y="294" on="1"/>
      </contour>
    </TTGlyph>
    <TTGlyph name="asciitilde" xMin="23" yMin="199" xMax="560" yMax="402">
      <contour>
        <pt x="539" y="281" on="0"/>
        <pt x="495" y="243" on="0"/>
        <pt x="425" y="211" on="0"/>
        <pt x="382" y="211" on="1"/>
        <pt x="357" y="211" on="0"/>
        <pt x="313" y="226" on="0"/>
        <pt x="282" y="241" on="1"/>
        <pt x="252" y="256" on="0"/>
        <pt x="206" y="271" on="0"/>
        <pt x="180" y="271" on="1"/>
        <pt x="142" y="271" on="0"/>
        <pt x="72" y="239" on="0"/>
        <pt x="23" y="201" on="0"/>
        <pt x="23" y="199" on="1"/>
        <pt x="44" y="318" on="1"/>
        <pt x="44" y="320" on="0"/>
        <pt x="88" y="358" on="0"/>
        <pt x="158" y="390" on="0"/>
        <pt x="201" y="390" on="1"/>
        <pt x="226" y="390" on="0"/>
        <pt x="270" y="375" on="0"/>
        <pt x="301" y="360" on="1"/>
        <pt x="331" y="345" on="0"/>
        <pt x="377" y="330" on="0"/>
        <pt x="403" y="330" on="1"/>
        <pt x="441" y="330" on="0"/>
        <pt x="511" y="362" on="0"/>
        <pt x="560" y="400" on="0"/>
        <pt x="560" y="402" on="1"/>
        <pt x="539" y="283" on="1"/>
      </contour>
    </TTGlyph>
    <TTGlyph name="asterisk" xMin="58" yMin="362" xMax="398" yMax="686">
      <contour>
        <pt x="241" y="362" on="1"/>
        <pt x="158" y="362" on="1"/>
        <pt x="196" y="481" on="1"/>
        <pt x="87" y="407" on="1"/>
        <pt x="58" y="478" on="1"/>
        <pt x="179" y="524" on="1"/>
        <pt x="75" y="571" on="1"/>
        <pt x="128" y="641" on="1"/>
        <pt x="211" y="567" on="1"/>
        <pt x="215" y="686" on="1"/>
        <pt x="298" y="686" on="1"/>
        <pt x="260" y="568" on="1"/>
        <pt x="369" y="641" on="1"/>
        <pt x="398" y="571" on="1"/>
        <pt x="278" y="524" on="1"/>
        <pt x="381" y="478" on="1"/>
        <pt x="328" y="407" on="1"/>
        <pt x="245" y="481" on="1"/>
      </contour>
    </TTGlyph>
    <TTGlyph name="at" xMin="29" yMin="-153" xMax="939" yMax="698">
      <contour>
        <pt x="510" y="-153" on="0"/>
        <pt x="431" y="-153" on="1"/>
        <pt x="216" y="-153" on="0"/>
        <pt x="29" y="40" on="0"/>
        <pt x="29" y="212" on="1"/>
        <pt x="29" y="698" on="0"/>
        <pt x="544" y="698" on="1"/>
        <pt x="671" y="698" on="0"/>
        <pt x="848" y="621" on="0"/>
        <pt x="939" y="478" on="0"/>
        <pt x="939" y="379" on="1"/>
        <pt x="939" y="293" on="0"/>
        <pt x="878" y="129" on="0"/>
        <pt x="746" y="22" on="0"/>
        <pt x="646" y="22" on="1"/>
        <pt x="604" y="22" on="0"/>
        <pt x="543" y="54" on="0"/>
        <pt x="543" y="90" on="1"/>
        <pt x="543" y="95" on="1"/>
        <pt x="537" y="95" on="1"/>
        <pt x="512" y="60" on="0"/>
        <pt x="437" y="21" on="0"/>
        <pt x="395" y="21" on="1"/>
        <pt x="324" y="21" on="0"/>
        <pt x="239" y="119" on="0"/>
        <pt x="239" y="210" on="1"/>
        <pt x="239" y="280" on="0"/>
        <pt x="284" y="424" on="0"/>
        <pt x="380" y="521" on="0"/>
        <pt x="452" y="521" on="1"/>
        <pt x="501" y="521" on="0"/>
        <pt x="566" y="487" on="0"/>
        <pt x="588" y="454" on="1"/>
        <pt x="594" y="454" on="1"/>
        <pt x="621" y="510" on="1"/>
        <pt x="727" y="510" on="1"/>
        <pt x="663" y="156" on="0"/>
        <pt x="663" y="148" on="1"/>
        <pt x="663" y="135" on="0"/>
        <pt x="680" y="123" on="0"/>
        <pt x="700" y="123" on="1"/>
        <pt x="745" y="123" on="0"/>
        <pt x="815" y="196" on="0"/>
        <pt x="853" y="314" on="0"/>
        <pt x="853" y="379" on="1"/>
        <pt x="853" y="492" on="0"/>
        <pt x="692" y="621" on="0"/>
        <pt x="544" y="621" on="1"/>
        <pt x="336" y="621" on="0"/>
        <pt x="116" y="421" on="0"/>
        <pt x="116" y="219" on="1"/>
        <pt x="116" y="80" on="0"/>
        <pt x="260" y="-76" on="0"/>
        <pt x="431" y="-76" on="1"/>
        <pt x="478" y="-76" on="0"/>
        <pt x="559" y="-68" on="0"/>
        <pt x="607" y="-59" on="0"/>
        <pt x="613" y="-58" on="1"/>
        <pt x="602" y="-139" on="1"/>
      </contour>
      <contour>
        <pt x="486" y="130" on="0"/>
        <pt x="542" y="195" on="0"/>
        <pt x="567" y="286" on="0"/>
        <pt x="567" y="325" on="1"/>
        <pt x="567" y="416" on="0"/>
        <pt x="490" y="416" on="1"/>
        <pt x="424" y="416" on="0"/>
        <pt x="368" y="289" on="0"/>
        <pt x="368" y="217" on="1"/>
        <pt x="368" y="173" on="0"/>
        <pt x="404" y="130" on="0"/>
        <pt x="443" y="130" on="1"/>
      </contour>
    </TTGlyph>
    <TTGlyph name="atilde" xMin="17" yMin="-12" xMax="554" yMax="723">
      <component glyphName="a" x="0" y="0" flags="0x0"/>
      <component glyphName="tilde" x="173" y="0" flags="0x0"/>
    </TTGlyph>
    <TTGlyph name="b" xMin="13" yMin="-12" xMax="570" yMax="723">
      <contour>
        <pt x="140" y="723" on="1"/>
        <pt x="277" y="723" on="1"/>
        <pt x="232" y="465" on="1"/>
        <pt x="238" y="465" on="1"/>
        <pt x="264" y="500" on="0"/>
        <pt x="341" y="538" on="0"/>
        <pt x="388" y="538" on="1"/>
        <pt x="472" y="538" on="0"/>
        <pt x="570" y="434" on="0"/>
        <pt x="570" y="331" on="1"/>
        <pt x="570" y="252" on="0"/>
        <pt x="518" y="95" on="0"/>
        <pt x="403" y="-12" on="0"/>
        <pt x="314" y="-12" on="1"/>
        <pt x="258" y="-12" on="0"/>
        <pt x="177" y="29" on="0"/>
        <pt x="158" y="69" on="1"/>
        <pt x="151" y="69" on="1"/>
        <pt x="130" y="0" on="1"/>
        <pt x="13" y="0" on="1"/>
      </contour>
      <contour>
        <pt x="336" y="103" on="0"/>
        <pt x="402" y="176" on="0"/>
        <pt x="428" y="276" on="0"/>
        <pt x="428" y="322" on="1"/>
        <pt x="428" y="370" on="0"/>
        <pt x="384" y="419" on="0"/>
        <pt x="338" y="419" on="1"/>
        <pt x="286" y="419" on="0"/>
        <pt x="219" y="347" on="0"/>
        <pt x="190" y="247" on="0"/>
        <pt x="190" y="204" on="1"/>
        <pt x="190" y="154" on="0"/>
        <pt x="236" y="103" on="0"/>
        <pt x="281" y="103" on="1"/>
      </contour>
    </TTGlyph>
    <TTGlyph name="backslash" xMin="74" yMin="-49" xMax="211" yMax="735">
      <contour>
        <pt x="74" y="735" on="1"/>
        <pt x="169" y="735" on="1"/>
        <pt x="211" y="-49" on="1"/>
        <pt x="115" y="-49" on="1"/>
      </contour>
    </TTGlyph>
    <TTGlyph name="bar" xMin="90" yMin="-173" xMax="190" yMax="723">
      <contour>
        <pt x="90" y="723" on="1"/>
        <pt x="190" y="723" on="1"/>
        <pt x="190" y="-173" on="1"/>
        <pt x="90" y="-173" on="1"/>
      </contour>
    </TTGlyph>
    <TTGlyph name="braceleft" xMin="12" yMin="-159" xMax="413" yMax="735">
      <contour>
        <pt x="188" y="-159" on="0"/>
        <pt x="105" y="-141" on="0"/>
        <pt x="61" y="-91" on="0"/>
        <pt x="61" y="-44" on="1"/>
        <pt x="61" y="-24" on="0"/>
        <pt x="77" y="70" on="0"/>
        <pt x="86" y="114" on="1"/>
        <pt x="100" y="179" on="0"/>
        <pt x="100" y="191" on="1"/>
        <pt x="100" y="217" on="0"/>
        <pt x="49" y="242" on="0"/>
        <pt x="12" y="242" on="1"/>
        <pt x="29" y="334" on="1"/>
        <pt x="69" y="334" on="0"/>
        <pt x="130" y="363" on="0"/>
        <pt x="136" y="394" on="1"/>
        <pt x="170" y="587" on="1"/>
        <pt x="181" y="649" on="0"/>
        <pt x="236" y="713" on="0"/>
        <pt x="331" y="735" on="0"/>
        <pt x="413" y="735" on="1"/>
        <pt x="400" y="658" on="1"/>
        <pt x="359" y="658" on="0"/>
        <pt x="296" y="631" on="0"/>
        <pt x="290" y="597" on="1"/>
        <pt x="284" y="560" on="0"/>
        <pt x="265" y="477" on="1"/>
        <pt x="253" y="427" on="0"/>
        <pt x="248" y="401" on="1"/>
        <pt x="240" y="364" on="0"/>
        <pt x="212" y="318" on="0"/>
        <pt x="153" y="293" on="0"/>
        <pt x="101" y="293" on="1"/>
        <pt x="100" y="283" on="1"/>
        <pt x="159" y="283" on="0"/>
        <pt x="211" y="240" on="0"/>
        <pt x="211" y="198" on="1"/>
        <pt x="211" y="185" on="0"/>
        <pt x="196" y="78" on="0"/>
        <pt x="188" y="28" on="1"/>
        <pt x="180" y="-32" on="1"/>
        <pt x="180" y="-82" on="0"/>
        <pt x="269" y="-82" on="1"/>
        <pt x="256" y="-159" on="1"/>
      </contour>
    </TTGlyph>
    <TTGlyph name="braceright" xMin="-44" yMin="-159" xMax="357" yMax="735">
      <contour>
        <pt x="10" y="-82" on="0"/>
        <pt x="73" y="-55" on="0"/>
        <pt x="79" y="-21" on="1"/>
        <pt x="85" y="16" on="0"/>
        <pt x="104" y="99" on="1"/>
        <pt x="116" y="149" on="0"/>
        <pt x="121" y="175" on="1"/>
        <pt x="129" y="212" on="0"/>
        <pt x="157" y="258" on="0"/>
        <pt x="216" y="283" on="0"/>
        <pt x="268" y="283" on="1"/>
        <pt x="269" y="293" on="1"/>
        <pt x="210" y="293" on="0"/>
        <pt x="158" y="336" on="0"/>
        <pt x="158" y="378" on="1"/>
        <pt x="158" y="391" on="0"/>
        <pt x="173" y="498" on="0"/>
        <pt x="181" y="548" on="1"/>
        <pt x="189" y="608" on="1"/>
        <pt x="189" y="658" on="0"/>
        <pt x="100" y="658" on="1"/>
        <pt x="113" y="735" on="1"/>
        <pt x="181" y="735" on="0"/>
        <pt x="264" y="717" on="0"/>
        <pt x="308" y="667" on="0"/>
        <pt x="308" y="620" on="1"/>
        <pt x="308" y="600" on="0"/>
        <pt x="292" y="506" on="0"/>
        <pt x="283" y="462" on="1"/>
        <pt x="269" y="397" on="0"/>
        <pt x="269" y="385" on="1"/>
        <pt x="269" y="359" on="0"/>
        <pt x="320" y="334" on="0"/>
        <pt x="357" y="334" on="1"/>
        <pt x="340" y="242" on="1"/>
        <pt x="300" y="242" on="0"/>
        <pt x="239" y="213" on="0"/>
        <pt x="233" y="182" on="1"/>
        <pt x="199" y="-11" on="1"/>
        <pt x="188" y="-73" on="0"/>
        <pt x="133" y="-137" on="0"/>
        <pt x="38" y="-159" on="0"/>
        <pt x="-44" y="-159" on="1"/>
        <pt x="-31" y="-82" on="1"/>
      </contour>
    </TTGlyph>
    <TTGlyph name="bracketleft" xMin="-14" yMin="-161" xMax="358" yMax="735">
      <contour>
        <pt x="142" y="735" on="1"/>
        <pt x="358" y="735" on="1"/>
        <pt x="342" y="640" on="1"/>
        <pt x="242" y="640" on="1"/>
        <pt x="117" y="-66" on="1"/>
        <pt x="217" y="-66" on="1"/>
        <pt x="201" y="-161" on="1"/>
        <pt x="-14" y="-161" on="1"/>
      </contour>
    </TTGlyph>
    <TTGlyph name="bracketright" xMin="-43" yMin="-161" xMax="329" yMax="735">
      <contour>
        <pt x="-27" y="-66" on="1"/>
        <pt x="72" y="-66" on="1"/>
        <pt x="197" y="640" on="1"/>
        <pt x="97" y="640" on="1"/>
        <pt x="113" y="735" on="1"/>
        <pt x="329" y="735" on="1"/>
        <pt x="172" y="-161" on="1"/>
        <pt x="-43" y="-161" on="1"/>
      </contour>
    </TTGlyph>
    <TTGlyph name="breve" xMin="15" yMin="586" xMax="340" yMax="723">
      <contour>
        <pt x="334" y="694" on="0"/>
        <pt x="302" y="638" on="0"/>
        <pt x="277" y="619" on="1"/>
        <pt x="233" y="586" on="0"/>
        <pt x="166" y="586" on="1"/>
        <pt x="87" y="586" on="0"/>
        <pt x="15" y="649" on="0"/>
        <pt x="15" y="698" on="1"/>
        <pt x="15" y="715" on="0"/>
        <pt x="17" y="723" on="1"/>
        <pt x="107" y="723" on="1"/>
        <pt x="107" y="703" on="0"/>
        <pt x="136" y="675" on="0"/>
        <pt x="169" y="675" on="1"/>
        <pt x="201" y="675" on="0"/>
        <pt x="244" y="705" on="0"/>
        <pt x="250" y="723" on="1"/>
        <pt x="340" y="723" on="1"/>
      </contour>
    </TTGlyph>
    <TTGlyph name="brokenbar" xMin="90" yMin="-173" xMax="190" yMax="723">
      <contour>
        <pt x="90" y="723" on="1"/>
        <pt x="190" y="723" on="1"/>
        <pt x="190" y="357" on="1"/>
        <pt x="90" y="357" on="1"/>
      </contour>
      <contour>
        <pt x="90" y="193" on="1"/>
        <pt x="190" y="193" on="1"/>
        <pt x="190" y="-173" on="1"/>
        <pt x="90" y="-173" on="1"/>
      </contour>
    </TTGlyph>
    <TTGlyph name="bullet" xMin="40" yMin="208" xMax="311" yMax="479">
      <contour>
        <pt x="311" y="306" on="0"/>
        <pt x="274" y="244" on="0"/>
        <pt x="212" y="208" on="0"/>
        <pt x="175" y="208" on="1"/>
        <pt x="138" y="208" on="0"/>
        <pt x="76" y="244" on="0"/>
        <pt x="40" y="306" on="0"/>
        <pt x="40" y="343" on="1"/>
        <pt x="40" y="380" on="0"/>
        <pt x="76" y="442" on="0"/>
        <pt x="138" y="479" on="0"/>
        <pt x="175" y="479" on="1"/>
        <pt x="212" y="479" on="0"/>
        <pt x="274" y="442" on="0"/>
        <pt x="311" y="380" on="0"/>
        <pt x="311" y="343" on="1"/>
      </contour>
    </TTGlyph>
    <TTGlyph name="c" xMin="17" yMin="-12" xMax="522" yMax="538">
      <contour>
        <pt x="382" y="346" on="0"/>
        <pt x="382" y="354" on="1"/>
        <pt x="382" y="390" on="0"/>
        <pt x="341" y="428" on="0"/>
        <pt x="303" y="428" on="1"/>
        <pt x="247" y="428" on="0"/>
        <pt x="181" y="349" on="0"/>
        <pt x="166" y="271" on="1"/>
        <pt x="157" y="223" on="0"/>
        <pt x="157" y="197" on="1"/>
        <pt x="157" y="148" on="0"/>
        <pt x="202" y="98" on="0"/>
        <pt x="251" y="98" on="1"/>
        <pt x="298" y="98" on="0"/>
        <pt x="355" y="150" on="0"/>
        <pt x="363" y="198" on="1"/>
        <pt x="495" y="198" on="1"/>
        <pt x="479" y="93" on="0"/>
        <pt x="354" y="-12" on="0"/>
        <pt x="253" y="-12" on="1"/>
        <pt x="134" y="-12" on="0"/>
        <pt x="17" y="86" on="0"/>
        <pt x="17" y="187" on="1"/>
        <pt x="17" y="281" on="0"/>
        <pt x="76" y="440" on="0"/>
        <pt x="203" y="538" on="0"/>
        <pt x="300" y="538" on="1"/>
        <pt x="403" y="538" on="0"/>
        <pt x="522" y="455" on="0"/>
        <pt x="522" y="376" on="1"/>
        <pt x="522" y="351" on="0"/>
        <pt x="518" y="328" on="1"/>
        <pt x="380" y="328" on="1"/>
      </contour>
    </TTGlyph>
    <TTGlyph name="cacute" xMin="17" yMin="-12" xMax="522" yMax="723">
      <component glyphName="c" x="0" y="0" flags="0x0"/>
      <component glyphName="acute" x="222" y="0" flags="0x0"/>
    </TTGlyph>
    <TTGlyph name="cacute.loclPLK" xMin="17" yMin="-12" xMax="522" yMax="723">
      <component glyphName="c" x="0" y="0" flags="0x0"/>
      <component glyphName="acute.loclPLK" x="122" y="0" flags="0x0"/>
    </TTGlyph>
    <TTGlyph name="caron" xMin="11" yMin="588" xMax="343" yMax="723">
      <contour>
        <pt x="11" y="723" on="1"/>
        <pt x="118" y="723" on="1"/>
        <pt x="163" y="654" on="1"/>
        <pt x="225" y="723" on="1"/>
        <pt x="343" y="723" on="1"/>
        <pt x="215" y="588" on="1"/>
        <pt x="93" y="588" on="1"/>
      </contour>
    </TTGlyph>
    <TTGlyph name="ccaron" xMin="17" yMin="-12" xMax="524" yMax="723">
      <component glyphName="c" x="0" y="0" flags="0x0"/>
      <component glyphName="caron" x="181" y="0" flags="0x0"/>
    </TTGlyph>
    <TTGlyph name="ccedilla" xMin="17" yMin="-182" xMax="522" yMax="538">
      <contour>
        <pt x="298" y="-35" on="0"/>
        <pt x="346" y="-68" on="0"/>
        <pt x="346" y="-98" on="1"/>
        <pt x="346" y="-144" on="0"/>
        <pt x="250" y="-182" on="0"/>
        <pt x="194" y="-182" on="1"/>
        <pt x="138" y="-182" on="0"/>
        <pt x="92" y="-174" on="1"/>
        <pt x="101" y="-125" on="1"/>
        <pt x="189" y="-125" on="1"/>
        <pt x="213" y="-125" on="0"/>
        <pt x="238" y="-112" on="0"/>
        <pt x="238" y="-96" on="1"/>
        <pt x="238" y="-86" on="0"/>
        <pt x="221" y="-77" on="0"/>
        <pt x="200" y="-77" on="1"/>
        <pt x="159" y="-77" on="1"/>
        <pt x="182" y="-6" on="1"/>
        <pt x="99" y="7" on="0"/>
        <pt x="17" y="102" on="0"/>
        <pt x="17" y="187" on="1"/>
        <pt x="17" y="281" on="0"/>
        <pt x="76" y="440" on="0"/>
        <pt x="203" y="538" on="0"/>
        <pt x="300" y="538" on="1"/>
        <pt x="403" y="538" on="0"/>
        <pt x="522" y="455" on="0"/>
        <pt x="522" y="376" on="1"/>
        <pt x="522" y="351" on="0"/>
        <pt x="518" y="328" on="1"/>
        <pt x="380" y="328" on="1"/>
        <pt x="382" y="346" on="0"/>
        <pt x="382" y="354" on="1"/>
        <pt x="382" y="390" on="0"/>
        <pt x="341" y="428" on="0"/>
        <pt x="303" y="428" on="1"/>
        <pt x="247" y="428" on="0"/>
        <pt x="181" y="349" on="0"/>
        <pt x="166" y="271" on="1"/>
        <pt x="157" y="223" on="0"/>
        <pt x="157" y="197" on="1"/>
        <pt x="157" y="148" on="0"/>
        <pt x="202" y="98" on="0"/>
        <pt x="251" y="98" on="1"/>
        <pt x="298" y="98" on="0"/>
        <pt x="355" y="150" on="0"/>
        <pt x="363" y="198" on="1"/>
        <pt x="495" y="198" on="1"/>
        <pt x="479" y="96" on="0"/>
        <pt x="361" y="-9" on="0"/>
        <pt x="265" y="-12" on="1"/>
        <pt x="259" y="-33" on="1"/>
      </contour>
    </TTGlyph>
    <TTGlyph name="ccircumflex" xMin="17" yMin="-12" xMax="522" yMax="723">
      <component glyphName="c" x="0" y="0" flags="0x0"/>
      <component glyphName="circumflex" x="173" y="0" flags="0x0"/>
    </TTGlyph>
    <TTGlyph name="cdotaccent" xMin="17" yMin="-12" xMax="522" yMax="724">
      <component glyphName="c" x="0" y="0" flags="0x0"/>
      <component glyphName="dotaccent" x="180" y="0" flags="0x0"/>
    </TTGlyph>
    <TTGlyph name="cedilla" xMin="29" yMin="-182" xMax="283" yMax="11">
      <contour>
        <pt x="125" y="11" on="1"/>
        <pt x="210" y="11" on="1"/>
        <pt x="196" y="-33" on="1"/>
        <pt x="235" y="-35" on="0"/>
        <pt x="283" y="-68" on="0"/>
        <pt x="283" y="-98" on="1"/>
        <pt x="283" y="-144" on="0"/>
        <pt x="187" y="-182" on="0"/>
        <pt x="131" y="-182" on="1"/>
        <pt x="75" y="-182" on="0"/>
        <pt x="29" y="-174" on="1"/>
        <pt x="38" y="-125" on="1"/>
        <pt x="126" y="-125" on="1"/>
        <pt x="150" y="-125" on="0"/>
        <pt x="175" y="-112" on="0"/>
        <pt x="175" y="-96" on="1"/>
        <pt x="175" y="-86" on="0"/>
        <pt x="158" y="-77" on="0"/>
        <pt x="137" y="-77" on="1"/>
        <pt x="96" y="-77" on="1"/>
      </contour>
    </TTGlyph>
    <TTGlyph name="cent" xMin="30" yMin="-49" xMax="535" yMax="723">
      <contour>
        <pt x="211" y="71" on="1"/>
        <pt x="120" y="82" on="0"/>
        <pt x="30" y="178" on="0"/>
        <pt x="30" y="267" on="1"/>
        <pt x="30" y="360" on="0"/>
        <pt x="88" y="518" on="0"/>
        <pt x="213" y="617" on="0"/>
        <pt x="308" y="618" on="1"/>
        <pt x="327" y="723" on="1"/>
        <pt x="378" y="723" on="1"/>
        <pt x="359" y="615" on="1"/>
        <pt x="442" y="607" on="0"/>
        <pt x="535" y="526" on="0"/>
        <pt x="535" y="456" on="1"/>
        <pt x="535" y="431" on="0"/>
        <pt x="531" y="408" on="1"/>
        <pt x="393" y="408" on="1"/>
        <pt x="395" y="426" on="0"/>
        <pt x="395" y="434" on="1"/>
        <pt x="395" y="464" on="0"/>
        <pt x="366" y="501" on="0"/>
        <pt x="339" y="506" on="1"/>
        <pt x="281" y="179" on="1"/>
        <pt x="320" y="183" on="0"/>
        <pt x="368" y="234" on="0"/>
        <pt x="376" y="278" on="1"/>
        <pt x="508" y="278" on="1"/>
        <pt x="492" y="173" on="0"/>
        <pt x="367" y="68" on="0"/>
        <pt x="266" y="68" on="1"/>
        <pt x="262" y="68" on="1"/>
        <pt x="241" y="-49" on="1"/>
        <pt x="190" y="-49" on="1"/>
      </contour>
      <contour>
        <pt x="204" y="488" on="0"/>
        <pt x="179" y="351" on="1"/>
        <pt x="170" y="303" on="0"/>
        <pt x="170" y="277" on="1"/>
        <pt x="170" y="197" on="0"/>
        <pt x="231" y="181" on="1"/>
        <pt x="288" y="505" on="1"/>
      </contour>
    </TTGlyph>
    <TTGlyph name="circumflex" xMin="-11" yMin="588" xMax="321" yMax="723">
      <contour>
        <pt x="170" y="657" on="1"/>
        <pt x="108" y="588" on="1"/>
        <pt x="-11" y="588" on="1"/>
        <pt x="117" y="723" on="1"/>
        <pt x="239" y="723" on="1"/>
        <pt x="321" y="588" on="1"/>
        <pt x="215" y="588" on="1"/>
      </contour>
    </TTGlyph>
    <TTGlyph name="colon" xMin="39" yMin="0" xMax="270" yMax="526">
      <contour>
        <pt x="132" y="526" on="1"/>
        <pt x="270" y="526" on="1"/>
        <pt x="246" y="389" on="1"/>
        <pt x="108" y="389" on="1"/>
      </contour>
      <contour>
        <pt x="63" y="137" on="1"/>
        <pt x="201" y="137" on="1"/>
        <pt x="177" y="0" on="1"/>
        <pt x="39" y="0" on="1"/>
      </contour>
    </TTGlyph>
    <TTGlyph name="comma" xMin="-13" yMin="-156" xMax="177" yMax="137">
      <contour>
        <pt x="69" y="0" on="1"/>
        <pt x="14" y="0" on="1"/>
        <pt x="39" y="137" on="1"/>
        <pt x="177" y="137" on="1"/>
        <pt x="155" y="12" on="1"/>
        <pt x="59" y="-156" on="1"/>
        <pt x="-13" y="-156" on="1"/>
      </contour>
    </TTGlyph>
    <TTGlyph name="copyright" xMin="13" yMin="-12" xMax="723" yMax="698">
      <contour>
        <pt x="272" y="-12" on="0"/>
        <pt x="109" y="84" on="0"/>
        <pt x="13" y="247" on="0"/>
        <pt x="13" y="343" on="1"/>
        <pt x="13" y="439" on="0"/>
        <pt x="109" y="602" on="0"/>
        <pt x="272" y="698" on="0"/>
        <pt x="368" y="698" on="1"/>
        <pt x="464" y="698" on="0"/>
        <pt x="627" y="602" on="0"/>
        <pt x="723" y="439" on="0"/>
        <pt x="723" y="343" on="1"/>
        <pt x="723" y="247" on="0"/>
        <pt x="627" y="84" on="0"/>
        <pt x="464" y="-12" on="0"/>
        <pt x="368" y="-12" on="1"/>
      </contour>
      <contour>
        <pt x="447" y="50" on="0"/>
        <pt x="581" y="129" on="0"/>
        <pt x="659" y="263" on="0"/>
        <pt x="659" y="343" on="1"/>
        <pt x="659" y="422" on="0"/>
        <pt x="581" y="557" on="0"/>
        <pt x="447" y="636" on="0"/>
        <pt x="368" y="636" on="1"/>
        <pt x="289" y="636" on="0"/>
        <pt x="155" y="557" on="0"/>
        <pt x="77" y="422" on="0"/>
        <pt x="77" y="343" on="1"/>
        <pt x="77" y="263" on="0"/>
        <pt x="155" y="129" on="0"/>
        <pt x="289" y="50" on="0"/>
        <pt x="368" y="50" on="1"/>
      </contour>
      <contour>
        <pt x="528" y="225" on="0"/>
        <pt x="449" y="131" on="0"/>
        <pt x="368" y="131" on="1"/>
        <pt x="276" y="131" on="0"/>
        <pt x="189" y="233" on="0"/>
        <pt x="189" y="341" on="1"/>
        <pt x="189" y="450" on="0"/>
        <pt x="276" y="552" on="0"/>
        <pt x="368" y="552" on="1"/>
        <pt x="451" y="552" on="0"/>
        <pt x="528" y="469" on="0"/>
        <pt x="528" y="386" on="1"/>
        <pt x="450" y="386" on="1"/>
        <pt x="450" y="439" on="0"/>
        <pt x="414" y="486" on="0"/>
        <pt x="368" y="486" on="1"/>
        <pt x="316" y="486" on="0"/>
        <pt x="268" y="419" on="0"/>
        <pt x="268" y="341" on="1"/>
        <pt x="268" y="264" on="0"/>
        <pt x="315" y="197" on="0"/>
        <pt x="368" y="197" on="1"/>
        <pt x="413" y="197" on="0"/>
        <pt x="454" y="247" on="0"/>
        <pt x="454" y="297" on="1"/>
        <pt x="528" y="297" on="1"/>
      </contour>
    </TTGlyph>
    <TTGlyph name="currency" xMin="28" yMin="99" xMax="528" yMax="603">
      <contour>
        <pt x="398" y="130" on="0"/>
        <pt x="320" y="102" on="0"/>
        <pt x="278" y="102" on="1"/>
        <pt x="236" y="102" on="0"/>
        <pt x="158" y="130" on="0"/>
        <pt x="129" y="157" on="1"/>
        <pt x="74" y="99" on="1"/>
        <pt x="29" y="144" on="1"/>
        <pt x="83" y="200" on="1"/>
        <pt x="58" y="231" on="0"/>
        <pt x="33" y="309" on="0"/>
        <pt x="33" y="351" on="1"/>
        <pt x="33" y="394" on="0"/>
        <pt x="58" y="473" on="0"/>
        <pt x="83" y="501" on="1"/>
        <pt x="28" y="555" on="1"/>
        <pt x="76" y="603" on="1"/>
        <pt x="133" y="547" on="1"/>
        <pt x="161" y="571" on="0"/>
        <pt x="238" y="598" on="0"/>
        <pt x="278" y="598" on="1"/>
        <pt x="318" y="598" on="0"/>
        <pt x="395" y="571" on="0"/>
        <pt x="423" y="547" on="1"/>
        <pt x="480" y="603" on="1"/>
        <pt x="528" y="555" on="1"/>
        <pt x="473" y="501" on="1"/>
        <pt x="498" y="473" on="0"/>
        <pt x="523" y="394" on="0"/>
        <pt x="523" y="351" on="1"/>
        <pt x="523" y="309" on="0"/>
        <pt x="498" y="231" on="0"/>
        <pt x="473" y="200" on="1"/>
        <pt x="527" y="144" on="1"/>
        <pt x="482" y="99" on="1"/>
        <pt x="427" y="157" on="1"/>
      </contour>
      <contour>
        <pt x="322" y="181" on="0"/>
        <pt x="397" y="228" on="0"/>
        <pt x="441" y="306" on="0"/>
        <pt x="441" y="351" on="1"/>
        <pt x="441" y="395" on="0"/>
        <pt x="397" y="472" on="0"/>
        <pt x="322" y="519" on="0"/>
        <pt x="278" y="519" on="1"/>
        <pt x="234" y="519" on="0"/>
        <pt x="159" y="472" on="0"/>
        <pt x="115" y="395" on="0"/>
        <pt x="115" y="351" on="1"/>
        <pt x="115" y="306" on="0"/>
        <pt x="159" y="228" on="0"/>
        <pt x="234" y="181" on="0"/>
        <pt x="278" y="181" on="1"/>
      </contour>
    </TTGlyph>
    <TTGlyph name="d" xMin="18" yMin="-12" xMax="610" yMax="723">
      <contour>
        <pt x="369" y="69" on="1"/>
        <pt x="362" y="69" on="1"/>
        <pt x="332" y="31" on="0"/>
        <pt x="252" y="-12" on="0"/>
        <pt x="208" y="-12" on="1"/>
        <pt x="116" y="-12" on="0"/>
        <pt x="18" y="90" on="0"/>
        <pt x="18" y="196" on="1"/>
        <pt x="18" y="273" on="0"/>
        <pt x="70" y="431" on="0"/>
        <pt x="181" y="538" on="0"/>
        <pt x="263" y="538" on="1"/>
        <pt x="320" y="538" on="0"/>
        <pt x="396" y="501" on="0"/>
        <pt x="422" y="465" on="1"/>
        <pt x="428" y="465" on="1"/>
        <pt x="473" y="723" on="1"/>
        <pt x="610" y="723" on="1"/>
        <pt x="483" y="0" on="1"/>
        <pt x="369" y="0" on="1"/>
      </contour>
      <contour>
        <pt x="327" y="107" on="0"/>
        <pt x="398" y="238" on="0"/>
        <pt x="398" y="322" on="1"/>
        <pt x="398" y="372" on="0"/>
        <pt x="352" y="423" on="0"/>
        <pt x="307" y="423" on="1"/>
        <pt x="225" y="423" on="0"/>
        <pt x="160" y="284" on="0"/>
        <pt x="160" y="204" on="1"/>
        <pt x="160" y="156" on="0"/>
        <pt x="204" y="107" on="0"/>
        <pt x="250" y="107" on="1"/>
      </contour>
    </TTGlyph>
    <TTGlyph name="dagger" xMin="54" yMin="-173" xMax="559" yMax="686">
      <contour>
        <pt x="262" y="425" on="1"/>
        <pt x="54" y="407" on="1"/>
        <pt x="74" y="520" on="1"/>
        <pt x="276" y="503" on="1"/>
        <pt x="291" y="686" on="1"/>
        <pt x="399" y="686" on="1"/>
        <pt x="350" y="503" on="1"/>
        <pt x="559" y="520" on="1"/>
        <pt x="539" y="407" on="1"/>
        <pt x="336" y="425" on="1"/>
        <pt x="251" y="-173" on="1"/>
        <pt x="137" y="-173" on="1"/>
      </contour>
    </TTGlyph>
    <TTGlyph name="daggerdbl" xMin="-19" yMin="-173" xMax="556" yMax="686">
      <contour>
        <pt x="246" y="-173" on="1"/>
        <pt x="138" y="-173" on="1"/>
        <pt x="188" y="13" on="1"/>
        <pt x="-19" y="-4" on="1"/>
        <pt x="-1" y="109" on="1"/>
        <pt x="201" y="91" on="1"/>
        <pt x="211" y="260" on="1"/>
        <pt x="260" y="425" on="1"/>
        <pt x="52" y="407" on="1"/>
        <pt x="72" y="520" on="1"/>
        <pt x="274" y="503" on="1"/>
        <pt x="289" y="686" on="1"/>
        <pt x="397" y="686" on="1"/>
        <pt x="348" y="503" on="1"/>
        <pt x="556" y="520" on="1"/>
        <pt x="536" y="407" on="1"/>
        <pt x="334" y="425" on="1"/>
        <pt x="325" y="260" on="1"/>
        <pt x="275" y="91" on="1"/>
        <pt x="483" y="109" on="1"/>
        <pt x="464" y="-4" on="1"/>
        <pt x="262" y="13" on="1"/>
      </contour>
    </TTGlyph>
    <TTGlyph name="dcaron" xMin="18" yMin="-12" xMax="796" yMax="723">
      <contour>
        <pt x="369" y="69" on="1"/>
        <pt x="362" y="69" on="1"/>
        <pt x="332" y="31" on="0"/>
        <pt x="252" y="-12" on="0"/>
        <pt x="208" y="-12" on="1"/>
        <pt x="116" y="-12" on="0"/>
        <pt x="18" y="90" on="0"/>
        <pt x="18" y="196" on="1"/>
        <pt x="18" y="273" on="0"/>
        <pt x="70" y="431" on="0"/>
        <pt x="181" y="538" on="0"/>
        <pt x="263" y="538" on="1"/>
        <pt x="320" y="538" on="0"/>
        <pt x="396" y="501" on="0"/>
        <pt x="422" y="465" on="1"/>
        <pt x="428" y="465" on="1"/>
        <pt x="473" y="723" on="1"/>
        <pt x="610" y="723" on="1"/>
        <pt x="483" y="0" on="1"/>
        <pt x="369" y="0" on="1"/>
      </contour>
      <contour>
        <pt x="691" y="559" on="1"/>
        <pt x="636" y="559" on="1"/>
        <pt x="658" y="686" on="1"/>
        <pt x="796" y="686" on="1"/>
        <pt x="776" y="571" on="1"/>
        <pt x="687" y="442" on="1"/>
        <pt x="615" y="442" on="1"/>
      </contour>
      <contour>
        <pt x="327" y="107" on="0"/>
        <pt x="398" y="238" on="0"/>
        <pt x="398" y="322" on="1"/>
        <pt x="398" y="372" on="0"/>
        <pt x="352" y="423" on="0"/>
        <pt x="307" y="423" on="1"/>
        <pt x="225" y="423" on="0"/>
        <pt x="160" y="284" on="0"/>
        <pt x="160" y="204" on="1"/>
        <pt x="160" y="156" on="0"/>
        <pt x="204" y="107" on="0"/>
        <pt x="250" y="107" on="1"/>
      </contour>
    </TTGlyph>
    <TTGlyph name="dcroat" xMin="18" yMin="-12" xMax="657" yMax="723">
      <contour>
        <pt x="369" y="69" on="1"/>
        <pt x="362" y="69" on="1"/>
        <pt x="332" y="31" on="0"/>
        <pt x="252" y="-12" on="0"/>
        <pt x="208" y="-12" on="1"/>
        <pt x="116" y="-12" on="0"/>
        <pt x="18" y="90" on="0"/>
        <pt x="18" y="196" on="1"/>
        <pt x="18" y="273" on="0"/>
        <pt x="70" y="431" on="0"/>
        <pt x="181" y="538" on="0"/>
        <pt x="263" y="538" on="1"/>
        <pt x="320" y="538" on="0"/>
        <pt x="396" y="501" on="0"/>
        <pt x="422" y="465" on="1"/>
        <pt x="428" y="465" on="1"/>
        <pt x="449" y="587" on="1"/>
        <pt x="295" y="587" on="1"/>
        <pt x="308" y="658" on="1"/>
        <pt x="462" y="658" on="1"/>
        <pt x="473" y="723" on="1"/>
        <pt x="610" y="723" on="1"/>
        <pt x="598" y="658" on="1"/>
        <pt x="657" y="658" on="1"/>
        <pt x="644" y="587" on="1"/>
        <pt x="586" y="587" on="1"/>
        <pt x="483" y="0" on="1"/>
        <pt x="369" y="0" on="1"/>
      </contour>
      <contour>
        <pt x="327" y="107" on="0"/>
        <pt x="398" y="238" on="0"/>
        <pt x="398" y="322" on="1"/>
        <pt x="398" y="372" on="0"/>
        <pt x="352" y="423" on="0"/>
        <pt x="307" y="423" on="1"/>
        <pt x="225" y="423" on="0"/>
        <pt x="160" y="284" on="0"/>
        <pt x="160" y="204" on="1"/>
        <pt x="160" y="156" on="0"/>
        <pt x="204" y="107" on="0"/>
        <pt x="250" y="107" on="1"/>
      </contour>
    </TTGlyph>
    <TTGlyph name="degree" xMin="44" yMin="386" xMax="356" yMax="698">
      <contour>
        <pt x="157" y="386" on="0"/>
        <pt x="86" y="428" on="0"/>
        <pt x="44" y="499" on="0"/>
        <pt x="44" y="542" on="1"/>
        <pt x="44" y="585" on="0"/>
        <pt x="86" y="656" on="0"/>
        <pt x="157" y="698" on="0"/>
        <pt x="200" y="698" on="1"/>
        <pt x="243" y="698" on="0"/>
        <pt x="314" y="656" on="0"/>
        <pt x="356" y="585" on="0"/>
        <pt x="356" y="542" on="1"/>
        <pt x="356" y="499" on="0"/>
        <pt x="314" y="428" on="0"/>
        <pt x="243" y="386" on="0"/>
        <pt x="200" y="386" on="1"/>
      </contour>
      <contour>
        <pt x="231" y="468" on="0"/>
        <pt x="273" y="511" on="0"/>
        <pt x="273" y="542" on="1"/>
        <pt x="273" y="573" on="0"/>
        <pt x="231" y="615" on="0"/>
        <pt x="200" y="615" on="1"/>
        <pt x="169" y="615" on="0"/>
        <pt x="126" y="573" on="0"/>
        <pt x="126" y="542" on="1"/>
        <pt x="126" y="511" on="0"/>
        <pt x="169" y="468" on="0"/>
        <pt x="200" y="468" on="1"/>
      </contour>
    </TTGlyph>
    <TTGlyph name="dieresis" xMin="-8" yMin="605" xMax="341" yMax="723">
      <contour>
        <pt x="12" y="723" on="1"/>
        <pt x="130" y="723" on="1"/>
        <pt x="109" y="605" on="1"/>
        <pt x="-8" y="605" on="1"/>
      </contour>
      <contour>
        <pt x="222" y="723" on="1"/>
        <pt x="341" y="723" on="1"/>
        <pt x="320" y="605" on="1"/>
        <pt x="201" y="605" on="1"/>
      </contour>
    </TTGlyph>
    <TTGlyph name="divide" xMin="17" yMin="1" xMax="508" yMax="512">
      <contour>
        <pt x="247" y="512" on="1"/>
        <pt x="367" y="512" on="1"/>
        <pt x="347" y="402" on="1"/>
        <pt x="227" y="402" on="1"/>
      </contour>
      <contour>
        <pt x="36" y="308" on="1"/>
        <pt x="508" y="308" on="1"/>
        <pt x="489" y="203" on="1"/>
        <pt x="17" y="203" on="1"/>
      </contour>
      <contour>
        <pt x="176" y="111" on="1"/>
        <pt x="296" y="111" on="1"/>
        <pt x="276" y="1" on="1"/>
        <pt x="156" y="1" on="1"/>
      </contour>
    </TTGlyph>
    <TTGlyph name="dollar" xMin="19" yMin="-49" xMax="527" yMax="723">
      <contour>
        <pt x="205" y="68" on="1"/>
        <pt x="116" y="75" on="0"/>
        <pt x="19" y="149" on="0"/>
        <pt x="19" y="207" on="1"/>
        <pt x="19" y="221" on="0"/>
        <pt x="25" y="243" on="0"/>
        <pt x="26" y="246" on="1"/>
        <pt x="159" y="246" on="1"/>
        <pt x="158" y="245" on="0"/>
        <pt x="156" y="236" on="0"/>
        <pt x="156" y="231" on="1"/>
        <pt x="156" y="184" on="0"/>
        <pt x="224" y="175" on="1"/>
        <pt x="245" y="293" on="1"/>
        <pt x="190" y="307" on="0"/>
        <pt x="119" y="335" on="0"/>
        <pt x="69" y="391" on="0"/>
        <pt x="69" y="436" on="1"/>
        <pt x="69" y="521" on="0"/>
        <pt x="200" y="615" on="0"/>
        <pt x="302" y="617" on="1"/>
        <pt x="321" y="723" on="1"/>
        <pt x="372" y="723" on="1"/>
        <pt x="353" y="615" on="1"/>
        <pt x="432" y="608" on="0"/>
        <pt x="527" y="545" on="0"/>
        <pt x="527" y="495" on="1"/>
        <pt x="527" y="481" on="0"/>
        <pt x="521" y="455" on="0"/>
        <pt x="520" y="451" on="1"/>
        <pt x="387" y="451" on="1"/>
        <pt x="388" y="461" on="1"/>
        <pt x="388" y="481" on="0"/>
        <pt x="359" y="505" on="0"/>
        <pt x="334" y="509" on="1"/>
        <pt x="315" y="405" on="1"/>
        <pt x="374" y="391" on="0"/>
        <pt x="448" y="364" on="0"/>
        <pt x="502" y="307" on="0"/>
        <pt x="502" y="259" on="1"/>
        <pt x="502" y="159" on="0"/>
        <pt x="363" y="68" on="0"/>
        <pt x="255" y="67" on="1"/>
        <pt x="235" y="-49" on="1"/>
        <pt x="184" y="-49" on="1"/>
      </contour>
      <contour>
        <pt x="249" y="507" on="0"/>
        <pt x="210" y="482" on="0"/>
        <pt x="210" y="463" on="1"/>
        <pt x="210" y="447" on="0"/>
        <pt x="239" y="425" on="0"/>
        <pt x="267" y="417" on="1"/>
        <pt x="283" y="510" on="1"/>
      </contour>
      <contour>
        <pt x="311" y="177" on="0"/>
        <pt x="360" y="202" on="0"/>
        <pt x="360" y="227" on="1"/>
        <pt x="360" y="246" on="0"/>
        <pt x="325" y="271" on="0"/>
        <pt x="293" y="280" on="1"/>
        <pt x="274" y="174" on="1"/>
      </contour>
    </TTGlyph>
    <TTGlyph name="dotaccent" xMin="88" yMin="594" xMax="246" yMax="724">
      <contour>
        <pt x="111" y="724" on="1"/>
        <pt x="246" y="724" on="1"/>
        <pt x="223" y="594" on="1"/>
        <pt x="88" y="594" on="1"/>
      </contour>
    </TTGlyph>
    <TTGlyph name="dotbelowcomb" xMin="-321" yMin="-173" xMax="-163" yMax="-43">
      <contour>
        <pt x="-298" y="-43" on="1"/>
        <pt x="-163" y="-43" on="1"/>
        <pt x="-186" y="-173" on="1"/>
        <pt x="-321" y="-173" on="1"/>
      </contour>
    </TTGlyph>
    <TTGlyph name="dotlessi" xMin="13" yMin="0" xMax="243" yMax="526">
      <contour>
        <pt x="106" y="526" on="1"/>
        <pt x="243" y="526" on="1"/>
        <pt x="150" y="0" on="1"/>
        <pt x="13" y="0" on="1"/>
      </contour>
    </TTGlyph>
    <TTGlyph name="e" xMin="17" yMin="-12" xMax="519" yMax="538">
      <contour>
        <pt x="155" y="208" on="0"/>
        <pt x="155" y="185" on="1"/>
        <pt x="155" y="139" on="0"/>
        <pt x="200" y="94" on="0"/>
        <pt x="250" y="94" on="1"/>
        <pt x="345" y="94" on="0"/>
        <pt x="362" y="186" on="1"/>
        <pt x="497" y="186" on="1"/>
        <pt x="482" y="87" on="0"/>
        <pt x="353" y="-12" on="0"/>
        <pt x="254" y="-12" on="1"/>
        <pt x="135" y="-12" on="0"/>
        <pt x="17" y="86" on="0"/>
        <pt x="17" y="187" on="1"/>
        <pt x="17" y="280" on="0"/>
        <pt x="75" y="439" on="0"/>
        <pt x="202" y="538" on="0"/>
        <pt x="301" y="538" on="1"/>
        <pt x="411" y="538" on="0"/>
        <pt x="519" y="442" on="0"/>
        <pt x="519" y="341" on="1"/>
        <pt x="519" y="300" on="0"/>
        <pt x="511" y="263" on="1"/>
        <pt x="505" y="231" on="1"/>
        <pt x="159" y="231" on="1"/>
      </contour>
      <contour>
        <pt x="382" y="340" on="0"/>
        <pt x="382" y="356" on="1"/>
        <pt x="382" y="431" on="0"/>
        <pt x="307" y="431" on="1"/>
        <pt x="255" y="431" on="0"/>
        <pt x="193" y="377" on="0"/>
        <pt x="177" y="322" on="1"/>
        <pt x="379" y="322" on="1"/>
      </contour>
    </TTGlyph>
    <TTGlyph name="eacute" xMin="17" yMin="-12" xMax="521" yMax="723">
      <component glyphName="e" x="0" y="0" flags="0x0"/>
      <component glyphName="acute" x="222" y="0" flags="0x0"/>
    </TTGlyph>
    <TTGlyph name="ebreve" xMin="17" yMin="-12" xMax="519" yMax="723">
      <component glyphName="e" x="0" y="0" flags="0x0"/>
      <component glyphName="breve" x="169" y="0" flags="0x0"/>
    </TTGlyph>
    <TTGlyph name="ecaron" xMin="17" yMin="-12" xMax="524" yMax="723">
      <component glyphName="e" x="0" y="0" flags="0x0"/>
      <component glyphName="caron" x="181" y="0" flags="0x0"/>
    </TTGlyph>
    <TTGlyph name="ecircumflex" xMin="17" yMin="-12" xMax="519" yMax="723">
      <component glyphName="e" x="0" y="0" flags="0x0"/>
      <component glyphName="circumflex" x="173" y="0" flags="0x0"/>
    </TTGlyph>
    <TTGlyph name="edieresis" xMin="17" yMin="-12" xMax="524" yMax="723">
      <component glyphName="e" x="0" y="0" flags="0x0"/>
      <component glyphName="dieresis" x="183" y="0" flags="0x0"/>
    </TTGlyph>
    <TTGlyph name="edotaccent" xMin="17" yMin="-12" xMax="519" yMax="724">
      <component glyphName="e" x="0" y="0" flags="0x0"/>
      <component glyphName="dotaccent" x="180" y="0" flags="0x0"/>
    </TTGlyph>
    <TTGlyph name="egrave" xMin="17" yMin="-12" xMax="519" yMax="723">
      <component glyphName="e" x="0" y="0" flags="0x0"/>
      <component glyphName="grave" x="114" y="0" flags="0x0"/>
    </TTGlyph>
    <TTGlyph name="eight" xMin="2" yMin="-12" xMax="537" yMax="698">
      <contour>
        <pt x="498" y="312" on="0"/>
        <pt x="498" y="216" on="1"/>
        <pt x="498" y="154" on="0"/>
        <pt x="439" y="50" on="0"/>
        <pt x="320" y="-12" on="0"/>
        <pt x="235" y="-12" on="1"/>
        <pt x="116" y="-12" on="0"/>
        <pt x="2" y="75" on="0"/>
        <pt x="2" y="149" on="1"/>
        <pt x="2" y="219" on="0"/>
        <pt x="74" y="325" on="0"/>
        <pt x="143" y="352" on="1"/>
        <pt x="109" y="372" on="0"/>
        <pt x="75" y="435" on="0"/>
        <pt x="75" y="474" on="1"/>
        <pt x="75" y="534" on="0"/>
        <pt x="136" y="637" on="0"/>
        <pt x="250" y="698" on="0"/>
        <pt x="325" y="698" on="1"/>
        <pt x="429" y="698" on="0"/>
        <pt x="537" y="607" on="0"/>
        <pt x="537" y="533" on="1"/>
        <pt x="537" y="475" on="0"/>
        <pt x="473" y="379" on="0"/>
        <pt x="414" y="352" on="1"/>
      </contour>
      <contour>
        <pt x="336" y="405" on="0"/>
        <pt x="396" y="466" on="0"/>
        <pt x="396" y="520" on="1"/>
        <pt x="396" y="553" on="0"/>
        <pt x="357" y="588" on="0"/>
        <pt x="321" y="588" on="1"/>
        <pt x="273" y="588" on="0"/>
        <pt x="213" y="526" on="0"/>
        <pt x="213" y="472" on="1"/>
        <pt x="213" y="405" on="0"/>
        <pt x="288" y="405" on="1"/>
      </contour>
      <contour>
        <pt x="358" y="257" on="0"/>
        <pt x="312" y="296" on="0"/>
        <pt x="269" y="296" on="1"/>
        <pt x="214" y="296" on="0"/>
        <pt x="146" y="230" on="0"/>
        <pt x="146" y="173" on="1"/>
        <pt x="146" y="137" on="0"/>
        <pt x="191" y="98" on="0"/>
        <pt x="234" y="98" on="1"/>
        <pt x="287" y="98" on="0"/>
        <pt x="358" y="166" on="0"/>
        <pt x="358" y="220" on="1"/>
      </contour>
    </TTGlyph>
    <TTGlyph name="ellipsis" xMin="38" yMin="0" xMax="867" yMax="137">
      <contour>
        <pt x="63" y="137" on="1"/>
        <pt x="201" y="137" on="1"/>
        <pt x="176" y="0" on="1"/>
        <pt x="38" y="0" on="1"/>
      </contour>
      <contour>
        <pt x="396" y="137" on="1"/>
        <pt x="534" y="137" on="1"/>
        <pt x="509" y="0" on="1"/>
        <pt x="371" y="0" on="1"/>
      </contour>
      <contour>
        <pt x="729" y="137" on="1"/>
        <pt x="867" y="137" on="1"/>
        <pt x="842" y="0" on="1"/>
        <pt x="704" y="0" on="1"/>
      </contour>
    </TTGlyph>
    <TTGlyph name="emacron" xMin="17" yMin="-12" xMax="519" yMax="699">
      <component glyphName="e" x="0" y="0" flags="0x0"/>
      <component glyphName="macron" x="186" y="0" flags="0x0"/>
    </TTGlyph>
    <TTGlyph name="emdash" xMin="-15" yMin="221" xMax="1001" yMax="319">
      <contour>
        <pt x="1" y="319" on="1"/>
        <pt x="1001" y="319" on="1"/>
        <pt x="984" y="221" on="1"/>
        <pt x="-15" y="221" on="1"/>
      </contour>
    </TTGlyph>
    <TTGlyph name="endash" xMin="-15" yMin="221" xMax="557" yMax="319">
      <contour>
        <pt x="1" y="319" on="1"/>
        <pt x="557" y="319" on="1"/>
        <pt x="540" y="221" on="1"/>
        <pt x="-15" y="221" on="1"/>
      </contour>
    </TTGlyph>
    <TTGlyph name="eng" xMin="17" yMin="-182" xMax="555" yMax="538">
      <contour>
        <pt x="297" y="-70" on="1"/>
        <pt x="339" y="-70" on="0"/>
        <pt x="347" y="-27" on="1"/>
        <pt x="406" y="304" on="1"/>
        <pt x="412" y="340" on="0"/>
        <pt x="412" y="352" on="1"/>
        <pt x="412" y="417" on="0"/>
        <pt x="345" y="417" on="1"/>
        <pt x="292" y="417" on="0"/>
        <pt x="215" y="343" on="0"/>
        <pt x="203" y="274" on="1"/>
        <pt x="154" y="0" on="1"/>
        <pt x="17" y="0" on="1"/>
        <pt x="110" y="526" on="1"/>
        <pt x="225" y="526" on="1"/>
        <pt x="225" y="455" on="1"/>
        <pt x="232" y="455" on="1"/>
        <pt x="261" y="491" on="0"/>
        <pt x="354" y="538" on="0"/>
        <pt x="405" y="538" on="1"/>
        <pt x="471" y="538" on="0"/>
        <pt x="555" y="470" on="0"/>
        <pt x="555" y="398" on="1"/>
        <pt x="555" y="366" on="0"/>
        <pt x="545" y="313" on="1"/>
        <pt x="482" y="-41" on="1"/>
        <pt x="472" y="-101" on="0"/>
        <pt x="398" y="-182" on="0"/>
        <pt x="330" y="-182" on="1"/>
        <pt x="305" y="-182" on="0"/>
        <pt x="246" y="-172" on="0"/>
        <pt x="229" y="-166" on="1"/>
        <pt x="245" y="-70" on="1"/>
      </contour>
    </TTGlyph>
    <TTGlyph name="eogonek" xMin="17" yMin="-182" xMax="519" yMax="538">
      <contour>
        <pt x="392" y="-182" on="0"/>
        <pt x="360" y="-182" on="1"/>
        <pt x="320" y="-182" on="0"/>
        <pt x="268" y="-145" on="0"/>
        <pt x="268" y="-104" on="1"/>
        <pt x="268" y="-54" on="0"/>
        <pt x="315" y="-7" on="1"/>
        <pt x="289" y="-12" on="0"/>
        <pt x="254" y="-12" on="1"/>
        <pt x="135" y="-12" on="0"/>
        <pt x="17" y="86" on="0"/>
        <pt x="17" y="187" on="1"/>
        <pt x="17" y="280" on="0"/>
        <pt x="75" y="439" on="0"/>
        <pt x="202" y="538" on="0"/>
        <pt x="301" y="538" on="1"/>
        <pt x="411" y="538" on="0"/>
        <pt x="519" y="442" on="0"/>
        <pt x="519" y="341" on="1"/>
        <pt x="519" y="308" on="0"/>
        <pt x="511" y="263" on="1"/>
        <pt x="505" y="231" on="1"/>
        <pt x="159" y="231" on="1"/>
        <pt x="155" y="208" on="0"/>
        <pt x="155" y="185" on="1"/>
        <pt x="155" y="139" on="0"/>
        <pt x="200" y="94" on="0"/>
        <pt x="250" y="94" on="1"/>
        <pt x="345" y="94" on="0"/>
        <pt x="362" y="186" on="1"/>
        <pt x="497" y="186" on="1"/>
        <pt x="490" y="145" on="0"/>
        <pt x="462" y="82" on="0"/>
        <pt x="438" y="57" on="1"/>
        <pt x="402" y="19" on="0"/>
        <pt x="380" y="-41" on="0"/>
        <pt x="380" y="-67" on="1"/>
        <pt x="380" y="-86" on="0"/>
        <pt x="408" y="-113" on="0"/>
        <pt x="428" y="-113" on="1"/>
        <pt x="444" y="-113" on="1"/>
        <pt x="434" y="-168" on="1"/>
      </contour>
      <contour>
        <pt x="382" y="340" on="0"/>
        <pt x="382" y="356" on="1"/>
        <pt x="382" y="431" on="0"/>
        <pt x="307" y="431" on="1"/>
        <pt x="255" y="431" on="0"/>
        <pt x="193" y="377" on="0"/>
        <pt x="177" y="322" on="1"/>
        <pt x="379" y="322" on="1"/>
      </contour>
    </TTGlyph>
    <TTGlyph name="equal" xMin="21" yMin="96" xMax="548" yMax="412">
      <contour>
        <pt x="76" y="412" on="1"/>
        <pt x="548" y="412" on="1"/>
        <pt x="530" y="308" on="1"/>
        <pt x="58" y="308" on="1"/>
      </contour>
      <contour>
        <pt x="39" y="199" on="1"/>
        <pt x="511" y="199" on="1"/>
        <pt x="493" y="96" on="1"/>
        <pt x="21" y="96" on="1"/>
      </contour>
    </TTGlyph>
    <TTGlyph name="equivalence" xMin="5" yMin="17" xMax="571" yMax="546">
      <contour>
        <pt x="98" y="546" on="1"/>
        <pt x="571" y="546" on="1"/>
        <pt x="553" y="442" on="1"/>
        <pt x="80" y="442" on="1"/>
      </contour>
      <contour>
        <pt x="61" y="333" on="1"/>
        <pt x="534" y="333" on="1"/>
        <pt x="515" y="229" on="1"/>
        <pt x="42" y="229" on="1"/>
      </contour>
      <contour>
        <pt x="23" y="120" on="1"/>
        <pt x="496" y="120" on="1"/>
        <pt x="478" y="17" on="1"/>
        <pt x="5" y="17" on="1"/>
      </contour>
    </TTGlyph>
    <TTGlyph name="estimated" xMin="45" yMin="-12" xMax="559" yMax="538">
      <contour>
        <pt x="494" y="57" on="0"/>
        <pt x="379" y="-12" on="0"/>
        <pt x="302" y="-12" on="1"/>
        <pt x="224" y="-12" on="0"/>
        <pt x="107" y="59" on="0"/>
        <pt x="45" y="183" on="0"/>
        <pt x="45" y="263" on="1"/>
        <pt x="45" y="343" on="0"/>
        <pt x="107" y="467" on="0"/>
        <pt x="224" y="538" on="0"/>
        <pt x="302" y="538" on="1"/>
        <pt x="380" y="538" on="0"/>
        <pt x="496" y="465" on="0"/>
        <pt x="559" y="335" on="0"/>
        <pt x="559" y="253" on="1"/>
        <pt x="559" y="248" on="1"/>
        <pt x="153" y="248" on="1"/>
        <pt x="153" y="83" on="1"/>
        <pt x="211" y="30" on="0"/>
        <pt x="302" y="30" on="1"/>
        <pt x="367" y="30" on="0"/>
        <pt x="466" y="88" on="0"/>
        <pt x="492" y="139" on="1"/>
        <pt x="526" y="118" on="1"/>
      </contour>
      <contour>
        <pt x="391" y="496" on="0"/>
        <pt x="302" y="496" on="1"/>
        <pt x="212" y="496" on="0"/>
        <pt x="153" y="442" on="1"/>
        <pt x="153" y="290" on="1"/>
        <pt x="451" y="290" on="1"/>
        <pt x="451" y="441" on="1"/>
      </contour>
    </TTGlyph>
    <TTGlyph name="eth" xMin="18" yMin="-12" xMax="607" yMax="723">
      <contour>
        <pt x="570" y="487" on="0"/>
        <pt x="570" y="348" on="1"/>
        <pt x="570" y="183" on="0"/>
        <pt x="426" y="-12" on="0"/>
        <pt x="265" y="-12" on="1"/>
        <pt x="140" y="-12" on="0"/>
        <pt x="18" y="88" on="0"/>
        <pt x="18" y="192" on="1"/>
        <pt x="18" y="279" on="0"/>
        <pt x="66" y="419" on="0"/>
        <pt x="111" y="464" on="1"/>
        <pt x="142" y="495" on="0"/>
        <pt x="225" y="528" on="0"/>
        <pt x="270" y="528" on="1"/>
        <pt x="328" y="528" on="0"/>
        <pt x="377" y="509" on="1"/>
        <pt x="382" y="513" on="1"/>
        <pt x="365" y="554" on="0"/>
        <pt x="336" y="595" on="1"/>
        <pt x="168" y="583" on="1"/>
        <pt x="180" y="656" on="1"/>
        <pt x="283" y="663" on="1"/>
        <pt x="266" y="682" on="0"/>
        <pt x="228" y="718" on="1"/>
        <pt x="233" y="723" on="1"/>
        <pt x="389" y="723" on="1"/>
        <pt x="423" y="691" on="0"/>
        <pt x="436" y="674" on="1"/>
        <pt x="607" y="686" on="1"/>
        <pt x="594" y="613" on="1"/>
        <pt x="491" y="606" on="1"/>
      </contour>
      <contour>
        <pt x="426" y="296" on="0"/>
        <pt x="426" y="317" on="1"/>
        <pt x="426" y="367" on="0"/>
        <pt x="375" y="416" on="0"/>
        <pt x="320" y="416" on="1"/>
        <pt x="253" y="416" on="0"/>
        <pt x="181" y="342" on="0"/>
        <pt x="168" y="267" on="1"/>
        <pt x="160" y="220" on="0"/>
        <pt x="160" y="199" on="1"/>
        <pt x="160" y="149" on="0"/>
        <pt x="210" y="100" on="0"/>
        <pt x="264" y="100" on="1"/>
        <pt x="332" y="100" on="0"/>
        <pt x="404" y="175" on="0"/>
        <pt x="418" y="251" on="1"/>
      </contour>
    </TTGlyph>
    <TTGlyph name="exclam" xMin="39" yMin="0" xMax="305" yMax="686">
      <contour>
        <pt x="152" y="686" on="1"/>
        <pt x="305" y="686" on="1"/>
        <pt x="181" y="197" on="1"/>
        <pt x="99" y="197" on="1"/>
      </contour>
      <contour>
        <pt x="63" y="137" on="1"/>
        <pt x="201" y="137" on="1"/>
        <pt x="177" y="0" on="1"/>
        <pt x="39" y="0" on="1"/>
      </contour>
    </TTGlyph>
    <TTGlyph name="exclamdbl" xMin="39" yMin="0" xMax="305" yMax="686">
      <contour>
        <pt x="181" y="197" on="1"/>
        <pt x="99" y="197" on="1"/>
        <pt x="152" y="686" on="1"/>
        <pt x="305" y="686" on="1"/>
      </contour>
      <contour>
        <pt x="63" y="137" on="1"/>
        <pt x="201" y="137" on="1"/>
        <pt x="177" y="0" on="1"/>
        <pt x="39" y="0" on="1"/>
      </contour>
    </TTGlyph>
    <TTGlyph name="exclamdown" xMin="11" yMin="-160" xMax="277" yMax="526">
      <contour>
        <pt x="139" y="526" on="1"/>
        <pt x="277" y="526" on="1"/>
        <pt x="253" y="389" on="1"/>
        <pt x="115" y="389" on="1"/>
      </contour>
      <contour>
        <pt x="135" y="329" on="1"/>
        <pt x="217" y="329" on="1"/>
        <pt x="164" y="-160" on="1"/>
        <pt x="11" y="-160" on="1"/>
      </contour>
    </TTGlyph>
    <TTGlyph name="f" xMin="-98" yMin="-182" xMax="380" yMax="731">
      <contour>
        <pt x="-31" y="-70" on="1"/>
        <pt x="11" y="-70" on="0"/>
        <pt x="19" y="-27" on="1"/>
        <pt x="97" y="414" on="1"/>
        <pt x="22" y="414" on="1"/>
        <pt x="42" y="526" on="1"/>
        <pt x="117" y="526" on="1"/>
        <pt x="127" y="586" on="1"/>
        <pt x="137" y="648" on="0"/>
        <pt x="214" y="731" on="0"/>
        <pt x="285" y="731" on="1"/>
        <pt x="308" y="731" on="0"/>
        <pt x="363" y="721" on="0"/>
        <pt x="380" y="715" on="1"/>
        <pt x="363" y="619" on="1"/>
        <pt x="313" y="619" on="1"/>
        <pt x="271" y="619" on="0"/>
        <pt x="263" y="576" on="1"/>
        <pt x="254" y="526" on="1"/>
        <pt x="347" y="526" on="1"/>
        <pt x="327" y="414" on="1"/>
        <pt x="234" y="414" on="1"/>
        <pt x="155" y="-37" on="1"/>
        <pt x="145" y="-99" on="0"/>
        <pt x="68" y="-182" on="0"/>
        <pt x="-3" y="-182" on="1"/>
        <pt x="-26" y="-182" on="0"/>
        <pt x="-81" y="-172" on="0"/>
        <pt x="-98" y="-166" on="1"/>
        <pt x="-81" y="-70" on="1"/>
      </contour>
    </TTGlyph>
    <TTGlyph name="f_f" xMin="-98" yMin="-182" xMax="713" yMax="731">
      <contour>
        <pt x="604" y="619" on="0"/>
        <pt x="596" y="576" on="1"/>
        <pt x="587" y="526" on="1"/>
        <pt x="680" y="526" on="1"/>
        <pt x="660" y="414" on="1"/>
        <pt x="567" y="414" on="1"/>
        <pt x="494" y="0" on="1"/>
        <pt x="357" y="0" on="1"/>
        <pt x="430" y="414" on="1"/>
        <pt x="234" y="414" on="1"/>
        <pt x="155" y="-37" on="1"/>
        <pt x="145" y="-99" on="0"/>
        <pt x="68" y="-182" on="0"/>
        <pt x="-3" y="-182" on="1"/>
        <pt x="-26" y="-182" on="0"/>
        <pt x="-81" y="-172" on="0"/>
        <pt x="-98" y="-166" on="1"/>
        <pt x="-81" y="-70" on="1"/>
        <pt x="-31" y="-70" on="1"/>
        <pt x="11" y="-70" on="0"/>
        <pt x="19" y="-27" on="1"/>
        <pt x="97" y="414" on="1"/>
        <pt x="22" y="414" on="1"/>
        <pt x="42" y="526" on="1"/>
        <pt x="117" y="526" on="1"/>
        <pt x="127" y="586" on="1"/>
        <pt x="137" y="648" on="0"/>
        <pt x="214" y="731" on="0"/>
        <pt x="285" y="731" on="1"/>
        <pt x="308" y="731" on="0"/>
        <pt x="363" y="721" on="0"/>
        <pt x="380" y="715" on="1"/>
        <pt x="363" y="619" on="1"/>
        <pt x="313" y="619" on="1"/>
        <pt x="271" y="619" on="0"/>
        <pt x="263" y="576" on="1"/>
        <pt x="254" y="526" on="1"/>
        <pt x="450" y="526" on="1"/>
        <pt x="460" y="586" on="1"/>
        <pt x="470" y="648" on="0"/>
        <pt x="547" y="731" on="0"/>
        <pt x="618" y="731" on="1"/>
        <pt x="641" y="731" on="0"/>
        <pt x="696" y="721" on="0"/>
        <pt x="713" y="715" on="1"/>
        <pt x="696" y="619" on="1"/>
        <pt x="646" y="619" on="1"/>
      </contour>
    </TTGlyph>
    <TTGlyph name="fi" xMin="-98" yMin="-182" xMax="610" yMax="731">
      <component glyphName="f" x="0" y="0" flags="0x0"/>
      <component glyphName="i" x="333" y="0" flags="0x0"/>
    </TTGlyph>
    <TTGlyph name="five" xMin="10" yMin="-12" xMax="544" yMax="686">
      <contour>
        <pt x="211" y="412" on="1"/>
        <pt x="237" y="427" on="0"/>
        <pt x="291" y="446" on="0"/>
        <pt x="327" y="446" on="1"/>
        <pt x="407" y="446" on="0"/>
        <pt x="502" y="357" on="0"/>
        <pt x="502" y="270" on="1"/>
        <pt x="502" y="184" on="0"/>
        <pt x="432" y="56" on="0"/>
        <pt x="313" y="-12" on="0"/>
        <pt x="239" y="-12" on="1"/>
        <pt x="132" y="-12" on="0"/>
        <pt x="10" y="82" on="0"/>
        <pt x="10" y="166" on="1"/>
        <pt x="10" y="190" on="0"/>
        <pt x="14" y="213" on="1"/>
        <pt x="155" y="213" on="1"/>
        <pt x="152" y="197" on="0"/>
        <pt x="152" y="183" on="1"/>
        <pt x="152" y="144" on="0"/>
        <pt x="195" y="100" on="0"/>
        <pt x="235" y="100" on="1"/>
        <pt x="267" y="100" on="0"/>
        <pt x="324" y="135" on="0"/>
        <pt x="359" y="205" on="0"/>
        <pt x="359" y="254" on="1"/>
        <pt x="359" y="295" on="0"/>
        <pt x="315" y="338" on="0"/>
        <pt x="278" y="338" on="1"/>
        <pt x="248" y="338" on="0"/>
        <pt x="201" y="312" on="0"/>
        <pt x="180" y="290" on="1"/>
        <pt x="53" y="306" on="1"/>
        <pt x="147" y="686" on="1"/>
        <pt x="544" y="686" on="1"/>
        <pt x="523" y="564" on="1"/>
        <pt x="247" y="564" on="1"/>
      </contour>
    </TTGlyph>
    <TTGlyph name="fiveeighths" xMin="40" yMin="-12" xMax="807" yMax="698">
      <contour>
        <pt x="711" y="698" on="1"/>
        <pt x="807" y="698" on="1"/>
        <pt x="136" y="-12" on="1"/>
        <pt x="40" y="-12" on="1"/>
      </contour>
      <contour>
        <pt x="171" y="550" on="1"/>
        <pt x="197" y="564" on="0"/>
        <pt x="230" y="564" on="1"/>
        <pt x="271" y="564" on="0"/>
        <pt x="320" y="515" on="0"/>
        <pt x="320" y="468" on="1"/>
        <pt x="320" y="399" on="0"/>
        <pt x="239" y="319" on="0"/>
        <pt x="177" y="319" on="1"/>
        <pt x="120" y="319" on="0"/>
        <pt x="57" y="367" on="0"/>
        <pt x="57" y="410" on="1"/>
        <pt x="57" y="426" on="0"/>
        <pt x="59" y="435" on="1"/>
        <pt x="143" y="435" on="1"/>
        <pt x="141" y="425" on="0"/>
        <pt x="141" y="421" on="1"/>
        <pt x="141" y="405" on="0"/>
        <pt x="161" y="387" on="0"/>
        <pt x="179" y="387" on="1"/>
        <pt x="202" y="387" on="0"/>
        <pt x="235" y="427" on="0"/>
        <pt x="235" y="461" on="1"/>
        <pt x="235" y="479" on="0"/>
        <pt x="216" y="497" on="0"/>
        <pt x="199" y="497" on="1"/>
        <pt x="175" y="497" on="0"/>
        <pt x="152" y="472" on="1"/>
        <pt x="78" y="482" on="1"/>
        <pt x="128" y="686" on="1"/>
        <pt x="342" y="686" on="1"/>
        <pt x="329" y="612" on="1"/>
        <pt x="186" y="612" on="1"/>
      </contour>
      <contour>
        <pt x="751" y="158" on="0"/>
        <pt x="751" y="108" on="1"/>
        <pt x="751" y="57" on="0"/>
        <pt x="677" y="-12" on="0"/>
        <pt x="610" y="-12" on="1"/>
        <pt x="546" y="-12" on="0"/>
        <pt x="486" y="39" on="0"/>
        <pt x="486" y="81" on="1"/>
        <pt x="486" y="152" on="0"/>
        <pt x="557" y="181" on="1"/>
        <pt x="541" y="193" on="0"/>
        <pt x="524" y="228" on="0"/>
        <pt x="524" y="248" on="1"/>
        <pt x="524" y="295" on="0"/>
        <pt x="597" y="362" on="0"/>
        <pt x="656" y="362" on="1"/>
        <pt x="713" y="362" on="0"/>
        <pt x="772" y="312" on="0"/>
        <pt x="772" y="272" on="1"/>
        <pt x="772" y="244" on="0"/>
        <pt x="740" y="197" on="0"/>
        <pt x="710" y="181" on="1"/>
      </contour>
      <contour>
        <pt x="660" y="212" on="0"/>
        <pt x="688" y="239" on="0"/>
        <pt x="688" y="262" on="1"/>
        <pt x="688" y="294" on="0"/>
        <pt x="654" y="294" on="1"/>
        <pt x="632" y="294" on="0"/>
        <pt x="607" y="266" on="0"/>
        <pt x="607" y="241" on="1"/>
        <pt x="607" y="212" on="0"/>
        <pt x="639" y="212" on="1"/>
      </contour>
      <contour>
        <pt x="668" y="145" on="0"/>
        <pt x="628" y="145" on="1"/>
        <pt x="602" y="145" on="0"/>
        <pt x="572" y="116" on="0"/>
        <pt x="572" y="90" on="1"/>
        <pt x="572" y="56" on="0"/>
        <pt x="612" y="56" on="1"/>
        <pt x="637" y="56" on="0"/>
        <pt x="668" y="85" on="0"/>
        <pt x="668" y="111" on="1"/>
      </contour>
    </TTGlyph>
    <TTGlyph name="fl" xMin="-98" yMin="-182" xMax="610" yMax="731">
      <component glyphName="f" x="0" y="0" flags="0x0"/>
      <component glyphName="l" x="333" y="0" flags="0x0"/>
    </TTGlyph>
    <TTGlyph name="florin" xMin="-39" yMin="-183" xMax="546" yMax="731">
      <contour>
        <pt x="38" y="-71" on="1"/>
        <pt x="81" y="-71" on="0"/>
        <pt x="93" y="-28" on="1"/>
        <pt x="216" y="378" on="1"/>
        <pt x="141" y="378" on="1"/>
        <pt x="173" y="490" on="1"/>
        <pt x="248" y="490" on="1"/>
        <pt x="278" y="586" on="1"/>
        <pt x="301" y="658" on="0"/>
        <pt x="385" y="731" on="0"/>
        <pt x="463" y="731" on="1"/>
        <pt x="484" y="731" on="0"/>
        <pt x="532" y="721" on="0"/>
        <pt x="546" y="715" on="1"/>
        <pt x="518" y="619" on="1"/>
        <pt x="468" y="619" on="1"/>
        <pt x="447" y="619" on="0"/>
        <pt x="418" y="597" on="0"/>
        <pt x="412" y="576" on="1"/>
        <pt x="385" y="490" on="1"/>
        <pt x="478" y="490" on="1"/>
        <pt x="446" y="378" on="1"/>
        <pt x="353" y="378" on="1"/>
        <pt x="227" y="-38" on="1"/>
        <pt x="206" y="-108" on="0"/>
        <pt x="120" y="-183" on="0"/>
        <pt x="43" y="-183" on="1"/>
        <pt x="22" y="-183" on="0"/>
        <pt x="-26" y="-173" on="0"/>
        <pt x="-39" y="-167" on="1"/>
        <pt x="-12" y="-71" on="1"/>
      </contour>
    </TTGlyph>
    <TTGlyph name="four" xMin="-15" yMin="0" xMax="516" yMax="698">
      <contour>
        <pt x="278" y="146" on="1"/>
        <pt x="-15" y="146" on="1"/>
        <pt x="3" y="258" on="1"/>
        <pt x="75" y="348" on="0"/>
        <pt x="197" y="564" on="0"/>
        <pt x="254" y="698" on="1"/>
        <pt x="406" y="698" on="1"/>
        <pt x="372" y="617" on="0"/>
        <pt x="264" y="435" on="0"/>
        <pt x="158" y="288" on="0"/>
        <pt x="129" y="258" on="1"/>
        <pt x="297" y="258" on="1"/>
        <pt x="322" y="400" on="1"/>
        <pt x="349" y="437" on="0"/>
        <pt x="411" y="551" on="0"/>
        <pt x="431" y="596" on="1"/>
        <pt x="494" y="596" on="1"/>
        <pt x="434" y="258" on="1"/>
        <pt x="516" y="258" on="1"/>
        <pt x="497" y="146" on="1"/>
        <pt x="415" y="146" on="1"/>
        <pt x="389" y="0" on="1"/>
        <pt x="252" y="0" on="1"/>
      </contour>
    </TTGlyph>
    <TTGlyph name="fraction" xMin="-238" yMin="-12" xMax="404" yMax="698">
      <contour>
        <pt x="308" y="698" on="1"/>
        <pt x="404" y="698" on="1"/>
        <pt x="-142" y="-12" on="1"/>
        <pt x="-238" y="-12" on="1"/>
      </contour>
    </TTGlyph>
    <TTGlyph name="franc" xMin="0" yMin="0" xMax="575" yMax="686">
      <contour>
        <pt x="276" y="256" on="1"/>
        <pt x="189" y="256" on="1"/>
        <pt x="144" y="0" on="1"/>
        <pt x="0" y="0" on="1"/>
        <pt x="120" y="686" on="1"/>
        <pt x="477" y="686" on="1"/>
        <pt x="455" y="563" on="1"/>
        <pt x="243" y="563" on="1"/>
        <pt x="211" y="379" on="1"/>
        <pt x="298" y="379" on="1"/>
        <pt x="313" y="464" on="1"/>
        <pt x="426" y="464" on="1"/>
        <pt x="426" y="379" on="1"/>
        <pt x="433" y="379" on="1"/>
        <pt x="477" y="476" on="0"/>
        <pt x="537" y="476" on="1"/>
        <pt x="552" y="476" on="0"/>
        <pt x="575" y="468" on="0"/>
        <pt x="575" y="467" on="1"/>
        <pt x="553" y="339" on="1"/>
        <pt x="515" y="339" on="1"/>
        <pt x="469" y="339" on="0"/>
        <pt x="415" y="266" on="0"/>
        <pt x="402" y="192" on="1"/>
        <pt x="368" y="0" on="1"/>
        <pt x="231" y="0" on="1"/>
      </contour>
    </TTGlyph>
    <TTGlyph name="g" xMin="-1" yMin="-182" xMax="575" yMax="538">
      <contour>
        <pt x="356" y="91" on="1"/>
        <pt x="328" y="55" on="0"/>
        <pt x="255" y="18" on="0"/>
        <pt x="204" y="18" on="1"/>
        <pt x="124" y="18" on="0"/>
        <pt x="22" y="118" on="0"/>
        <pt x="22" y="216" on="1"/>
        <pt x="22" y="293" on="0"/>
        <pt x="77" y="441" on="0"/>
        <pt x="191" y="538" on="0"/>
        <pt x="275" y="538" on="1"/>
        <pt x="330" y="538" on="0"/>
        <pt x="410" y="497" on="0"/>
        <pt x="430" y="457" on="1"/>
        <pt x="437" y="457" on="1"/>
        <pt x="458" y="526" on="1"/>
        <pt x="575" y="526" on="1"/>
        <pt x="493" y="63" on="1"/>
        <pt x="471" y="-62" on="0"/>
        <pt x="339" y="-182" on="0"/>
        <pt x="216" y="-182" on="1"/>
        <pt x="118" y="-182" on="0"/>
        <pt x="0" y="-107" on="0"/>
        <pt x="-1" y="-35" on="1"/>
        <pt x="-1" y="-25" on="1"/>
        <pt x="132" y="-25" on="1"/>
        <pt x="136" y="-49" on="0"/>
        <pt x="179" y="-70" on="0"/>
        <pt x="221" y="-70" on="1"/>
        <pt x="332" y="-70" on="0"/>
        <pt x="356" y="59" on="1"/>
        <pt x="362" y="91" on="1"/>
      </contour>
      <contour>
        <pt x="306" y="137" on="0"/>
        <pt x="372" y="197" on="0"/>
        <pt x="401" y="285" on="0"/>
        <pt x="401" y="329" on="1"/>
        <pt x="401" y="374" on="0"/>
        <pt x="355" y="419" on="0"/>
        <pt x="310" y="419" on="1"/>
        <pt x="230" y="419" on="0"/>
        <pt x="164" y="298" on="0"/>
        <pt x="164" y="224" on="1"/>
        <pt x="164" y="180" on="0"/>
        <pt x="207" y="137" on="0"/>
        <pt x="253" y="137" on="1"/>
      </contour>
    </TTGlyph>
    <TTGlyph name="g_tilde.loclGUA" xMin="-1" yMin="-182" xMax="575" yMax="723">
      <component glyphName="g" x="0" y="0" flags="0x0"/>
      <component glyphName="tilde" x="209" y="0" flags="0x0"/>
    </TTGlyph>
    <TTGlyph name="gbreve" xMin="-1" yMin="-182" xMax="575" yMax="723">
      <component glyphName="g" x="0" y="0" flags="0x0"/>
      <component glyphName="breve" x="197" y="0" flags="0x0"/>
    </TTGlyph>
    <TTGlyph name="gcaron" xMin="-1" yMin="-182" xMax="575" yMax="723">
      <component glyphName="g" x="0" y="0" flags="0x0"/>
      <component glyphName="caron" x="209" y="0" flags="0x0"/>
    </TTGlyph>
    <TTGlyph name="gcircumflex" xMin="-1" yMin="-182" xMax="575" yMax="723">
      <component glyphName="g" x="0" y="0" flags="0x0"/>
      <component glyphName="circumflex" x="201" y="0" flags="0x0"/>
    </TTGlyph>
    <TTGlyph name="gcommaaccent" xMin="-1" yMin="-182" xMax="575" yMax="780">
      <contour>
        <pt x="277" y="671" on="1"/>
        <pt x="363" y="780" on="1"/>
        <pt x="435" y="780" on="1"/>
        <pt x="365" y="683" on="1"/>
        <pt x="418" y="683" on="1"/>
        <pt x="400" y="585" on="1"/>
        <pt x="262" y="585" on="1"/>
      </contour>
      <contour>
        <pt x="356" y="91" on="1"/>
        <pt x="328" y="55" on="0"/>
        <pt x="255" y="18" on="0"/>
        <pt x="204" y="18" on="1"/>
        <pt x="124" y="18" on="0"/>
        <pt x="22" y="118" on="0"/>
        <pt x="22" y="216" on="1"/>
        <pt x="22" y="293" on="0"/>
        <pt x="77" y="441" on="0"/>
        <pt x="191" y="538" on="0"/>
        <pt x="275" y="538" on="1"/>
        <pt x="330" y="538" on="0"/>
        <pt x="410" y="497" on="0"/>
        <pt x="430" y="457" on="1"/>
        <pt x="437" y="457" on="1"/>
        <pt x="458" y="526" on="1"/>
        <pt x="575" y="526" on="1"/>
        <pt x="493" y="63" on="1"/>
        <pt x="471" y="-62" on="0"/>
        <pt x="339" y="-182" on="0"/>
        <pt x="216" y="-182" on="1"/>
        <pt x="118" y="-182" on="0"/>
        <pt x="0" y="-107" on="0"/>
        <pt x="-1" y="-35" on="1"/>
        <pt x="-1" y="-25" on="1"/>
        <pt x="132" y="-25" on="1"/>
        <pt x="136" y="-49" on="0"/>
        <pt x="179" y="-70" on="0"/>
        <pt x="221" y="-70" on="1"/>
        <pt x="332" y="-70" on="0"/>
        <pt x="356" y="59" on="1"/>
        <pt x="362" y="91" on="1"/>
      </contour>
      <contour>
        <pt x="306" y="137" on="0"/>
        <pt x="372" y="197" on="0"/>
        <pt x="401" y="285" on="0"/>
        <pt x="401" y="329" on="1"/>
        <pt x="401" y="374" on="0"/>
        <pt x="355" y="419" on="0"/>
        <pt x="310" y="419" on="1"/>
        <pt x="230" y="419" on="0"/>
        <pt x="164" y="298" on="0"/>
        <pt x="164" y="224" on="1"/>
        <pt x="164" y="180" on="0"/>
        <pt x="207" y="137" on="0"/>
        <pt x="253" y="137" on="1"/>
      </contour>
    </TTGlyph>
    <TTGlyph name="gdotaccent" xMin="-1" yMin="-182" xMax="575" yMax="724">
      <component glyphName="g" x="0" y="0" flags="0x0"/>
      <component glyphName="dotaccent" x="208" y="0" flags="0x0"/>
    </TTGlyph>
    <TTGlyph name="germandbls" xMin="9" yMin="0" xMax="590" yMax="735">
      <contour>
        <pt x="224" y="111" on="1"/>
        <pt x="283" y="111" on="1"/>
        <pt x="348" y="111" on="0"/>
        <pt x="417" y="181" on="0"/>
        <pt x="417" y="230" on="1"/>
        <pt x="417" y="270" on="0"/>
        <pt x="367" y="321" on="0"/>
        <pt x="325" y="321" on="1"/>
        <pt x="261" y="321" on="1"/>
        <pt x="282" y="442" on="1"/>
        <pt x="343" y="442" on="1"/>
        <pt x="389" y="442" on="0"/>
        <pt x="447" y="498" on="0"/>
        <pt x="447" y="545" on="1"/>
        <pt x="447" y="582" on="0"/>
        <pt x="404" y="625" on="0"/>
        <pt x="359" y="625" on="1"/>
        <pt x="312" y="625" on="0"/>
        <pt x="246" y="569" on="0"/>
        <pt x="237" y="519" on="1"/>
        <pt x="146" y="0" on="1"/>
        <pt x="9" y="0" on="1"/>
        <pt x="99" y="511" on="1"/>
        <pt x="120" y="627" on="0"/>
        <pt x="188" y="683" on="1"/>
        <pt x="253" y="735" on="0"/>
        <pt x="359" y="735" on="1"/>
        <pt x="471" y="735" on="0"/>
        <pt x="590" y="648" on="0"/>
        <pt x="590" y="568" on="1"/>
        <pt x="590" y="505" on="0"/>
        <pt x="515" y="416" on="0"/>
        <pt x="449" y="396" on="1"/>
        <pt x="449" y="392" on="1"/>
        <pt x="504" y="372" on="0"/>
        <pt x="555" y="292" on="0"/>
        <pt x="555" y="228" on="1"/>
        <pt x="555" y="124" on="0"/>
        <pt x="410" y="0" on="0"/>
        <pt x="277" y="0" on="1"/>
        <pt x="205" y="0" on="1"/>
      </contour>
    </TTGlyph>
    <TTGlyph name="grave" xMin="86" yMin="591" xMax="271" yMax="723">
      <contour>
        <pt x="86" y="720" on="1"/>
        <pt x="87" y="723" on="1"/>
        <pt x="215" y="723" on="1"/>
        <pt x="271" y="591" on="1"/>
        <pt x="171" y="591" on="1"/>
      </contour>
    </TTGlyph>
    <TTGlyph name="greater" xMin="6" yMin="2" xMax="537" yMax="522">
      <contour>
        <pt x="26" y="124" on="1"/>
        <pt x="424" y="266" on="1"/>
        <pt x="77" y="408" on="1"/>
        <pt x="97" y="522" on="1"/>
        <pt x="537" y="326" on="1"/>
        <pt x="514" y="199" on="1"/>
        <pt x="6" y="2" on="1"/>
      </contour>
    </TTGlyph>
    <TTGlyph name="greaterequal" xMin="-18" yMin="0" xMax="534" yMax="644">
      <contour>
        <pt x="23" y="246" on="1"/>
        <pt x="421" y="388" on="1"/>
        <pt x="74" y="530" on="1"/>
        <pt x="94" y="644" on="1"/>
        <pt x="534" y="448" on="1"/>
        <pt x="511" y="321" on="1"/>
        <pt x="3" y="124" on="1"/>
      </contour>
      <contour>
        <pt x="0" y="104" on="1"/>
        <pt x="472" y="104" on="1"/>
        <pt x="454" y="0" on="1"/>
        <pt x="-18" y="0" on="1"/>
      </contour>
    </TTGlyph>
    <TTGlyph name="guillemotleft" xMin="59" yMin="126" xMax="329" yMax="526">
      <contour>
        <pt x="186" y="326" on="1"/>
        <pt x="258" y="126" on="1"/>
        <pt x="159" y="126" on="1"/>
        <pt x="59" y="326" on="1"/>
        <pt x="220" y="526" on="1"/>
        <pt x="329" y="526" on="1"/>
      </contour>
    </TTGlyph>
    <TTGlyph name="guillemotright" xMin="3" yMin="126" xMax="274" yMax="526">
      <contour>
        <pt x="274" y="326" on="1"/>
        <pt x="112" y="126" on="1"/>
        <pt x="3" y="126" on="1"/>
        <pt x="147" y="326" on="1"/>
        <pt x="74" y="526" on="1"/>
        <pt x="173" y="526" on="1"/>
      </contour>
    </TTGlyph>
    <TTGlyph name="guilsinglleft" xMin="59" yMin="126" xMax="329" yMax="526">
      <contour>
        <pt x="59" y="326" on="1"/>
        <pt x="220" y="526" on="1"/>
        <pt x="329" y="526" on="1"/>
        <pt x="186" y="326" on="1"/>
        <pt x="258" y="126" on="1"/>
        <pt x="159" y="126" on="1"/>
      </contour>
    </TTGlyph>
    <TTGlyph name="guilsinglright" xMin="3" yMin="126" xMax="274" yMax="526">
      <contour>
        <pt x="147" y="326" on="1"/>
        <pt x="74" y="526" on="1"/>
        <pt x="173" y="526" on="1"/>
        <pt x="274" y="326" on="1"/>
        <pt x="112" y="126" on="1"/>
        <pt x="3" y="126" on="1"/>
      </contour>
    </TTGlyph>
    <TTGlyph name="h" xMin="17" yMin="0" xMax="555" yMax="723">
      <contour>
        <pt x="406" y="304" on="1"/>
        <pt x="412" y="340" on="0"/>
        <pt x="412" y="352" on="1"/>
        <pt x="412" y="417" on="0"/>
        <pt x="345" y="417" on="1"/>
        <pt x="292" y="417" on="0"/>
        <pt x="215" y="343" on="0"/>
        <pt x="203" y="274" on="1"/>
        <pt x="154" y="0" on="1"/>
        <pt x="17" y="0" on="1"/>
        <pt x="144" y="723" on="1"/>
        <pt x="281" y="723" on="1"/>
        <pt x="236" y="465" on="1"/>
        <pt x="243" y="465" on="1"/>
        <pt x="273" y="497" on="0"/>
        <pt x="358" y="538" on="0"/>
        <pt x="405" y="538" on="1"/>
        <pt x="471" y="538" on="0"/>
        <pt x="555" y="470" on="0"/>
        <pt x="555" y="398" on="1"/>
        <pt x="555" y="366" on="0"/>
        <pt x="545" y="313" on="1"/>
        <pt x="489" y="0" on="1"/>
        <pt x="352" y="0" on="1"/>
      </contour>
    </TTGlyph>
    <TTGlyph name="hbar" xMin="17" yMin="0" xMax="555" yMax="723">
      <contour>
        <pt x="406" y="304" on="1"/>
        <pt x="412" y="340" on="0"/>
        <pt x="412" y="352" on="1"/>
        <pt x="412" y="417" on="0"/>
        <pt x="345" y="417" on="1"/>
        <pt x="292" y="417" on="0"/>
        <pt x="215" y="343" on="0"/>
        <pt x="203" y="274" on="1"/>
        <pt x="154" y="0" on="1"/>
        <pt x="17" y="0" on="1"/>
        <pt x="120" y="587" on="1"/>
        <pt x="62" y="587" on="1"/>
        <pt x="75" y="658" on="1"/>
        <pt x="132" y="658" on="1"/>
        <pt x="144" y="723" on="1"/>
        <pt x="281" y="723" on="1"/>
        <pt x="270" y="658" on="1"/>
        <pt x="424" y="658" on="1"/>
        <pt x="411" y="587" on="1"/>
        <pt x="257" y="587" on="1"/>
        <pt x="236" y="465" on="1"/>
        <pt x="243" y="465" on="1"/>
        <pt x="273" y="497" on="0"/>
        <pt x="358" y="538" on="0"/>
        <pt x="405" y="538" on="1"/>
        <pt x="471" y="538" on="0"/>
        <pt x="555" y="470" on="0"/>
        <pt x="555" y="398" on="1"/>
        <pt x="555" y="366" on="0"/>
        <pt x="545" y="313" on="1"/>
        <pt x="489" y="0" on="1"/>
        <pt x="352" y="0" on="1"/>
      </contour>
    </TTGlyph>
    <TTGlyph name="hcircumflex" xMin="17" yMin="0" xMax="555" yMax="883">
      <component glyphName="h" x="0" y="0" flags="0x0"/>
      <component glyphName="circumflex" x="55" y="160" flags="0x0"/>
    </TTGlyph>
    <TTGlyph name="hookabovecomb" xMin="-193" yMin="591" xMax="7" yMax="735">
      <contour>
        <pt x="-185" y="727" on="1"/>
        <pt x="-145" y="735" on="0"/>
        <pt x="-100" y="735" on="1"/>
        <pt x="-58" y="735" on="0"/>
        <pt x="7" y="711" on="0"/>
        <pt x="7" y="683" on="1"/>
        <pt x="7" y="651" on="0"/>
        <pt x="-48" y="619" on="0"/>
        <pt x="-89" y="616" on="1"/>
        <pt x="-94" y="591" on="1"/>
        <pt x="-162" y="591" on="1"/>
        <pt x="-152" y="645" on="1"/>
        <pt x="-138" y="645" on="1"/>
        <pt x="-119" y="645" on="0"/>
        <pt x="-103" y="656" on="0"/>
        <pt x="-103" y="668" on="1"/>
        <pt x="-103" y="677" on="0"/>
        <pt x="-118" y="683" on="0"/>
        <pt x="-135" y="683" on="1"/>
        <pt x="-193" y="683" on="1"/>
      </contour>
    </TTGlyph>
    <TTGlyph name="house" xMin="77" yMin="0" xMax="527" yMax="563">
      <contour>
        <pt x="77" y="310" on="1"/>
        <pt x="302" y="563" on="1"/>
        <pt x="527" y="310" on="1"/>
        <pt x="527" y="0" on="1"/>
        <pt x="77" y="0" on="1"/>
      </contour>
      <contour>
        <pt x="302" y="461" on="1"/>
        <pt x="146" y="283" on="1"/>
        <pt x="146" y="70" on="1"/>
        <pt x="458" y="70" on="1"/>
        <pt x="458" y="283" on="1"/>
      </contour>
    </TTGlyph>
    <TTGlyph name="hungarumlaut" xMin="-8" yMin="591" xMax="410" yMax="723">
      <contour>
        <pt x="-8" y="591" on="1"/>
        <pt x="93" y="723" on="1"/>
        <pt x="230" y="723" on="1"/>
        <pt x="231" y="720" on="1"/>
        <pt x="100" y="591" on="1"/>
      </contour>
      <contour>
        <pt x="170" y="591" on="1"/>
        <pt x="272" y="723" on="1"/>
        <pt x="409" y="723" on="1"/>
        <pt x="410" y="720" on="1"/>
        <pt x="279" y="591" on="1"/>
      </contour>
    </TTGlyph>
    <TTGlyph name="hyphen" xMin="27" yMin="211" xMax="289" yMax="329">
      <contour>
        <pt x="48" y="329" on="1"/>
        <pt x="289" y="329" on="1"/>
        <pt x="268" y="211" on="1"/>
        <pt x="27" y="211" on="1"/>
      </contour>
    </TTGlyph>
    <TTGlyph name="i" xMin="13" yMin="0" xMax="277" yMax="723">
      <contour>
        <pt x="140" y="723" on="1"/>
        <pt x="277" y="723" on="1"/>
        <pt x="255" y="599" on="1"/>
        <pt x="118" y="599" on="1"/>
      </contour>
      <contour>
        <pt x="106" y="526" on="1"/>
        <pt x="243" y="526" on="1"/>
        <pt x="150" y="0" on="1"/>
        <pt x="13" y="0" on="1"/>
      </contour>
    </TTGlyph>
    <TTGlyph name="i.loclTRK" xMin="13" yMin="0" xMax="277" yMax="724">
      <component glyphName="dotlessi" x="0" y="0" flags="0x0"/>
      <component glyphName="dotaccent" x="31" y="0" flags="0x0"/>
    </TTGlyph>
    <TTGlyph name="iacute" xMin="13" yMin="0" xMax="354" yMax="723">
      <contour>
        <pt x="113" y="591" on="1"/>
        <pt x="215" y="723" on="1"/>
        <pt x="353" y="723" on="1"/>
        <pt x="354" y="720" on="1"/>
        <pt x="223" y="591" on="1"/>
      </contour>
      <contour>
        <pt x="106" y="526" on="1"/>
        <pt x="243" y="526" on="1"/>
        <pt x="150" y="0" on="1"/>
        <pt x="13" y="0" on="1"/>
      </contour>
    </TTGlyph>
    <TTGlyph name="iacute_j.loclNLD" xMin="13" yMin="-182" xMax="521" yMax="723">
      <component glyphName="dotlessi" x="0" y="0" flags="0x0"/>
      <component glyphName="acute" x="73" y="0" flags="0x0"/>
      <component glyphName="uni0237" x="278" y="0" flags="0x0"/>
      <component glyphName="acute" x="351" y="0" flags="0x0"/>
    </TTGlyph>
    <TTGlyph name="ibreve" xMin="13" yMin="0" xMax="355" yMax="723">
      <contour>
        <pt x="349" y="694" on="0"/>
        <pt x="317" y="638" on="0"/>
        <pt x="292" y="619" on="1"/>
        <pt x="248" y="586" on="0"/>
        <pt x="181" y="586" on="1"/>
        <pt x="102" y="586" on="0"/>
        <pt x="30" y="649" on="0"/>
        <pt x="30" y="698" on="1"/>
        <pt x="30" y="715" on="0"/>
        <pt x="32" y="723" on="1"/>
        <pt x="122" y="723" on="1"/>
        <pt x="122" y="703" on="0"/>
        <pt x="151" y="675" on="0"/>
        <pt x="184" y="675" on="1"/>
        <pt x="216" y="675" on="0"/>
        <pt x="259" y="705" on="0"/>
        <pt x="265" y="723" on="1"/>
        <pt x="355" y="723" on="1"/>
      </contour>
      <contour>
        <pt x="106" y="526" on="1"/>
        <pt x="243" y="526" on="1"/>
        <pt x="150" y="0" on="1"/>
        <pt x="13" y="0" on="1"/>
      </contour>
    </TTGlyph>
    <TTGlyph name="icircumflex" xMin="10" yMin="0" xMax="342" yMax="723">
      <contour>
        <pt x="191" y="657" on="1"/>
        <pt x="129" y="588" on="1"/>
        <pt x="10" y="588" on="1"/>
        <pt x="138" y="723" on="1"/>
        <pt x="260" y="723" on="1"/>
        <pt x="342" y="588" on="1"/>
        <pt x="236" y="588" on="1"/>
      </contour>
      <contour>
        <pt x="106" y="526" on="1"/>
        <pt x="243" y="526" on="1"/>
        <pt x="150" y="0" on="1"/>
        <pt x="13" y="0" on="1"/>
      </contour>
    </TTGlyph>
    <TTGlyph name="idieresis" xMin="13" yMin="0" xMax="369" yMax="723">
      <contour>
        <pt x="40" y="723" on="1"/>
        <pt x="158" y="723" on="1"/>
        <pt x="137" y="605" on="1"/>
        <pt x="20" y="605" on="1"/>
      </contour>
      <contour>
        <pt x="250" y="723" on="1"/>
        <pt x="369" y="723" on="1"/>
        <pt x="348" y="605" on="1"/>
        <pt x="229" y="605" on="1"/>
      </contour>
      <contour>
        <pt x="106" y="526" on="1"/>
        <pt x="243" y="526" on="1"/>
        <pt x="150" y="0" on="1"/>
        <pt x="13" y="0" on="1"/>
      </contour>
    </TTGlyph>
    <TTGlyph name="igrave" xMin="13" yMin="0" xMax="248" yMax="723">
      <contour>
        <pt x="63" y="720" on="1"/>
        <pt x="64" y="723" on="1"/>
        <pt x="192" y="723" on="1"/>
        <pt x="248" y="591" on="1"/>
        <pt x="148" y="591" on="1"/>
      </contour>
      <contour>
        <pt x="106" y="526" on="1"/>
        <pt x="243" y="526" on="1"/>
        <pt x="150" y="0" on="1"/>
        <pt x="13" y="0" on="1"/>
      </contour>
    </TTGlyph>
    <TTGlyph name="ij" xMin="13" yMin="-182" xMax="555" yMax="723">
      <component glyphName="i" x="0" y="0" flags="0x0"/>
      <component glyphName="j" x="278" y="0" flags="0x0"/>
    </TTGlyph>
    <TTGlyph name="imacron" xMin="13" yMin="0" xMax="351" yMax="727">
      <contour>
        <pt x="46" y="727" on="1"/>
        <pt x="351" y="727" on="1"/>
        <pt x="336" y="639" on="1"/>
        <pt x="31" y="639" on="1"/>
      </contour>
      <contour>
        <pt x="106" y="526" on="1"/>
        <pt x="243" y="526" on="1"/>
        <pt x="150" y="0" on="1"/>
        <pt x="13" y="0" on="1"/>
      </contour>
    </TTGlyph>
    <TTGlyph name="infinity" xMin="43" yMin="138" xMax="667" yMax="457">
      <contour>
        <pt x="299" y="185" on="0"/>
        <pt x="222" y="138" on="0"/>
        <pt x="177" y="138" on="1"/>
        <pt x="119" y="138" on="0"/>
        <pt x="43" y="211" on="0"/>
        <pt x="43" y="272" on="1"/>
        <pt x="43" y="325" on="0"/>
        <pt x="90" y="409" on="0"/>
        <pt x="172" y="457" on="0"/>
        <pt x="222" y="457" on="1"/>
        <pt x="275" y="457" on="0"/>
        <pt x="347" y="413" on="0"/>
        <pt x="374" y="367" on="1"/>
        <pt x="379" y="372" on="0"/>
        <pt x="431" y="424" on="0"/>
        <pt x="497" y="457" on="0"/>
        <pt x="530" y="457" on="1"/>
        <pt x="590" y="457" on="0"/>
        <pt x="667" y="387" on="0"/>
        <pt x="667" y="326" on="1"/>
        <pt x="667" y="269" on="0"/>
        <pt x="619" y="184" on="0"/>
        <pt x="539" y="138" on="0"/>
        <pt x="493" y="138" on="1"/>
        <pt x="450" y="138" on="0"/>
        <pt x="373" y="176" on="0"/>
        <pt x="342" y="232" on="1"/>
      </contour>
      <contour>
        <pt x="286" y="339" on="0"/>
        <pt x="252" y="375" on="0"/>
        <pt x="219" y="375" on="1"/>
        <pt x="190" y="375" on="0"/>
        <pt x="139" y="326" on="0"/>
        <pt x="139" y="286" on="1"/>
        <pt x="139" y="258" on="0"/>
        <pt x="170" y="221" on="0"/>
        <pt x="195" y="221" on="1"/>
        <pt x="246" y="221" on="0"/>
        <pt x="308" y="293" on="1"/>
        <pt x="306" y="298" on="1"/>
      </contour>
      <contour>
        <pt x="428" y="252" on="0"/>
        <pt x="467" y="221" on="0"/>
        <pt x="494" y="221" on="1"/>
        <pt x="519" y="221" on="0"/>
        <pt x="554" y="252" on="0"/>
        <pt x="571" y="294" on="0"/>
        <pt x="571" y="311" on="1"/>
        <pt x="571" y="339" on="0"/>
        <pt x="542" y="375" on="0"/>
        <pt x="516" y="375" on="1"/>
        <pt x="489" y="375" on="0"/>
        <pt x="443" y="340" on="0"/>
        <pt x="406" y="302" on="1"/>
        <pt x="403" y="298" on="1"/>
      </contour>
    </TTGlyph>
    <TTGlyph name="integral" xMin="-65" yMin="-141" xMax="347" yMax="859">
      <contour>
        <pt x="21" y="-71" on="0"/>
        <pt x="32" y="-13" on="1"/>
        <pt x="45" y="85" on="0"/>
        <pt x="122" y="653" on="0"/>
        <pt x="139" y="747" on="1"/>
        <pt x="147" y="793" on="0"/>
        <pt x="195" y="841" on="0"/>
        <pt x="278" y="859" on="0"/>
        <pt x="347" y="859" on="1"/>
        <pt x="334" y="790" on="1"/>
        <pt x="258" y="790" on="0"/>
        <pt x="247" y="733" on="1"/>
        <pt x="234" y="635" on="0"/>
        <pt x="157" y="64" on="0"/>
        <pt x="141" y="-29" on="1"/>
        <pt x="133" y="-76" on="0"/>
        <pt x="85" y="-124" on="0"/>
        <pt x="4" y="-141" on="0"/>
        <pt x="-65" y="-141" on="1"/>
        <pt x="-52" y="-71" on="1"/>
      </contour>
    </TTGlyph>
    <TTGlyph name="integralbt" xMin="79" yMin="-250" xMax="448" yMax="859">
      <contour>
        <pt x="167" y="-181" on="0"/>
        <pt x="178" y="-124" on="1"/>
        <pt x="334" y="859" on="1"/>
        <pt x="448" y="859" on="1"/>
        <pt x="395" y="529" on="0"/>
        <pt x="308" y="-10" on="0"/>
        <pt x="286" y="-138" on="1"/>
        <pt x="278" y="-184" on="0"/>
        <pt x="230" y="-232" on="0"/>
        <pt x="148" y="-250" on="0"/>
        <pt x="79" y="-250" on="1"/>
        <pt x="91" y="-181" on="1"/>
      </contour>
    </TTGlyph>
    <TTGlyph name="integraltp" xMin="155" yMin="-250" xMax="524" yMax="859">
      <contour>
        <pt x="201" y="42" on="0"/>
        <pt x="295" y="619" on="0"/>
        <pt x="317" y="747" on="1"/>
        <pt x="325" y="793" on="0"/>
        <pt x="373" y="841" on="0"/>
        <pt x="455" y="859" on="0"/>
        <pt x="524" y="859" on="1"/>
        <pt x="512" y="790" on="1"/>
        <pt x="436" y="790" on="0"/>
        <pt x="425" y="733" on="1"/>
        <pt x="269" y="-250" on="1"/>
        <pt x="155" y="-250" on="1"/>
      </contour>
    </TTGlyph>
    <TTGlyph name="intersection" xMin="37" yMin="0" xMax="645" yMax="676">
      <contour>
        <pt x="549" y="410" on="1"/>
        <pt x="552" y="428" on="0"/>
        <pt x="552" y="446" on="1"/>
        <pt x="552" y="511" on="0"/>
        <pt x="475" y="589" on="0"/>
        <pt x="408" y="589" on="1"/>
        <pt x="328" y="589" on="0"/>
        <pt x="215" y="490" on="0"/>
        <pt x="201" y="410" on="1"/>
        <pt x="129" y="0" on="1"/>
        <pt x="37" y="0" on="1"/>
        <pt x="109" y="410" on="1"/>
        <pt x="123" y="490" on="0"/>
        <pt x="209" y="611" on="0"/>
        <pt x="333" y="676" on="0"/>
        <pt x="402" y="676" on="1"/>
        <pt x="473" y="676" on="0"/>
        <pt x="583" y="621" on="0"/>
        <pt x="645" y="522" on="0"/>
        <pt x="645" y="459" on="1"/>
        <pt x="645" y="433" on="0"/>
        <pt x="641" y="410" on="1"/>
        <pt x="569" y="0" on="1"/>
        <pt x="477" y="0" on="1"/>
      </contour>
    </TTGlyph>
    <TTGlyph name="iogonek" xMin="-20" yMin="-182" xMax="277" yMax="723">
      <contour>
        <pt x="140" y="723" on="1"/>
        <pt x="277" y="723" on="1"/>
        <pt x="255" y="599" on="1"/>
        <pt x="118" y="599" on="1"/>
      </contour>
      <contour>
        <pt x="104" y="-182" on="0"/>
        <pt x="72" y="-182" on="1"/>
        <pt x="33" y="-182" on="0"/>
        <pt x="-20" y="-145" on="0"/>
        <pt x="-20" y="-105" on="1"/>
        <pt x="-20" y="-73" on="0"/>
        <pt x="11" y="-22" on="0"/>
        <pt x="37" y="0" on="1"/>
        <pt x="13" y="0" on="1"/>
        <pt x="106" y="526" on="1"/>
        <pt x="243" y="526" on="1"/>
        <pt x="150" y="0" on="1"/>
        <pt x="128" y="0" on="1"/>
        <pt x="113" y="-15" on="0"/>
        <pt x="92" y="-55" on="0"/>
        <pt x="92" y="-75" on="1"/>
        <pt x="92" y="-92" on="0"/>
        <pt x="111" y="-113" on="0"/>
        <pt x="132" y="-113" on="1"/>
        <pt x="156" y="-113" on="1"/>
        <pt x="146" y="-168" on="1"/>
      </contour>
    </TTGlyph>
    <TTGlyph name="itilde" xMin="-2" yMin="0" xMax="354" yMax="723">
      <contour>
        <pt x="345" y="670" on="0"/>
        <pt x="287" y="601" on="0"/>
        <pt x="239" y="601" on="1"/>
        <pt x="223" y="601" on="0"/>
        <pt x="194" y="610" on="0"/>
        <pt x="171" y="620" on="1"/>
        <pt x="151" y="629" on="0"/>
        <pt x="123" y="638" on="0"/>
        <pt x="108" y="638" on="1"/>
        <pt x="93" y="638" on="0"/>
        <pt x="74" y="621" on="0"/>
        <pt x="67" y="601" on="1"/>
        <pt x="-2" y="601" on="1"/>
        <pt x="7" y="654" on="0"/>
        <pt x="64" y="723" on="0"/>
        <pt x="111" y="723" on="1"/>
        <pt x="128" y="723" on="0"/>
        <pt x="157" y="714" on="0"/>
        <pt x="180" y="704" on="1"/>
        <pt x="200" y="695" on="0"/>
        <pt x="228" y="686" on="0"/>
        <pt x="243" y="686" on="1"/>
        <pt x="258" y="686" on="0"/>
        <pt x="277" y="703" on="0"/>
        <pt x="284" y="723" on="1"/>
        <pt x="354" y="723" on="1"/>
      </contour>
      <contour>
        <pt x="106" y="526" on="1"/>
        <pt x="243" y="526" on="1"/>
        <pt x="150" y="0" on="1"/>
        <pt x="13" y="0" on="1"/>
      </contour>
    </TTGlyph>
    <TTGlyph name="j" xMin="-110" yMin="-182" xMax="277" yMax="723">
      <contour>
        <pt x="140" y="723" on="1"/>
        <pt x="277" y="723" on="1"/>
        <pt x="255" y="599" on="1"/>
        <pt x="118" y="599" on="1"/>
      </contour>
      <contour>
        <pt x="-42" y="-70" on="1"/>
        <pt x="0" y="-70" on="0"/>
        <pt x="8" y="-27" on="1"/>
        <pt x="106" y="526" on="1"/>
        <pt x="243" y="526" on="1"/>
        <pt x="143" y="-41" on="1"/>
        <pt x="133" y="-101" on="0"/>
        <pt x="59" y="-182" on="0"/>
        <pt x="-9" y="-182" on="1"/>
        <pt x="-34" y="-182" on="0"/>
        <pt x="-93" y="-172" on="0"/>
        <pt x="-110" y="-166" on="1"/>
        <pt x="-94" y="-70" on="1"/>
      </contour>
    </TTGlyph>
    <TTGlyph name="jcircumflex" xMin="-110" yMin="-182" xMax="336" yMax="723">
      <contour>
        <pt x="185" y="657" on="1"/>
        <pt x="123" y="588" on="1"/>
        <pt x="4" y="588" on="1"/>
        <pt x="132" y="723" on="1"/>
        <pt x="254" y="723" on="1"/>
        <pt x="336" y="588" on="1"/>
        <pt x="230" y="588" on="1"/>
      </contour>
      <contour>
        <pt x="-42" y="-70" on="1"/>
        <pt x="0" y="-70" on="0"/>
        <pt x="8" y="-27" on="1"/>
        <pt x="106" y="526" on="1"/>
        <pt x="243" y="526" on="1"/>
        <pt x="143" y="-41" on="1"/>
        <pt x="133" y="-101" on="0"/>
        <pt x="59" y="-182" on="0"/>
        <pt x="-9" y="-182" on="1"/>
        <pt x="-34" y="-182" on="0"/>
        <pt x="-93" y="-172" on="0"/>
        <pt x="-110" y="-166" on="1"/>
        <pt x="-94" y="-70" on="1"/>
      </contour>
    </TTGlyph>
    <TTGlyph name="k" xMin="13" yMin="0" xMax="575" yMax="723">
      <contour>
        <pt x="268" y="222" on="1"/>
        <pt x="177" y="152" on="1"/>
        <pt x="150" y="0" on="1"/>
        <pt x="13" y="0" on="1"/>
        <pt x="140" y="723" on="1"/>
        <pt x="277" y="723" on="1"/>
        <pt x="205" y="315" on="1"/>
        <pt x="417" y="526" on="1"/>
        <pt x="575" y="526" on="1"/>
        <pt x="366" y="319" on="1"/>
        <pt x="492" y="0" on="1"/>
        <pt x="345" y="0" on="1"/>
      </contour>
    </TTGlyph>
    <TTGlyph name="kcommaaccent" xMin="13" yMin="-230" xMax="575" yMax="723">
      <component glyphName="k" x="0" y="0" flags="0x0"/>
      <component glyphName="uni0326" x="391" y="0" flags="0x0"/>
    </TTGlyph>
    <TTGlyph name="kgreenlandic" xMin="13" yMin="0" xMax="575" yMax="526">
      <contour>
        <pt x="268" y="222" on="1"/>
        <pt x="177" y="152" on="1"/>
        <pt x="150" y="0" on="1"/>
        <pt x="13" y="0" on="1"/>
        <pt x="105" y="526" on="1"/>
        <pt x="242" y="526" on="1"/>
        <pt x="205" y="315" on="1"/>
        <pt x="417" y="526" on="1"/>
        <pt x="575" y="526" on="1"/>
        <pt x="366" y="319" on="1"/>
        <pt x="492" y="0" on="1"/>
        <pt x="345" y="0" on="1"/>
      </contour>
    </TTGlyph>
    <TTGlyph name="l" xMin="13" yMin="0" xMax="277" yMax="723">
      <contour>
        <pt x="140" y="723" on="1"/>
        <pt x="277" y="723" on="1"/>
        <pt x="150" y="0" on="1"/>
        <pt x="13" y="0" on="1"/>
      </contour>
    </TTGlyph>
    <TTGlyph name="lacute" xMin="13" yMin="0" xMax="406" yMax="883">
      <component glyphName="l" x="0" y="0" flags="0x0"/>
      <component glyphName="acute" x="107" y="160" flags="0x0"/>
    </TTGlyph>
    <TTGlyph name="lcaron" xMin="13" yMin="0" xMax="465" yMax="723">
      <contour>
        <pt x="140" y="723" on="1"/>
        <pt x="277" y="723" on="1"/>
        <pt x="150" y="0" on="1"/>
        <pt x="13" y="0" on="1"/>
      </contour>
      <contour>
        <pt x="358" y="559" on="1"/>
        <pt x="305" y="559" on="1"/>
        <pt x="327" y="686" on="1"/>
        <pt x="465" y="686" on="1"/>
        <pt x="445" y="571" on="1"/>
        <pt x="356" y="442" on="1"/>
        <pt x="284" y="442" on="1"/>
      </contour>
    </TTGlyph>
    <TTGlyph name="lcommaaccent" xMin="-26" yMin="-230" xMax="277" yMax="723">
      <component glyphName="l" x="0" y="0" flags="0x0"/>
      <component glyphName="uni0326" x="225" y="0" flags="0x0"/>
    </TTGlyph>
    <TTGlyph name="ldot" xMin="13" yMin="0" xMax="412" yMax="723">
      <component glyphName="l" x="0" y="0" flags="0x0"/>
      <component glyphName="periodcentered" x="158" y="0" flags="0x0"/>
    </TTGlyph>
    <TTGlyph name="less" xMin="36" yMin="2" xMax="567" yMax="522">
      <contour>
        <pt x="59" y="325" on="1"/>
        <pt x="567" y="522" on="1"/>
        <pt x="547" y="400" on="1"/>
        <pt x="149" y="258" on="1"/>
        <pt x="496" y="116" on="1"/>
        <pt x="476" y="2" on="1"/>
        <pt x="36" y="198" on="1"/>
      </contour>
    </TTGlyph>
    <TTGlyph name="lessequal" xMin="-17" yMin="0" xMax="567" yMax="643">
      <contour>
        <pt x="59" y="446" on="1"/>
        <pt x="567" y="643" on="1"/>
        <pt x="547" y="521" on="1"/>
        <pt x="149" y="379" on="1"/>
        <pt x="496" y="237" on="1"/>
        <pt x="476" y="123" on="1"/>
        <pt x="36" y="319" on="1"/>
      </contour>
      <contour>
        <pt x="0" y="104" on="1"/>
        <pt x="473" y="104" on="1"/>
        <pt x="455" y="0" on="1"/>
        <pt x="-17" y="0" on="1"/>
      </contour>
    </TTGlyph>
    <TTGlyph name="lira" xMin="-21" yMin="0" xMax="571" yMax="698">
      <contour>
        <pt x="-1" y="112" on="1"/>
        <pt x="60" y="112" on="1"/>
        <pt x="74" y="194" on="1"/>
        <pt x="0" y="194" on="1"/>
        <pt x="16" y="286" on="1"/>
        <pt x="90" y="286" on="1"/>
        <pt x="100" y="339" on="1"/>
        <pt x="25" y="339" on="1"/>
        <pt x="41" y="431" on="1"/>
        <pt x="116" y="431" on="1"/>
        <pt x="128" y="499" on="1"/>
        <pt x="145" y="598" on="0"/>
        <pt x="265" y="698" on="0"/>
        <pt x="362" y="698" on="1"/>
        <pt x="461" y="698" on="0"/>
        <pt x="571" y="622" on="0"/>
        <pt x="571" y="548" on="1"/>
        <pt x="571" y="521" on="0"/>
        <pt x="565" y="491" on="1"/>
        <pt x="429" y="491" on="1"/>
        <pt x="433" y="514" on="0"/>
        <pt x="433" y="524" on="1"/>
        <pt x="433" y="553" on="0"/>
        <pt x="396" y="586" on="0"/>
        <pt x="362" y="586" on="1"/>
        <pt x="325" y="586" on="0"/>
        <pt x="274" y="545" on="0"/>
        <pt x="268" y="512" on="1"/>
        <pt x="254" y="431" on="1"/>
        <pt x="410" y="431" on="1"/>
        <pt x="394" y="339" on="1"/>
        <pt x="236" y="339" on="1"/>
        <pt x="226" y="286" on="1"/>
        <pt x="384" y="286" on="1"/>
        <pt x="368" y="194" on="1"/>
        <pt x="210" y="194" on="1"/>
        <pt x="184" y="112" on="1"/>
        <pt x="490" y="112" on="1"/>
        <pt x="470" y="0" on="1"/>
        <pt x="-21" y="0" on="1"/>
      </contour>
    </TTGlyph>
    <TTGlyph name="logicalnot" xMin="47" yMin="193" xMax="565" yMax="455">
      <contour>
        <pt x="449" y="357" on="1"/>
        <pt x="47" y="357" on="1"/>
        <pt x="65" y="455" on="1"/>
        <pt x="565" y="455" on="1"/>
        <pt x="518" y="193" on="1"/>
        <pt x="420" y="193" on="1"/>
      </contour>
    </TTGlyph>
    <TTGlyph name="longs" xMin="-98" yMin="-182" xMax="380" yMax="731">
      <contour>
        <pt x="-31" y="-70" on="1"/>
        <pt x="11" y="-70" on="0"/>
        <pt x="19" y="-27" on="1"/>
        <pt x="97" y="414" on="1"/>
        <pt x="22" y="414" on="1"/>
        <pt x="42" y="526" on="1"/>
        <pt x="117" y="526" on="1"/>
        <pt x="127" y="586" on="1"/>
        <pt x="137" y="648" on="0"/>
        <pt x="214" y="731" on="0"/>
        <pt x="285" y="731" on="1"/>
        <pt x="308" y="731" on="0"/>
        <pt x="363" y="721" on="0"/>
        <pt x="380" y="715" on="1"/>
        <pt x="363" y="619" on="1"/>
        <pt x="313" y="619" on="1"/>
        <pt x="271" y="619" on="0"/>
        <pt x="263" y="576" on="1"/>
        <pt x="155" y="-37" on="1"/>
        <pt x="144" y="-99" on="0"/>
        <pt x="68" y="-182" on="0"/>
        <pt x="-3" y="-182" on="1"/>
        <pt x="-26" y="-182" on="0"/>
        <pt x="-81" y="-172" on="0"/>
        <pt x="-98" y="-166" on="1"/>
        <pt x="-81" y="-70" on="1"/>
      </contour>
    </TTGlyph>
    <TTGlyph name="lozenge" xMin="42" yMin="-133" xMax="526" yMax="728">
      <contour>
        <pt x="526" y="298" on="1"/>
        <pt x="272" y="-133" on="1"/>
        <pt x="145" y="-133" on="1"/>
        <pt x="42" y="298" on="1"/>
        <pt x="297" y="728" on="1"/>
        <pt x="424" y="728" on="1"/>
      </contour>
      <contour>
        <pt x="402" y="309" on="1"/>
        <pt x="341" y="597" on="1"/>
        <pt x="166" y="287" on="1"/>
        <pt x="227" y="-2" on="1"/>
      </contour>
    </TTGlyph>
    <TTGlyph name="lslash" xMin="-22" yMin="0" xMax="307" yMax="723">
      <contour>
        <pt x="57" y="250" on="1"/>
        <pt x="-22" y="202" on="1"/>
        <pt x="-4" y="304" on="1"/>
        <pt x="75" y="352" on="1"/>
        <pt x="140" y="723" on="1"/>
        <pt x="277" y="723" on="1"/>
        <pt x="228" y="446" on="1"/>
        <pt x="307" y="494" on="1"/>
        <pt x="289" y="392" on="1"/>
        <pt x="210" y="344" on="1"/>
        <pt x="150" y="0" on="1"/>
        <pt x="13" y="0" on="1"/>
      </contour>
    </TTGlyph>
    <TTGlyph name="m" xMin="17" yMin="0" xMax="834" yMax="538">
      <contour>
        <pt x="684" y="304" on="1"/>
        <pt x="690" y="342" on="0"/>
        <pt x="690" y="355" on="1"/>
        <pt x="690" y="417" on="0"/>
        <pt x="627" y="417" on="1"/>
        <pt x="585" y="417" on="0"/>
        <pt x="522" y="342" on="0"/>
        <pt x="512" y="284" on="1"/>
        <pt x="461" y="0" on="1"/>
        <pt x="324" y="0" on="1"/>
        <pt x="378" y="304" on="1"/>
        <pt x="384" y="342" on="0"/>
        <pt x="384" y="355" on="1"/>
        <pt x="384" y="417" on="0"/>
        <pt x="321" y="417" on="1"/>
        <pt x="279" y="417" on="0"/>
        <pt x="215" y="341" on="0"/>
        <pt x="205" y="284" on="1"/>
        <pt x="154" y="0" on="1"/>
        <pt x="17" y="0" on="1"/>
        <pt x="110" y="526" on="1"/>
        <pt x="225" y="526" on="1"/>
        <pt x="225" y="455" on="1"/>
        <pt x="232" y="455" on="1"/>
        <pt x="303" y="538" on="0"/>
        <pt x="391" y="538" on="1"/>
        <pt x="440" y="538" on="0"/>
        <pt x="507" y="497" on="0"/>
        <pt x="520" y="455" on="1"/>
        <pt x="528" y="455" on="1"/>
        <pt x="601" y="538" on="0"/>
        <pt x="693" y="538" on="1"/>
        <pt x="758" y="538" on="0"/>
        <pt x="834" y="470" on="0"/>
        <pt x="834" y="397" on="1"/>
        <pt x="834" y="366" on="0"/>
        <pt x="824" y="313" on="1"/>
        <pt x="767" y="0" on="1"/>
        <pt x="630" y="0" on="1"/>
      </contour>
    </TTGlyph>
    <TTGlyph name="macron" xMin="2" yMin="611" xMax="322" yMax="699">
      <contour>
        <pt x="17" y="699" on="1"/>
        <pt x="322" y="699" on="1"/>
        <pt x="307" y="611" on="1"/>
        <pt x="2" y="611" on="1"/>
      </contour>
    </TTGlyph>
    <TTGlyph name="minus" xMin="37" yMin="204" xMax="528" yMax="308">
      <contour>
        <pt x="56" y="308" on="1"/>
        <pt x="528" y="308" on="1"/>
        <pt x="509" y="204" on="1"/>
        <pt x="37" y="204" on="1"/>
      </contour>
    </TTGlyph>
    <TTGlyph name="minute" xMin="74" yMin="506" xMax="271" yMax="686">
      <contour>
        <pt x="140" y="686" on="1"/>
        <pt x="270" y="686" on="1"/>
        <pt x="271" y="683" on="1"/>
        <pt x="183" y="506" on="1"/>
        <pt x="74" y="506" on="1"/>
      </contour>
    </TTGlyph>
    <TTGlyph name="mu" xMin="-38" yMin="-173" xMax="558" yMax="526">
      <contour>
        <pt x="350" y="71" on="1"/>
        <pt x="343" y="71" on="1"/>
        <pt x="314" y="35" on="0"/>
        <pt x="221" y="-12" on="0"/>
        <pt x="170" y="-12" on="1"/>
        <pt x="147" y="-12" on="0"/>
        <pt x="128" y="-8" on="1"/>
        <pt x="99" y="-173" on="1"/>
        <pt x="-38" y="-173" on="1"/>
        <pt x="86" y="526" on="1"/>
        <pt x="223" y="526" on="1"/>
        <pt x="169" y="222" on="1"/>
        <pt x="163" y="186" on="0"/>
        <pt x="163" y="174" on="1"/>
        <pt x="163" y="109" on="0"/>
        <pt x="230" y="109" on="1"/>
        <pt x="283" y="109" on="0"/>
        <pt x="360" y="183" on="0"/>
        <pt x="372" y="252" on="1"/>
        <pt x="421" y="526" on="1"/>
        <pt x="558" y="526" on="1"/>
        <pt x="465" y="0" on="1"/>
        <pt x="350" y="0" on="1"/>
      </contour>
    </TTGlyph>
    <TTGlyph name="multiply" xMin="47" yMin="35" xMax="537" yMax="475">
      <contour>
        <pt x="284" y="181" on="1"/>
        <pt x="111" y="35" on="1"/>
        <pt x="47" y="113" on="1"/>
        <pt x="220" y="258" on="1"/>
        <pt x="103" y="400" on="1"/>
        <pt x="183" y="471" on="1"/>
        <pt x="300" y="329" on="1"/>
        <pt x="473" y="475" on="1"/>
        <pt x="537" y="397" on="1"/>
        <pt x="364" y="251" on="1"/>
        <pt x="481" y="110" on="1"/>
        <pt x="400" y="39" on="1"/>
      </contour>
    </TTGlyph>
    <TTGlyph name="n" xMin="17" yMin="0" xMax="555" yMax="538">
      <contour>
        <pt x="406" y="304" on="1"/>
        <pt x="412" y="340" on="0"/>
        <pt x="412" y="352" on="1"/>
        <pt x="412" y="417" on="0"/>
        <pt x="345" y="417" on="1"/>
        <pt x="292" y="417" on="0"/>
        <pt x="215" y="343" on="0"/>
        <pt x="203" y="274" on="1"/>
        <pt x="154" y="0" on="1"/>
        <pt x="17" y="0" on="1"/>
        <pt x="110" y="526" on="1"/>
        <pt x="225" y="526" on="1"/>
        <pt x="225" y="455" on="1"/>
        <pt x="232" y="455" on="1"/>
        <pt x="261" y="491" on="0"/>
        <pt x="354" y="538" on="0"/>
        <pt x="405" y="538" on="1"/>
        <pt x="471" y="538" on="0"/>
        <pt x="555" y="470" on="0"/>
        <pt x="555" y="398" on="1"/>
        <pt x="555" y="366" on="0"/>
        <pt x="545" y="313" on="1"/>
        <pt x="489" y="0" on="1"/>
        <pt x="352" y="0" on="1"/>
      </contour>
    </TTGlyph>
    <TTGlyph name="nacute" xMin="17" yMin="0" xMax="555" yMax="723">
      <component glyphName="n" x="0" y="0" flags="0x0"/>
      <component glyphName="acute" x="250" y="0" flags="0x0"/>
    </TTGlyph>
    <TTGlyph name="nacute.loclPLK" xMin="17" yMin="0" xMax="555" yMax="723">
      <component glyphName="n" x="0" y="0" flags="0x0"/>
      <component glyphName="acute.loclPLK" x="150" y="0" flags="0x0"/>
    </TTGlyph>
</ttFont>
